<svg xmlns="http://www.w3.org/2000/svg" xml:space="preserve" style="fill-rule:evenodd;clip-rule:evenodd;stroke-linejoin:round;stroke-miterlimit:2" viewBox="0 0 1800 500"><path d="M117 219c1 3-3-2-5 1 1 4 4 2 3 5 1 0 6 0 4-2-5 0 5-4-2-4M234 184zM95 120l-1 2zM308 155zq2-1 3-1 1-3-1-5c-1 3-5 0-4 3 0 1 4 0 3 2M311 170c5-2 3 4 7 4-1-2-3-9-7-4M208 264v-1q-2 0-1-1c-2 0 1 3 1 2M232 311h-2v2h3zM210 202q-1-1-1 1 1 0 1-1M248 343l1-2h-1zM214 177l2 1v-2q1 2-2 1M249 301q0-1-1 0v-1c-3 0 0 1 1 1M263 349q2 0 2-1zM259 323l2 1q0-2-2-1M256 294h-2zM260 281l2-2zM234 163zh1l-2-3zM273 330l1 1q-2 1 0 1zM282 320q0 0 1-1-3 1-1 1M273 269v-2zM259 206zl1 2h2l-1-1q2 0 1-1zM281 276q0 2 0 0c-2 0 0 2-2 0 0 3 5 0 2 0M246 146zl-1-1c1 1-2 1 1 2M291 326l-1 2zM272 229q-1-1 0 0zh3l-1-1zM283 270v1c-3 1 3 1 0-1M296 313q-2 0-3 2c0-2 4 1 3-2M292 297l-1-2q0 2 1 2M264 178v-1h-2l1 1zM276 215l3-2zM268 169h-2l1 1 1 1zM278 200q-2 0-2 1 2-1 2-1M280 206l-1 1c0 1 3 0 1-1q0 1 0 0M290 245l-1-2zM300 274v-1q-2 1 0 1M279 187c-4-1-1 0-2 2zM272 159v-2s-3 0 0 2M278 178h2l-1-1-1-1v1q-1-1 0 0zM302 265l2-1zM289 180v-2q-1-2 0 0l-2 1zM309 231q0-1-1-1 1 3 1 1M307 213zq-2-2-1 0M306 201l-1 1 1 1zM340 270q3-2-1-2zM183 279q0-2 0 0M208 315zv-1h1q-4-3-2 1M220 303" style="fill:#6db4cb;fill-rule:nonzero"/><path d="M207 313c-2 1-2-2 0 0l-1 3zM225 327zq1 0 1-1zM240 291q1 0 0 0M205 328l2-1zM197 287l-2 1zM193 252zM281 306h-4c0 2 1-1 2 1v1h-2l2 1q0-2 2-3M216 346v1zM273 324zM272 323q2 0 0 0M250 337q-1 0 0 0M270 316q1-1 0 0M236 353l-1 1q3 0 2-2zM291 311l1 3 1-1zM309 296zM296 290l-2 1 2 1q-1 2-3 2 0 1-1 1c3 2 2-3 2 0q4 0 2-3h3l-2-1h2v2l2-1v1q3 1 2-3l-1-1-1 2q-1-5-5-2l-1-2zM203 322l-1-1zM202 289q2 0 1-1h-2zM193 222v1l1 1q1-1-1-2M241 360q3 2 2-1zM260 347c1 2 4-2 3 1v-2l-1-1q-2 0-2 2" style="fill:#6db4cb;fill-rule:nonzero"/><path d="M287 276q0 3-1 1 0 0-1 1-1-1-1 0c1-1 1 2-1 1q-1 1 1 1h1v1h-1l-2-1q-2 1 1 2c-4-1-3 2-2 0l2 1-1 1-4-2q0 2 2 1-1 1-1 2h-3l1 1-1 2c1 0-1-3 2-1q-1-1 1-2l1 1q-1-1 0-2l1 1h1l1 1-2-1-1 2h1-2l-2 1-1 1h-3q2 0-1-1 0 2 2 2v1l-5 1 1 1-4-1c3 0 0-1 0 1 3 0 2 6 0 3q0 1 0 0l-1 1 1 1-3 1v-1q-1-1-2 1v-1c-3 1-3-2-4 1q2 0 1 1 0 0 1-1v2c-3 0 0 1 0 2l-1 1-2-1 2-1h-2 2q-2-1-2-4l-1 3h1l-1 1-1 1c1 0 4 1 0 1q0-1-1-1l1 2-1-1v1l1 1c-4 0 0-2-2-2l-1 1c0-2-2 1 0 1l-1 1c-1-1-4-1-1 1-4 1 0-2-2 1h-1l2 1-2 1-1-1c1 2 3 0 1 2h-1v-2h-1l-1 1q2 0 2 1l-4 1q-2 0-2 1l-1-1h-1c0 3-2 0-2 3l3 1h-3l1 2q-2 0-2-1h1l-1-2 1-1q-2 1-1 2l-2 1 1 1h-2l1 1c-5 0-2-2-2 2h-2 1q0-3-2-3 1 1 1 2l-2 1q1-1-1-1l-1 1v-2l-1 2 1 1c1 1 2-2 3 0-2-1-2 2-4 1v1q0-1-4-1v-1c-1 3 0-1-1-1h-2v-2q1 1 2 1-2-3 4-3l-1 1 1 1q1 0 2-1-2 0-2-3l-1 1v-1l-2 1q-1-2-4-3v2h1l-5 5q1-1 1-2h-2l-1-1v2l1-1q-1 1 1 2l1 2 1-2c-1 2 2 0 1 2h1v-3h-1l2 1-1 2 3-1v1l-1 3h4l-2 1 2 1q2-2 2-2l1-2q1 0 1 2 1-1 0 0l2 1c0-3 0-1 2-2l1 1h-2l-1 1h3l1-1c1 2 1-1 2 0v-1c-6 0-1-2-1-3q0 2-1 2 1 0 1 1c0-2 1 1 2-2v1l1 1c-1-3 0 0 2-3l2 1 1-2h-1 2l-1-1c2 2 3-1 2-1l-1-1v1q0-2-3-2l2-1 1 1v-1q1 3 2 2v-1q1 3 1 0 2 0 0-2h4l-1-1 2 1c-2-2 2-2 1-4q1 1 1-1c1 2 2-1 2 0l-1 1 3-1h1v-4q1 1 2 1v1l1-2v2l3-3q-3 0 1-1-2-1-1-4 1 3 2 1v1h-1v2c0-2 5-2 4-4h1q-1-1 0-1v-2q2 1 1 1l2-1v1l1-1s-4-2-2-2h1v1c5 2 6-4 4-2q-1 0 1-2v2l2-1v-1h-2c2 1 8-1 8-4h-1v-2h2l-2-1 2-1 2 1h1l-1 1 3-2 2-1v-1h-1 2l2-2v-2q-2 0-2 2-1-2-3-2v1c0-1-1 2-2 0 2-2-3-3 1 0l1-2-1-1zm-72 41q2-1 3 1zm22 2q2 0 0-1v-1q2 1 0 2m16-10zq0-1 2-1v1zm8-6-1-1v-2zm13-12zm9-2h-2q1 3-2 0l1 1q-1 2-2 0h1q-1 0 0 0h-1q0-1 2 0v-2zm9-10q1 1-1 1 0-2 1-1m-7 5 2-1zm3-3zc1-1 1 3-1 2l-1-1zM209 320" style="fill:#6db4cb;fill-rule:nonzero"/><path d="M209 322h2l-2-1c1-1-2-2 0 1M188 200q-1 0-1 2zq-2 0 0-1M240 276l-2-1q2-2 0 2zM301 232l-1 2h-2c1 1-2 1 0 3h1q-3 0-4 1l1 2 2-2 1 2v-2q1 1 0 0 2 0 1 1l2-2 1 2 2-1q1 2-1 1v1q0 1 1 1 0-2 1-1v-1h1l1-1h2q-3-2-3 1 0-3-3-1v-2 2h-1q0 1-1-1l1-1 2 1-4-3h1zM290 196zq0 3 1 1" style="fill:#6db4cb;fill-rule:nonzero"/><path d="M294 234v-2c1 2 5 4 3 1h1l-1-2q-1 2-4 1zM299 233h1v-1q-1 1-1 1 0-1 0 0M312 238c2 1 2-3 3-1l-1-2-1 2q-1-1 0 0h-2l-1 2q0-3-1-2l1 1c0 2-2 0-1 2q-2 0-1 1h2q0-2 2-1-2 2 1 3h-2l1 1-2-2q-1 1 0 0l-1 2h1l-1 2q-3 0-2 2v-2l2 1q-1 0 2 1c0-3-1-1-1-2q2-1 1 1 1-1 1-2 3 0 4-2h-2l1-1q-1-1-1-2h-1l1-1q-2 0-2-1m1 3q1 0 1 1zq1 1 1 2l-1-1c1-1-2-1-1-4zM299 224c-1 2 4 1 2 0zM288 204l-2 1h-1l-1-1-1-1 1 3h1v1-2l4 1v2l-2-1-1 2q2-1 3 0h1q-2-2 1-2l-2-2v-1q3 0 2 2 1-1 1-2l1 1q-1-1 0-2v-1h-2l1 1q-4 1-3-1c-1 0 1-1-2-1l1 1zl-2-1zM266 243q-1 1 0 0-1-1-1-1l-1 1h1l-1 2q3 1 1-1h2zM270 228v-1c-3 1 0 1 0 1M257 235q-1 1-1 1h2zM214 325zq1 2 4-1c0 3 0 0-1 0q0 1-2 1M213 306h1zM213 305l3-1zM195 191q0-2 1-2l-2-1h1-2l1 1v1h-1v2q0-1 2-2zM211 275q1 2 2 0 0 2 1 1zM227 317c-2-1 2-1 1-2q-2 1-2-1v-1h1v-1c0 2-4-1-1 3h-1c1-2-4 0-3 0q5 2 5 2M225 312c0-2 3 0 1-3q2 0 2 2l1 1 1-2q2 1 3 0-1 1 1 1-1-2-2-2h4l-1-2q1 2 2 0c0 2 0-1 1-1l-1-1 3-1 1-1v1-1q2 0 1 1l2-1-2-1h1-5v1l-1-2-4 2 1 1-1 1h1v1l-1 2-1-3c1 4-2 2-4 3l1 1h-4l1 1q-4 2-1 2m7-4-1 1h-1z" style="fill:#6db4cb;fill-rule:nonzero"/><path d="M244 302c0-2-3-1-1-2-2-2-2 2 1 2M214 247q2 0 0 0M202 188q0 3-2 2h-1c3 1 0-1-1 1l-1-2-1 1c2 0-3 1 0 2q-3-1-2 1l-1-1v1h-1q-4-3-1 0v1c0 1-4-5 0-2q-2-5 3-2-1-1-1-2c3 2-3-1 1-3v2l2 1h2-1 1v-1h-2q0-2 1 0l-1-2h1-1l-2-1 1-1q-2 0-2 1l1 1-1-1-1 2q-1-2-1 0l-2-2h-3q0 2 1 3l2 1q1 0 1 2l-1 1 1-1-1-1q0 4-2-1v1-1h-2l1 1v1-1l2 1v1l-1-1q3 3-1 0 0 1 1 2c-1-2 2 0 0-1l1 1v2h1q-1 0 0 0l-2 1-1-2-1 1q1 0 0 0t-1 2l-1-2v1l1 1h-3l2 1q-1-2 1 0l1 1h-1c2 0 0 2 3 0l1 2q1-2 4 0 0-2 1-1-3 0-3-2v-1c0-1 1 3 3 1 0 3 0 0 2 1 0 0 4 0 1 1-1-2-3 0 2 1q0-2-2-3c2 1 0-2-2 0v-1h-2 2l-1-2q0 2-1 0h2q1 2 3 2l-1-1h1v-1q-2 1-2-2c1 2 1-2 2-1l-1 2 1-1c-2 0 1-1 0 0l2 1-1-1h1q2 1 0 0v1l2 1 1-1-1-1-1-1h2q0 0 1-1h-2l3-1c1 2 4 1 0 0-1-2-1 1-2-1m-7-1-1-2q3 2 1 2m-7-1-1-1h1zq1 0 0 0m-2 10q-1 2 0 0m3 1-1-1zm-1 0v-1zm-1-2zm1 2q1 1 0 0-1 1 0 0m2 1c-5-3-1-1 0 0q0-1 0 0m0-2zq3 0 0 1M238 283zM258 282l1-2c-2 0 0-2-2-1v1q-1 0-1-1h2q-1-1-2-1h2l-1-2h-6l1 2h1v-2l2 1-1 1 1 1q-4 2 0 0l-2-1v2h-1l-2-1 1 1-2 1-1-1h1q0-1-1-1c2 0 0-4 2-3v-1c1 2-2 0-1 2l-3-1q3 1 2-1 0 2-1 0 0 2-2 2l-1 1q2 1 2 1v-1l3 3h-1l-2-1h1q-2 0 0 1h-2l-1 2v-2h-1q0 3-2 1l-1-1v1q-1-1-2 0l1 2h-1c-2 6 2 2 3 3v-1l1 1 1-1c-1 1-3-2-4-1l2-1h-1 2v1h1c-1-3 2-1 0-1v-1l1-1 1 2c-1 0 1 4 1 1h2q0 2 2 3l-2-2v-1c2-1-2-3 2-1v2q3-1 0-1 0-1 1-1v-1q-1 1 0 0h1v-2h1q1 1 3 1-1 0 0 0c1 1 1-2 2 0M207 201l-1-1v2l-1-1q1 2 3 1zM210 217l1-1q-2 0-1 1M222 269c2-2-1-2 1-1zq-1-2 1 0M220 255q0-3-1-1h1l-2-1zM213 213h-2l2 1h-2q0 1-1 1c1 1 5 0 4-1zM245 342zv1c0-1 0 2-3 1v2l-1-1 1 2h-1v-1l-2 1 1 1c-1 2-1-3-2-1l-1 2h2-2l1 2h-1q-1-1-1-1v2q3 0 5-2h-2l1-1h1-1 2l-1-1c3 3 10-4 6-3v-2q2 0 3 1c1-3-3-1-4-3m-3 5 1-1 1 1z" style="fill:#6db4cb;fill-rule:nonzero"/><path d="m254 340-1 1v1-2q-2 0-3-3v3l1 1v2h-2l1-1v1q1-1-1-2 2-1 0 0c0 5 1 2 4 1q1-1 1-2" style="fill:#6db4cb;fill-rule:nonzero"/><path d="M264 332q-2 1-2-1l-1 1v-1c0 1-3 2-1 3l-1 1h-1l-1-1h-1v1h3q-2 0-2 1l2 1h-1q-1 0-1-1l-1-1c-4 1-1 1-3 4v-1h-1c1 1-2-1-1 1q2-1 1 1h2c-1-1 3 0 0-2q3 0 2 1 2 1 2-1-4 0 0-1h-1 2l4-2q1 0 0 0v-3l1 2z" style="fill:#6db4cb;fill-rule:nonzero"/><path d="M256 332h2v2l1-2v2-2l1-1v-1h-2l1 2c-1-2-3 0-2-2q-3 0 0 2zM235 351zv-3l-2 1zM211 179c-3 2-6 0-7 3l-1-1v1c0 4 1-3 4 0h-2q2 0 0 1l1-1q2 2 1 0l1 1q0-2-1-2c3 0 1 3 1 0l4-1zM231 161q0-1-1-2c2 1-1-4 3 0h-1q3 3 0-1h1l1 1v-1 1l1-2q-2 1-4 0h2l-1-1q2-1 1-1l2 1-1-1h1c0-1-3 0-1-1l1-1h-1q2-1 0-1v-1l-3 2c2 0 3 4 0 1v2q-2-1-2 1h2l-2 1q-2 0-1-1c-3 1 5 2 0 3 0-2-2 1-1-1-4 0 1 0 4 2M231 154" style="fill:#6db4cb;fill-rule:nonzero"/><path d="M239 156zl1-1h1q-1-3 1-3l-1-1-1 1h-3l-1 1h1q-1 1-1-1l-2 1q2 3 5 2M243 310l-1 1q0-1 0 0v1h1l-1-1zM216 175l-1-1-2 1zM242 299h1l-1-1 2-2v1l-1-1q-1 2-1 0zM243 299v1h2v-1l1 1c1-3-1 0-3-1M230 222l2 1h1l-2-2q1 1 1 2zM223 188v2q2 0 0-1c1-1 2 2 0 0h2zM245 140zh-1zM227 193v-1l-1-1c-1 2 2 2 1 2" style="fill:#6db4cb;fill-rule:nonzero"/><path d="m229 192 1-1c-5-1-3 2-1 1M243 250c3 4 1 0 1-1-1 1-4-1-2 2l-1 1h3l-1 1c4-1-1-2 0-3M251 185q2 2 2 1v-3 1q1 0 1-1 2 3 2 1-1-1 0-1v-2h-1q-2 0 0 2l-3-1c1 5-4 1-3 3l2 1zM260 342l-1 2c1-1 3 2 1-2M276 257h-2l1 1 1 1h-4q1 1 1 2l1-1h2v-1c1 1 2-2 3 0 1-2 2 0 2-2l2 2c1-3 2 0-1 0q1 2 2 0-2 1 0 0 1-3 4-2v-1h-2l2-1 1 1q0-2 1-2h-1l2-2v2c0-1 3-1 1-2l3-1q-1-1-3-2l-1-1q2-1 0-1l2-1h2l1 1-1-2v1h-2l2-3-1 2h5v-1l1-1v2c0-2 0 1 1 0l-1-2q1 0 0-2h-1l1 1c-2-1-3 3-2-1q0 1-1-1-1 2-1-1h-2c2 1-2 0 0 1v1h-4q-1 2 1 3l-4 1 2 2h1l1 1q-2 0 0 1h1v1h-4v-1l2-1h-3v-2q0 3-2 1l1 1h-3v1l-3 2v-1l-1 1q0-2-1-1l1 1q-3 0-1 1h-2q2 1 1 2-1-1 1 0l-1 1zm17-16 1 1v1l-2-1zm-3 1 2 1c2 0-2 1-2-1m-11 13-1-2c1-2 1 1 2 0l1 2 1-1h-1v-1q2 1 6-2 1 2-1 1 2 2 0 0l-1 2c-1 2-2 0-2 2l-1-1q-2 1-1-1zv1l-1 1-1 1-1-1z" style="fill:#6db4cb;fill-rule:nonzero"/><path d="M293 249h5l-1-1-1 1v-1h-1l1 1q-3 0-2-1h1q-1-1-2-1zM261 342q0 2 2 1zM273 340zv-1l1-2c-1 0-3-3-2 0q-1 0-2 2 2 0 4 1M263 329q-2 1-2 1 2 1 2-1M269 312l-3-1v2l2-1-3 2v1q-1-3-2-2-1 2-2 0v1-1q-1 1 1 2c0-1 3 1 1-1h1l2 1q0 2 2 1l2-1v1c0-1 2-5 3-4v-1l1 1-1-2h-1q1 0 0 0l-1-1v1c1 3-1 0-1 1 2 1-1 0-1 1M279 301z" style="fill:#6db4cb;fill-rule:nonzero"/><path d="M281 302zq-2 1-2-1l-2 2c0-1 2-3-5 1 2 0-1 0 1 1-3-1-3 3-5 3l-1 2v2l2-1v-1h1l-1-1h-1 1q0-1 2-3v2-2q2 2 3 1l-1-1q2 0 1-2h1q-2 1-1-1h2v2l1-1v1l1-1q-1 0 0 0 3 0 1 1l1 1 2-2zM259 289l2 1 1-2-1-1h2l-1-2q0 1 0 0h2v1l7-4q-2-1-1-2l1 1q-1-1 2-1l1 1v-2l1 1v-2 1l3-3 3-1q-3 0-1-1l-2-1v2h-2l1 1-6-1-1 2h5-1l-2 1q1 2-1 2l-1-2q-1 2-2 1c2 1-2 2-2 3l-1-1q2 0 1-1h-1q-3 1-2 2-2 0-1 2l-1-1q-1 0-1 2l-1-1 1 2 2 1-1-1-1 2q0-1 0 0l-2-1 1-1q-2 0-2 3zm10-8zq-2-1-1 1l-1-1c-1-1 2 0 1-1m-8 4q1-1 1-1 2 0-1 1" style="fill:#6db4cb;fill-rule:nonzero"/><path d="m269 279 1-2q-2 1-1 2M272 283q1-1-1-3c2 2-1 2 0 3z" style="fill:#6db4cb;fill-rule:nonzero"/><path d="M273 282v-2q-1 1-1 1zM242 212v2l2-1q-1 0-2-1M243 203q2 0 1 1h1v-1 1q-2-4-2-1M259 278q-1 0-1 1 2 0 1-1zl-1 1 2-1c-1 0-1-3 1-1q-2 0-1 1 1-1 1-1v-1q-2-1 1 0-3-3-1-3 2 2 2 0h2c-3-2 2-4-5-3q1 1 3 1-3 0-3 2h-2l1 1h1q-1 0 0 0v1h-2v-1l-1 1q1 0 1 2M263 295q-1 2 1 2v-1c0 2-1-1-1-1" style="fill:#6db4cb;fill-rule:nonzero"/><path d="M265 295zh-1c-3 1-1-3-1 1l1 1zM266 294v-2l-1 1zM246 204l2 2h-2q2 1 2 1v-3zM236 166s3 3 1 2c0 3 1 0 3 1v-1q0-3-1-1 2 1 0-1l-1 1v-1zM253 220v-1h-2q2 2-2 2l1 1v1h1q-2 1 0 1h3q0-1 1-1 0-3-2-3m1 0q-1 0 0 0m-3 3zq2 2 0 1m3-1-1 1-1-1q2 0 0 0zM247 193zq1 2-1 2h2zM239 160q0 2 0 0-2 2-3 0c0 3 3-1 2 2h1zM262 264l2-1v-1l-2 1zM259 196l-1-1-1 1q-1-3-1-1v1h-3q0 3-2 0l-1 2c1 2 1-1 2 0l-2 1v2q-2-1-1 2l-2-1q2 1 1 2h1v-1h2l4-1c1 3-1 0 1 0l1 1c-1-2 3 1 2-3h-2l2-1-3-1 1 1q-1 2-2 0 2-1 1-2h1q2 2 2 1v1zm-7 4zv-1q2 1-1 2m3-1-2-1h3zM263 202q-1-2 0 0M248 194q0-2 2-1 0-1-2-1v-1zM253 208q1-1 1-2l-2 1zh1zM254 208q1 2 1 0zM253 174zM274 166c-2-1 1-2 1-2q-2 0-3 2zM238 151l2 1zM256 216l1 1h1zM281 316c-1-1-2 2-3 1h2q0 0 1-1" style="fill:#6db4cb;fill-rule:nonzero"/><path d="M256 193h-1l-2 2-1-2q-1 2-1 3 1-3 2 0l2-1-1-1zM291 313c-1 1-1-3-3-2l2 1-2 1q2 1 0 2h2v-3 2q0 2 1 0zM243 157zq2 0 1-2 1 0 1-1c-3 1-1-2-3-1v-1zM287 300zv-2zc-1-2 1 0 1-2l-2-1c0 2-1-1-2 1q1 0 0 0l1 2-3-1v1l-2-2 1 1h-2v1c0-2-2 1-1 0l2 2q2-1 3-1v1q0-1 1-1v2l-2-1h-1c0 2 6 1 3 0h2q0-1-2-1 1-1 4 1zM264 221q-2-2-1 1h-1q0-1-2-1 1 2 1 2h1l1 1h-1l3-1h-1zh1l-1 1h2v-2h-1 1v-1h1v-1h-3zM255 188l-2 1v-1l2 2zM277 278c0 1-3 1-1 2-1-2 3-1 1-2" style="fill:#6db4cb;fill-rule:nonzero"/><path d="m243 152 1 2 2-1q-2 0-1-1z" style="fill:#6db4cb;fill-rule:nonzero"/><path d="M245 151zh-2l-1-1q0 4 2 1M283 305c1 0-2 2 1 1zM258 192l-2 1q3 0 2-1" style="fill:#6db4cb;fill-rule:nonzero"/><path d="m259 187-1 1v-1l-1 2-1-1q1 1-1 1 2 1 1 2l1 1q-1-1 0 0c0-1 3 2 1-1h2v-3c-1 1-1-2-1-1M279 280v-1l-1-1v1q0-1 0 0t1 1M277 271l2 1-1-1h1l2 1v-2q-1-1 0 0h-2l1-1-1-1-1 1 1 1-1-1-2 1q1-1 1 1M249 147zl1 1-3-1 1 2q-1 0-1 1c2 1 2-2 3 0v1l1-3h1l1 2q2-2 2-3h-2q0 0-2-2l-1 1zM284 294q2 2 3-1-3 1-2 1zM257 181c-1-1 3 0 2-1q-2-1-2 0zM268 220q1 0 1-2zc4 0 1-3-1-1 0-1-3 0 0 1zM248 143q-2 1-1 1l2 1zq0-1-1-1 3 1 1-2h-2q-1 3 2 2M278 259zv2l3-1v-2zM281 269zq-3-2 2 0c-1-1 1 2 1 0l-1-1h4l-1-1h-3v-1q-1 1-1 1c4 2-3-1-3 1zM267 208q-1 1 0 0-1-1 0 0zq-1-3 0 0z" style="fill:#6db4cb;fill-rule:nonzero"/><path d="M268 185c2 2-1 1-1 0zh1q0 0 1-1l-1-1h-1c1 0-2 0 0-1v1l2 1-1-2 3 1-4-4q0 2-3 2v1l1 1-1 1c1-2-1 0-1-2l-1 1 2 1v4-2q-2 1-1 1-1-1 0-1c-1-1-3-4-2-1 2 0-1 2-1 2v1h-1v2h1q-2-2 1-2l2 2v1l-2-1q-1-2 0 0l-1 1 1 1 1 1v-1l-1-1q2 0 2 2l1-1h-1c0-3 2 0 2-1v-2l2 1 1-1c-1-1 1-3-2-4" style="fill:#6db4cb;fill-rule:nonzero"/><path d="M271 185q3 1 0 0-2 0 0 2c-1-2 1 0 1-2zM275 183h3v-2l1 1v-1h1l-1-1h-1c3 0-1 0 0-2 0 1-1-2-1 0v1c-1-2-1 5-3 2l-1 1 2 2q2 0 0-1M288 296l1-1zv3h-1 2c3-4 0-2-1-3M284 269l-3 1zM271 221l1-2q-4 1-1 2M269 220zM260 178zl1 2h-1 2z" style="fill:#6db4cb;fill-rule:nonzero"/><path d="M276 218zl-2-1c8-4-3 0-1-5q-2 1 0 2l-4 1q0 0-1 2h2l1 2v-2l2-1v2zl-2 1-1-1 1 2zM272 210c1-4-4-3-2 0zM288 292c3-1-1-1 0 2q3 0 1-1l2-2q-2-2-2-1-1 2-1 2M291 290" style="fill:#6db4cb;fill-rule:nonzero"/><path d="M292 288c0 2-2-1-1 2h1l-1-1v3h1c0-3 1 0 1 0 0-1-2-2 2-2-1-2-1 1-3-2M291 297q2 2-1 3h4zM278 222l-3 1q1 0 0 0h2l-1 1 3-1zM292 263c-1 1-3-2-1 0h-1v-2q-1 0-2-1v1h-1l1 1-1 2h-2l1 1 3-2 1 1q-2 1-2 1v3l3-2q-1 0 0-2l-1 1 3-1 1-2q-3-1-2 1M256 143l-2-1h-1c1 4 1 0 3 1M271 200h2zv2h-1c2 0 5 0 1-2M274 209zh2l-1-2h1l-1-1c-2-1 1 4-2 1 2 2-2 1 1 2" style="fill:#6db4cb;fill-rule:nonzero"/><path d="M294 286q0 2 0 0l-1 1h-1q1 2 2 0v1h-1 1l1-2zM256 140l-2-3v3zM286 245zq2 0 0-1h-1v1zM282 214v-2zM283 210q-2 2-3 0h-1v1q-1-1-2 0l-1-1c1 1-2 1 0 2h1q0 2 0 0l1 1 1-1 1 1c-3 0 0 3 1 1-5 2 4-5 3-1v-2q-2 1-1-1m-4 1 1 1zM285 209c-2-2-4 1-4 1 1 0 5-2 4 0z" style="fill:#6db4cb;fill-rule:nonzero"/><path d="M283 205c0 3-2 0-2 1l1 1-1 1 1 1q1-2 1-2zM256 135l-1 2v-2l-1 1c1 4 3 0 2-1M274 202v2l2-3zM274 190zq-2 0-1 2l-1 3 1-1 1-1q0 2 2 0c-1-1-5-1-2-2M275 203q1 1 2 1h-1v2q3-2 2 0l2-2-1-1-1 1c-1-2-2 1-2-2zM296 257v1s-1-7-1-1l-1-1s3 2 0 2l-1-1v1l-2-1v2q2 1 3 3 1-2 2-2-2 0-1-1c2 2 1-3 1 0q2-1 2 0v-2z" style="fill:#6db4cb;fill-rule:nonzero"/><path d="M277 202q1 0 1-1zc1 0-2 2 0 1M280 210q1-2-1-2zM277 196l-1 1c1 2 2-1 1-1M281 199v1q-2 1-2 1l-1 2 3-1q0-1 1-1h-2q3-2 4 0l2-1zM298 276zh-3zM271 171l2-1h-3zM279 192h-3zl-1 2c1-1 2 2 3-2 0 2 1-1 2 0zm0 1q0 2-1 2-1-2 1-2" style="fill:#6db4cb;fill-rule:nonzero"/><path d="M290 182q-1 1-1-1h-2q-1 0 0 0v1l-3 1q1 0 0 0h2v2l-2-1 1 1q-1-1 0 0-2 1-2 1l1-1-1-1h-1c-1-2-5 0-4 1q3 1 3 2l-1-1v2h4q1 2-1 0l-1 2h-2l-1-2h1c-3 0 1 2-1 2q-2 0-2 1h3l-1-1c2 0-2 3 3 1v-1q1 0 1-1l1 2 1-3h1v-2l1 2v-1l-1-2q4 2 2-1l1 1v-1l-1-1v-1 1q2 0 2-1m-6 5-2 1zm1 0v-2zM258 124zc4 4 1-3-1 0q1 1 1 1M293 240l2-2h-2q0 1-1 1zM305 247h-2l1 1q-2 0 0 0h-1q1 2-3 2-2 2 1 1 2 2-1 2l1-1s-4 0-3 2c-3 1 2-2-1-3l-2-1 2 2v2h-1v2h1v-1l1 1h2c2-4-1 0-3-2q3 1 4-1l1 1q-1-1 2-2l-1-1q3-2 1 0v-1q0 2 1 2v-3l2 2c0-2 4-2 2-3 0 0-4 4-4-1M286 207zq0 1 0 0zv1h1zM269 137q-1 1-1-1l-1 1q0 1-2 1 3 1 4-1M295 237l-1-1 1-1q-2-1-2 2zM277 171v-1c0 1-3 2 0 1M276 163l1-2-1 1zM286 190zl1 1c-2-1 1-1 1-2zM280 165l3-2-3 1zM303 243zh-2z" style="fill:#6db4cb;fill-rule:nonzero"/><path d="M281 165q1 2 2 2v-2c0 2-3-1-2 0M303 245h2v-2l1 2q-1-1 0 0v-2q-1 0 0-1v-1q-1 1-1 2l-1 1q-1-1 1-2-2 1-1 3zM298 213l-1 1zh-1zM290 181q1 1 1 2 1 1 1-1v-1z" style="fill:#6db4cb;fill-rule:nonzero"/><path d="M295 180v-2h-3q-1 0 1 1-1 0-3 1 2-1 2 1l2 1zl-2-1h1zl2-1q-1 0-2 1M310 254q2 1 1-2h-1zM306 233v-3q0 2-2 3zq0-1 0 0M313 260zl-1-1zM306 221h-2v1h3q-2 0-1-1M301 170zl2 1c-1 2-2-1-2 1l-1-1c3 2-3 0 0 2l-3 2h2q-3 0 0 2l-2 1v-4q-1 2-2 1 0 1-1 1h2l1 2v1-1l2-1-1 1h2l1-2q1 4 1 0l1-1-3 1q-2-3 0-2v-1h2q2-1 0-3h1zM303 200l-3 1q3 0 3-1M308 221q2-2 0 0l1 1v-1zM306 200c-4 3-2 0 1 2zM306 189q-2-1-2 1zM307 190h-2v3q1-1 2 0c1-1-2-1 0-2l1 1c0-1-3-1-1-2M308 189c0 1-3-1 0 1q-1 0 0 0zM314 216q0 0-1 1l2-1zM309 185h2q-1-3-2-1 0 1 0 0l-2 1 1 1h3zM349 262l-1 1v-2c-3 1 0 1-1 2l-1-2-1 2q2-1 2 1-1-1-2 1c-1 0-5-1-3 2q-2-1-2 0l2 1h-2l3 1 1-2q0 1 1 1v-1h2q0-2 2-3h-2q2 0 2-2M203 328q1 1 2 1c-1 0 0-4-2-1M255 220q0 2 1 1zM256 220q1 1 2-1zM288 314h-2l-1 1h-3l1 1h-2q1 1-1 2l1 1 2-1v-1q1 1 1-1 3 2 4-2M273 214q-1-2-2-3h1l-1-1-2 2c1 1 5 0 1 1 0-3-3 0 3 1M125 218q1-2 2-1l-1-1-1 1zM114 181l-1-1zq0-2 0 0M127 207l3-2q-1 0 0 0-2-1-3-1 1 0 0 0l1 2h-1zM164 298zq-3-1 0 1zM133 214h2q-2-2-2 0M142 234zM156 266v-1l-1-1zM128 196q0 2 1 0zM124 173zM176 300l-1 1zM144 216q-1-1-1-2-1 2 1 2M136 196h2zM133 188l1-2-1 1zM155 234l-1-1c-2 0 2 3 1 1M136 186q-1 0-1 1 2 1 1-1M150 215q-2-1-1 1zq-1 0 0-1M136 182zM168 256zv1q2 3 1 0M164 250q1 2 2 0zM139 183zM155 211h-1zq-1-1 0 0M157 213q3-1 0-1zM145 181q-1-1-1 1zM165 235l1-1q2 2 0 0 2 0 0 0h-1zM179 253q-1-1 1-1l-2-2v1zM152 187l1 1q2 0-1-1M183 254q-2-1-2 0zM162 206l1 2zM148 175h2zM162 203zM170 221l2 1q-2-2-2-1M145 162v-2h-2zM167 207zh-1 2zM181 237q-1-2-1-1v1zM159 182v2zM152 159q-1 1 0 2 1 0 1-1zM219 314l-2 1q2 0 2-1M200 267l-1-1zM175 203zc2 0-1-2 0-1M201 256l1-1q-1-1-1 1M155 152l2 1c0-1-3-4-2-1M186 191q-1 1-1 1v1q1-1 2 1l-1-2zM159 141zq2 2 0 0zM218 250zc-2 0 1 1 0 0M169 151l-1-2zM183 169l-2-1 1 1zM201 201l2-1zM183 162zc3 4 1 1 1 0M198 189h2zM173 148q2-2 0-2zM202 195q1 1 1-1zq2 0 0 0zM218 228v-1h-1zM177 149l1 2zq0 1 1 2 1-1 0-3zM171 140zq-3 1 0 1zM232 255q0-2-1-1zM197 178c-3-1 0 0-1 1q1-1 1-1" style="fill:#6db4cb;fill-rule:nonzero"/><path d="m174 145 1 2 1-2zM175 142v-1l-1 1zM183 154q-1 0 0 1zM194 170zl2 1zM203 174v-1q-1-2 0-1zM232 219l-1-2zM223 193zM122 209h2l-4-2zl-1-1c3 4 1 1-1 1q0-1-2-1l1 1c-1 2-1-1-2-1h-1l3 4 1-1 1 1q0-1 2-3" style="fill:#6db4cb;fill-rule:nonzero"/><path d="m122 208 2 1-1-2 2 2q-1-1 1-1v-1l-1 1q-2-2 0-2l2-1h-1v1q-2-2-3 0v-1 1l1 1h-2zM127 200l1-2-2-1h2v-2l-2-1h1v-1l-1-1-1-1 1-1q1 0 2 1l-1-3q0 1 0 0l-4-2v1h1q1-1 1 1h-1v1q-2 0 1 2-1 0 0 0v1h-1 1q-1 1-3-1v1l1 1c-2 1 1 1 1 2h2l-1-1q3 1 0 1 1 2-1 0 1 1 1 2l-1-2-1 1 1 1q-3 0 3 3M138 246q0-1 0 0M153 244h3l-1-2 2 1v-1q0 1 1 0l1 2-1-1q2-1 2 1l-1-1q1 2 2 0h1v1c-2 0 4 2 2-1v-1h1l1 1c-2-1 0-3-2-2l1-2h-2v-1l-1 1v1l-1-1q0 1-1 2h2-2l1 1q-4-1-2-2l-1 1v1l-3-1-1-1c1 1-2 1 0 3h-1zm10-3q-1-1 0 0m1 1zm0-2zm0 1zm0 2zm-1-4q0 2 0 0-1 0 0 0m-1 1v1zM127 219zc1 2-2-1-2 1l-2-2q2-1 1-1c1-1 1 2 2 1l-2-2q-1 0 0 0c2 2 2-3-1 0v1q1-1 1-1 0 3-2 1l1 2c2 2 1-1-1 0q1 1 1 1h2l-1 1 1-1q3 2 3-1 1 1 0 0M171 267v1zM167 279q0 1 0 0zq-3-2 0 1M165 280zl-1-2h-1l1 1zM111 187zM136 238h-2l-1-2h1l-1-1q1 1 0 0 0-2-1-1h1-1q-2 1 0 2-2 0-1 1 0-2 1 0c-1 0 1 5 4 3zM134 228zl2 1q-1 0 0 0v-1 1q-2-3-2 0l-1-1c2 2-2 2 0 1l-3-1-2 1c1 2 8 3 6 0m-5 0h1q2 2-1 0M140 226v-2 1l-1-1q1 2-1 0c1 1-2 0-1 1q2 1 0 0 0 1-2 1l1 1q0-2 2 0c0-2 2 0 1-2zM121 206l-2-2z" style="fill:#6db4cb;fill-rule:nonzero"/><path d="M128 215h2q-1-1 0 0c-1-5 3 2 0-2h1l-1-1q2 1 1-1h-2l-1-1v1l1 1h-2c0 2-5-1-3 2v-1q1 4 0 0 2 2 2 1zM122 205h-1zM122 181zh3l-1-1c2 0-1-1 1-1h1q1-1-2-1 0-1-1-1l3 1-2-2-1-1c2 2-2 0 0 2-2 0 0 1-2 2q-1-2 0 0l-2-1v2l-1-1c1 2-4-1-2 2q-1 0-1 1 3 1-1 1 3 1 2-1l2 1q0 1 4-1-1 0-1 1v-2zq-1 0 0 0zm0-4q0 1 1 2l-1 1v-3m0 3-1-1zM158 291h-1v1l1 1zM148 228h-1v1q-1-1-1 0l-1-2h1l-2-1v2h-1q1 2-1 1h1l-1-1h-1c2 3 0 0-1 1l2 2-2-1 1 1 1 1h-1l-1-1h-1q1 0 1 1h-2l2 2-3-1q2 1 0 2l1 1q2 0 0-1h1v2q-1-3-3-2v-1h1c-5-4-1-1-2 1l2 1c-3 0 0 1 0 0v-1l1 2v1l-1-1q0 1 0 0l-1 1 2 1 2-1-1-1 1 1 1-1-1-2 2 1-1-1-1-1v-2q5 2 8-1l-2-1 1-1v2c3 1-1-2 0-2l2 1zM145 257q-2 0-1 1h1zM150 259zq2 0 0 0 0 2-1 0 1 0 0 0l1-1-1-1-1 1v-1h-1c3 4 1 1-1 1v1l1-1q-2-1-1 2l1-1q1 3 3 0zM153 266l2-1-2-1h-1zM187 262zM188 262q1-1 1-1l-1-2v1q0 2-1 1zM154 255l-2-1q0-1 0 0t1 2v1l2 1zM128 217l2 1zq1 0 0 0M124 204q1 1 1-1zM160 290h-1l-1-2q0 0-1 1 1 1 1 2 0-1 0 0zM136 225h-1c2 1-1-4 1-3l-2-2 1 1h-2 1c-2-2-1 1-2 1v1q0-1 0 0l1 1q2 1 1-1zM166 290h-2v-1c1 2 0-1 2 1l-1-3 1 2zl3-1-1-1h1q0 3 1 2c1 2-1-1 3-1v-2q-2 1-1 1l-1-1c2-1-1 0 0-1q-3 0-2 1l2 1c-2-1 0 2-2 0q1-1 0 0-2-1-4-1v-1l-1 3v-1l-1-2v1h1l-2 1v1c-1 1-1-2-2-1v2h2q-1 0 0 0v-1l1 1q1 1-1 1l2 1 2-1zM168 290z" style="fill:#6db4cb;fill-rule:nonzero"/><path d="M147 253v1q1 0 1 1v-1c1-1 3 3 0 0l2-1q0 0 1-1c-1 2 2 0 3 2l-1-1 2 1v1c0-2 3-1 1-3q0 1-1 1h-1v-1q3 0 4 1 2-3-1-3l-1-1v-1l1 1q-1 0 0 0l-1-1q1 0 3 1l-1-1c1 1 1-2 2 0v1q1 0 1-1c1 3 1 0 2 1h-1l-1-1q2 0 1-1 0 1 0 0l-2-1h-1l-1-2v-1c-1 1 2 4 0 2l-2 1c1 3 0 0-1 1v2-2l-2-1 1 1h-1 1c-3-3-1 2-1 0l1 1h-1c1 3-3-5-1 0h-2q1 2-2 1h-1l1 2h1-1q-1 0-1 1-2-2 0 1m5-4 1 1c0-2 2 1 1-1h1q1 2 1 0 1 3-2 1 3 3 0 1v1l-1-1zM130 209v1h2q-1-1 0 0zc4 1 1 0 2-2l-2-1q-3 2-1 3M150 255l1-1zM141 223l-1-1zM146 226l-2-4h1q0-1-1-3 1 1 1-1h-1q-2 0-2 2-1-2 0 0h-1v1q-1 0 0 0-2-1 0 0l-2-2v3-2q-1 3-2 1l1 2c0-1 3 2 1-1l2 1h2q1 2 0 0h-1q2-1 1-2l1 2z" style="fill:#6db4cb;fill-rule:nonzero"/><path d="M148 220zl-1-2h-3l1 2zM181 307zM181 309zv-1zM198 315zM243 275q2 0 0 0M243 275q1 0 0 0M136 214l-1-2q0 2 1 2M164 285c1 2 1-1 1 0zq1 0 0 0zM134 202c1-2-2-2 0-1l-1-2q0 1-1 0v2q0-1-1 1c2-1 2 2 2 1q-1-2 1-1M143 209zh-1l-1-1c1 1-2 1 0 3l-2-1v1l-1-2v3q2 1 0 0c1-1 4 2 2 0q2 0 0 1h-2v1q3 0 4-2-1 0-1-1 2 1 0 0h1l1 1c-1-2 2-1 0-3zM127 188h1v-1zM156 256l-2-1zq1 1 0 0M130 190zh-2l1 1zM163 274zM157 259z" style="fill:#6db4cb;fill-rule:nonzero"/><path d="M157 256q-1 0 0 2zM132 197h1zM124 175zl2-1v1q2-1-2-3zh-1z" style="fill:#6db4cb;fill-rule:nonzero"/><path d="M129 177q0-1 1-1-2 1-2-2l-2-1q1 2-1 0c2 1 0-2 0 0z" style="fill:#6db4cb;fill-rule:nonzero"/><path d="M130 175zq1 0 2-1h-2zq3 0 1-2 0 2-1 0h1l2 1q-1 1 0 0h1v-1q-2 0-2-1c1 2 0-2 1-1v1h1l1 1-1-1h2l-1-1h-1l-1-1-1 1v1h-1l-1-1c1 3-2 0-2 0q2 3 0 2l2 2-2-1c1-1-2-2-1-1 1 0 3 4 4 3M123 171q1 3 0 0M134 195q-1 2-1 1v1-1l1 2zM135 197zh1zM203 321q3 2 2 0zM170 286l-1-2-1-1q1 3 2 3M262 264l-1-1zc-2-4-1 2 0 0M131 189q1 2 0 0zl1 1v-1q0-1-2 0" style="fill:#6db4cb;fill-rule:nonzero"/><path d="M133 186q-2 0-2 2h2q0 2 1 0h-1zM127 177q-2 0 0 0-1 1-1 1 1 1 1-1M169 253l1-1-1-1zM189 237q1-1 2 1l-1-2q-1 0-1 1M183 249l-1-1zM182 250zM209 187l-1-1q0 3 1 1M225 219zq0 1-1 1h2M222 211c-1 2 3 2 2 0zM191 217l-1-1h-1zM157 224v-2q-2 1-1 1h-1q0 0 1-1l-1-1q-1 0 0 0v1h-3q3 1 2 1l-2 1-1-1q1 1 0 0v1h-1v2l1 1v1l-1-1q1 0 0 0v-1 2h-1l1 1-2-1 2 2q-1 2 0 0h3v1q-1 0 0 0l1 1-1 1 1-1q-2-2 1-2-3-6 0-3 0-3 2-3 0 1 0 0" style="fill:#6db4cb;fill-rule:nonzero"/><path d="M150 226h-3q0-1 0 0 2 0 0 0zM161 260q0-1 1 0l-1-2zM141 207l-1-1zM144 215l1 1q0-2-1-1M139 199c-3-2 0 0 0 1zM139 196q-1-2-1-1zc0-1 3 1 0 1q3 1 1-1zl2 2 1-1zl1-1-2-1h2l-2-2q-1 0-2 1 3 1 2 2M147 206l2 1q-2 0-1-1l-2-1q0 2-1 0v1c-2 1-2-2-2-1v1q0-2-2-2l1 1-1 1v1l3 2q0-2-2-2h2l2 1-1-1q2 1 2-1M169 272zq1 0 0 0M168 269zh1zM138 190h-1v1l-1-1v1l1 1 3-2c-1-3 1 2 1-1l-1-1h-2q1 4-1 1zM139 192v1q2 1 4 3l-2-3h1zM170 270q-3 1 0 1zM163 250h-3z" style="fill:#6db4cb;fill-rule:nonzero"/><path d="m135 187 1 2h1c0-2-1 0-2-2M134 183c1 3 3-1 1-1q1 3-1 1h1zM144 203l-2-2zM129 170q1-1 1-1v-1h-1v2M161 246c0-1 3 2-1-2zM150 219l1 2 2 1 1-1c-2 2-1-4-4-2M143 197zv2q-1-2 1-1M154 213q3 1-2-3v1h-1q2 0 0 0l1 2q-3-2-3 0c0-1 2 3 1 0 2 1 5 5 1 0zl-1 1zl2 1zM150 204c2 0-2 1-2-1h2zq-1-1-3-3-1 3-2 2l1 1h1l1 1h1l1 2v-2l1 1zM144 192h-1l1 2q-1-1-1-2h-1q1 1 0 0c2 6 4 2 2 0M142 190q0-2-1-1v-2h-1v1q0-1 0 0h1c-1 1 2 3 1 2M154 219q1 0 1 1 0-1 0 0h2v-1h-1 2v-2l-2 2z" style="fill:#6db4cb;fill-rule:nonzero"/><path d="M143 191zl-1-1q1 0 0 0zM148 189c0-1 3 0 1-2h-1zl-1-1v-1h-1q-1-2-2 0c1 0 4 3-1-2l-1 1 2 1v1h1l-2 2v-1q0-1 0 0l1 2q0-1 1-1v-1q1 1 0 0h2zM140 182l1 1v-1q3 2 1-1 0 2-2 0l1 1zM160 222zq2 1 0-2-1 1 0 1zq-2-1 0 1h-1l-2-2 2 2q-1 0-1 1h2v-2M157 221zM137 170q0-2-2-2l1 2zM183 255q1 1 0 0M152 200c-1 3-1-1-2-1l1 1-1 1 1 1h-1l1 1c0-2 1 1 2 1v-1q0-3 1-2zq-1 1 0 0-3-1-1 1m1 1q1 1-1 1 0-2 1-1" style="fill:#6db4cb;fill-rule:nonzero"/><path d="M159 219zc2 2-1 0 0 2h2v1h1q0-2 1-1v1l2 1c0-4-5-5-3-4v1l-2-1zM178 211q-1 0 0 0zM142 180zq2 3 1 1M141 180zM148 193l-1 1zM149 191h-1l1 1zv1l3-1zM138 169zq1 2 1 0M157 213l1 2v-2zM148 189v1q-1 1 1 1-1-2 1-1l-1-1zM137 166l2 2v-2zM135 159q-1 0 0 0h-1zM167 237l1-2zM159 216l1-1-1-1c2 1-2 0 0 2M136 163l2 1zv2l1-1 1 1h1l-1-2q2 3 0 0h2q2 1 0-1c-2 2-6-1-5 1M152 150q1 1 0-2 0 2 0 0l2 1h-1q3 2 0-1h1l1 1q-1-2 0 0v-2h-3 1l-1-1h1l1 1-1-1h2q-3-1-2-1v-2h-1l-1 1c1 0 3 3 0 0q2 3-1 1-1 1 2 2h-2l-1-1c-2 1 5 3 1 3l-1-1c-3 0 3 1 3 2M151 144" style="fill:#6db4cb;fill-rule:nonzero"/><path d="M158 148q0 2 0 0zc-2 0 1 0 1 1v-2l-1-1v1q-1-1-3-1 1 0 0 0l1 1-2-1c-2 0 2 3 4 3M147 181q0 2-1 1v1c3 2 1-1 0 0l2 1-2 1 2 2h2l-1-2q-2 0 1-1l-2-2zM158 194c1 3-2 0-1 0q2 2 0-1v-1l-1 1c1 2-2 0-1 1l1 1h-1v-1l-2 1h-1l1 2v1c3 4 0-1 1-1l1 2h1l2-2h-1c2-2 6 2 1-3m-4 4h2q0 2-2 0m-1-2 2-1q1 2 2 1c2 3-3 0-4 0M143 177zl2 2q-1-1 0 0c1 2-2-1 0 1h-1 2l-1-2 1 1v-2l-1 1c1-2-2-2 0-1l-1-1h1c0-2 0 1-1-1h-1l-1-1 1 2zM139 169l2 1c-1-2 4 1 2-1l-2-1c-1 0 2 2-2 1M142 169l1-1zM152 191q0-1 0 0h-1zq-1 1 0 0zM162 208q-4-2-1 1zM162 209q-1 0-1 1l1 1 1-1zM144 168zl-2-1c-2-3 1 2 2 1" style="fill:#6db4cb;fill-rule:nonzero"/><path d="m142 166-1-1 2 1h1l1 1q0 0 1-1-1-1 0 0v-2l1-1-1-1v-1h-1c1 3-2 1-1 3l-2-1zl-1-1v1zm2-2 1 1h-2zM145 159zl2 2 1 1-1-2h2l-1-1h2l-1-2q-3-1-3 1zm4 0-1-1z" style="fill:#6db4cb;fill-rule:nonzero"/><path d="m150 159 2 2c-3-2 1-2-1-3 2 1 1-2 3 1q0-1 0 0l-1-3 1 1c-1-2 2 0 1 0v-2 1l-1-2 1 1q1-1 2 1l-1-2 1 2c2-2-4-3-4-4v1h1v1h-2l2 1q-2 0-1 1l-2-1 1 2-1-1v-1q-2 2-1 3z" style="fill:#6db4cb;fill-rule:nonzero"/><path d="M153 158q-1 2 1 2zM148 158v-2zM146 177h2zq1 0 1 2 1-1 0 0-1-1 0 0l1-1s-3-3-3-1M151 181q0-1 1 0l-1-2q1-1 0 0zq0-2-2-1v1zv1c-2 0 1 0 0 1q4 0 1-2m-1 0c0-1 2 2 1 0 1 0 2 3-1 0" style="fill:#6db4cb;fill-rule:nonzero"/><path d="M156 183c1 3 0-1-2-1l-1-2v2l1 2h2zM154 185l-1-2q0 3-1 2z" style="fill:#6db4cb;fill-rule:nonzero"/><path d="m152 185 1-1q-3 0-1 1M155 190c2-1-1-6 0-4v-1c-2-1 0 2-1 1l1 1q0 1-1 1h1zM168 204l-1 1h-1l-1-1h-2l1 1h-2v-1q0 1-3 0l1 1q0-1 0 0 1-1 1 1c0-2 0 1-2-1l2 2h-1v1l1-1q3 2 1-1l1-1v3h2v-2l1-1 1 1h-1 1zM180 251c1-1-2-1 0-1l1 1-1-2q-1 1-1 1zM192 280zv-1zM144 159l-1-1h-1zM150 174q1 1 2 3h1l-1-2zM166 194zv-1l1 2q2-1 1-2l2 2c2-1-3-3-2-1l-2-1 2-1h-2l-1-2-1 1v1h-5q1 1 0 2 0-1 0 0l2 1c-2 0 2 1 1-1q-1 0-1-1h1l2 1h-2l1 2q-2 0 1 1l-1-2c1 2 0-1 2 0l-1-1-1-1zM156 180q-3 1-2-1l-1-1q1 2 1 3h1v1h1l-1-2z" style="fill:#6db4cb;fill-rule:nonzero"/><path d="M154 177v2l2 2c0-3-1-1-1-2q-1 0-1-2 0 2 0 0M158 187q-3-3-1 0zM164 197l-2-1v1zM159 185q-2-4-2-1c0-2 2 2 2 1M167 203zl-1-2 1 2-2-1zM153 172q3 1-1-2zc-3-1 2 4 0 1" style="fill:#6db4cb;fill-rule:nonzero"/><path d="m157 181 1-2q-3-1-1 0l-1-1-1-1v1-1zM170 207zl-2-1q2 1 0 0l1 1zv-1q-1 1 1 2-1-1 0 0h1q0-2-1-1" style="fill:#6db4cb;fill-rule:nonzero"/><path d="M158 181v1zc1 2 2-1-1-1M157 136l1 1q-1 0 0 0zM169 197zl3 2v-2c-2 0 0 1-3-2h1-2v1l-1-2q1 1 0 0l-1 1 3 1zq-2-2-2 0l-1-1v-1l-1 1-1-1q1 2 3 3zM156 174c-1 1 2 3 1 1z" style="fill:#6db4cb;fill-rule:nonzero"/><path d="M158 176v-2h-2v1zM173 200v1l1 3q1-2-1-2h2l-1-1 2 1h-1c4 2 0-2-2-2M171 202h-1q2 0 0 0l-1-3-2 1c3 0 2 4 3 4-1-2 2-1 1-2M165 180l-1-1h-1v-1h-1 1q0 0-1 1-1-2 2 1-1-1 0 0-1 0 0 0h-1q-2 0-3-2 0-1 0 0v1h1c-4 0 1-2-4-2l1 1c2 0 0 2 2 2-2-4 7 4 2 1l-1 1 1 1h1l-1-1h3q0 1 0 0z" style="fill:#6db4cb;fill-rule:nonzero"/><path d="M160 181h3zq-1 1-1 1M161 171l1 2h-1l1 1q-2-1-2 1h-1v1c1 1-1-2 1 0 1 1-1 1 2 1q-1-1 0 0l1 1v-2c0 2 0-1 1 1l1-1h-1l-1-1c5 1 3 2 3 2h-2l2 1h-1l1 2h1l-1-1h1l1-1h-1c2 0-1-3 2 1l-1-2c3 2-1-2-2-1 0-2-1 0-2-2l-1 1q0-1-1-1 0-2 4 1-2-2-1-2l1 1c3 0 0 2 2 1l1 1v1q1-1 0 0 2 0 0-1l-2-3 2 1q0-1 1-1l1 2h1l-1 2q3 0 3-3l-1-1-1-1q1 0 0 0l1 2-1 1q-2-1-2-3-1-1-1 1v-1l-1 1-2-2 1 1v-1c1 3-1 1-1 3v-2h-2q-1 2-3-1" style="fill:#6db4cb;fill-rule:nonzero"/><path d="M174 174v-1l2 1v-2l2 1v-1l-1-2h-1l1 2-2-2c1 5-6 0-1 4M153 166zc-1-1-5-4-1 0M161 185h1l-2-2zM147 153zl-1-1h-1q1 0 0 0zM172 203zq3 2 1 0M158 166h-3l1 1c0-2 3 2 2 0zM169 189c-3-5 1 1-2-2h-1l2 2q-1-1 1 0M156 164zl2 1h1l-1-1q0 1 0 0zM212 259l-2-2zM172 194zl1 1v1zq0 1 0 0M173 194v2h2c-1-2-2 0-2-2M172 190h1q-3-2-1 1zl1 1h1zM154 158c2 2 1-1 0 0M175 200zq2-1 2 1c6-3 1-2-1-4q0 3-1 2M173 187zq-1-3-1-1zh1z" style="fill:#6db4cb;fill-rule:nonzero"/><path d="m171 189-2-3q2 1 2-1l-1 1q0-2 2 0v-3h-1 1l-1-1c1 2-2-1-1 1 0-1 3 2 0 1v2q-1-1-2 0c3 3 0 3 3 3M155 156l1 2c1 2 0-2 1-1zM159 162l2 1zM166 171c-2 0 1 2 1 1q-2 0-1-1M175 190q1 1 2 1-1-2-1-3h-1z" style="fill:#6db4cb;fill-rule:nonzero"/><path d="M175 189zq1 0 1-1M164 169l2 1v-1zM165 168v-2q-2 1 0 2M158 155s3 3 1 2q1 1 3 1v-1q-1-2-1 0l-1-1q1 0 0 0v1l-1-2z" style="fill:#6db4cb;fill-rule:nonzero"/><path d="M165 163v1l-1-1 1 2v1c-1 0-2-3-1 0l4 1-2-1v-1q3 1 1-2h-1c2 0 0-3 0 1zM162 153zh-1q0 1-1 2l-1-1h-2l-1-1v2h1l1 1-1-1h3q1 0 2 1h-1c-3-2 1 2 0 2v-2h1l1 1-1-2c2 3 0-1 0-1zM171 180h2l-1-2q1 2-1 2M158 151zl-1-1c1 2 3 0 3 2h1zM201 241l-1-1h-1c1 0-1 1 2 1M184 186h-2c3 0-3-3 0 0l-1-1v-2l3 2-2-3v1l-2-1c0-1 3 2-1 0q0 2-2 0 0 2-1 1c1 2 1-1 2 1h-1v2q-2-1 0 1l-2-1 2 3q0-1-1-2h2c2 2 3-1 4 1v-1l1 2c-1-2 3 1 1-3m-6-1zq4 1 0 1m2 0-1-1h2zM195 224zc0 2 2 0 1 2q2 0 0-2M175 179l-1-1h-1l1 2zM164 160q-1 0 0 0l1 1zq1 2-1 0M181 192v-1h-1zM182 192q2 2 0 1 3-1 0-1M173 164zM170 168zl-1-2q1 1 1 2c0-2 2 1 2 1-2-4 1 0 2 0q-1-1 0-1l-1-1h2l3 1h1c-1 1-2-2-3-1q0-2-1-1 0-3 1-1l1 1h3l-1-2h1l2 2q-2-2 0-1v1q1 0 2 1c-1-2 2 1 2 1v-1c-1 1-1-3 1-1l-4-3q3 3 1 2v1l-2-1h1v-1l-1 1-1-1c2 0-2-2 0-3h-1v1q-1 0-2-1t1 0l1-1 1 1h2q0-1 1-1h3-1l-1-1c3 1-2-2-4-1l1 1q-3-3-1 0l-4-1-1-1v1s3 2-1 0l1 1q1 1 0 0l2 1q-2-1-1 1h-1l2 1q-1 1-1 1l-2-1q0 2 2 2h-3q1 1 0 0h-2c0 2 1 0 3 2h-3z" style="fill:#6db4cb;fill-rule:nonzero"/><path d="m186 160 1 1v-1zM189 150l-1-1q0 1-1 0c1 2-1 2 2 2z" style="fill:#6db4cb;fill-rule:nonzero"/><path d="M185 155zc0-2 0 2-1 1v-1h-1l1 2-3-3q2 3 0 1l-1-1c-1-1 3 1-1-1v1q1 0 0 0 1 1 2 1l-1 1-1-1 1 2h2l1 1v-2l2 2v-1l1 1c-2 0 2 2 0-1h1v-1h-1c-2-3 5 0 2-2h2q1-1 1-2l-1 1v-2h-1q-1-2-1 0l-1-1 1 1q-1 3 1 2-4 0-4 1M158 145l-3-2zM189 203l-1-1-1 1h-1l1 2 1-1 1 1zM162 156h2zM187 201l-2-1zM222 289l2 1v-1zM180 180h-1l-1 1-1-1v2q0-2 1 0 4 0 1-1zM167 161q0 2 1 2v1l-1-2h1c-2-1 2-1 0-2q0 1-1 1M168 164" style="fill:#6db4cb;fill-rule:nonzero"/><path d="m169 164-1-2q0 1 1 2M160 147q-1-1 0 0M163 148l-3-1 1 2q1 2 2 0zq1-1 1-1M195 204h-2l-1 1-1-1v2q0-2-2-2l1 2 2 1h-1 2v-2l1 1v1h1v-2h-1zM164 152l1 2v-1zM177 176l1 1v-1zM213 257c0-2 2 0 1-2q-1 1-1 2M169 159zq-1 1 0 1zM160 145l1 2q0 0 1-1z" style="fill:#6db4cb;fill-rule:nonzero"/><path d="M160 145c-2-3 1 2 0 0h1zM224 279q0 2 1 1zM172 163zl2 1zM180 180h2zM181 175q0 2-1 1 1 0 0 0v1l-1-1q1 1-1 1 3 1 2 2h1q-2 0-1 1c0-2 4 1 1-1h2l-1-2zM215 260q-1-1 1-1 0-2 1-1l-1-3q3 0 1-1 0 2 0 0-1 1-1 1l-1-1 1 1-1 1q-1-1 0 0zm1-4zM168 156h1zM167 150l-1-1h-1 1l1 2-1 1q1 2 0 0v1h1q0 3 2 2l-1-1q0 1 0 0v-1 1l2 1c-1-1 2 0 1-1q-1 1-2-1h-1v-1c-3-1 0 0 0 0zl1 1 1 1zc1 0-1-3 0 0M163 141c-1 0 0 3-1 1v1-1l1 1-2-1q0 2 1 1-1 0-1 2 2-2 2 0 0-2 1 0l-1-1h1l1 1 1-1zM178 170q0 1 0 0h1q-1-1-1 0M195 203zv1zq0 1 2 1-2-3-3-1" style="fill:#6db4cb;fill-rule:nonzero"/><path d="M160 140q4 2 1 0zl-1-1q0 1 1 2M164 146l3 1-2-1zM187 171c2 2-3 0-1 2v1l-1-1h-1l2 1 1 2v1l-1-1c-3-1 1 1 0-1-1 0-4-3-1 0q-1 2-2 1l1 1h-1v2q2 0 0-1l2-1 2 2-2-1v1c-3 0 2 3 2 2q-3-2 1 0-1 1 0 0l-1-1c0-2 2 1 2 0l-1-2 2 1q-1-2 0 0 0-2-2-4c2 2-1 1-1 0h1l1 1q0-1 1-1l-2-1c1 0-2-1 0-1l2 1 2 1z" style="fill:#6db4cb;fill-rule:nonzero"/><path d="M190 175c1 1-2 0 1 2-1-2 3 0-1-2M194 171l-1-1zc-1-1 1 4-2 1l2 4c0-2 4 0 2-2h1l-1-1q2 2 1 0h-1v-1zM199 206q-1-2 0 0M199 206q0-1 0 0M197 204zM180 170zq-3-3-1 0M172 145c-1-1-4-2-1 1h-1q1 0 1 1l-1-1v2l2 1q-2-2 0 2l-2-2v2-1 1q4 0 2-1 0-2 1-2l2 1-2-3zl3 1-1-1v-1q0 1 0 0c1 0-2-1 0 0l-4-1q1 0 0 0 3 1 3 2" style="fill:#6db4cb;fill-rule:nonzero"/><path d="m168 149 2 2v-2zM166 145zh1zM202 208q1 0 0 0h1v1l2-1h-1l1 1q-2-3-3-1M165 140h-1l1 1zq-1-1 0 0zM199 195zv-1c-2 0 1 4-2 1 2 2-2 0 1 2zv1h2zM163 137l2 2zM207 200zq-2 0-1-1-2 1-4-1l1 1q-1-1-2 0l-1-1v2h1l1 1 1-1 1 1c-2 0 1 3 1 1-4 1 2-3 2-1m-4-1zM205 198h2c1 0 0-3-2-1zM205 195q-1 0-1 1v1h1c-1-2 2-1 0-2 1 0-1-3 0 0q-3-2 0 0M163 137v-1c1 3 2 0 0-1zM194 180zl-2 1q1 1 1 3h1v-1h2q-3-2-2-2" style="fill:#6db4cb;fill-rule:nonzero"/><path d="M203 197q1-1-1-2zM197 187q2 1 1-2v1q0-1-1 1M187 163h-2q3 3 2 0M198 182q-4-1-1 1zv2c0-1 1 2 1-1q1 0 2-1zm0 1 1 2zM171 141zq0 1 1 1" style="fill:#6db4cb;fill-rule:nonzero"/><path d="m196 177 2 1q0 1 3 1 0 2 0 0 2 2 0 1l-1 1-3-2h1c-2 0 1 1 0 2h-2l1 1c-1-2 2 0 1-1 2 0-1 2 3 1l-1-1h1l1 1v-3l1 1v-1l1 1v-1l-1-1h2l-1-1q0-1 0 0l-1-1h2q-1 0-1-1l-2-1v1h1-3l1 1q0-1 0 0l1 1h-1v1h-1v-1l-1-1v1q-3-3-3 0m8 0q-1 0 0 0m-2 1zm-1 0 1 2zh-1zM163 127l-1-1c4 3 0-3-1 0zM177 145l-1-2zc-2 0 0 2-2 0v1zM179 143l-2-1q2 0 1-1h-2l1 1 1 1-2-1v1c3 2 2-1 3 0M220 224c0-1 3-1 0-2 1 2-2 2 0 2M208 197l-1-1c3 0 0-2 0 0q1 0 0 0zM175 138zh-1q0 1-1 1zM191 165zc1 3-2 1 0 1M178 145h1q-1-1 0 0zM187 158l1 1v-1zM184 150q0 1-1 1c0 1 4 2 2 0h-1zq1 0 0 0M177 140zh2l-1-2q0 1-1 1" style="fill:#6db4cb;fill-rule:nonzero"/><path d="M176 138q2 0 0 0l1 1c2 0-1-2 1-1zM194 160h-3zM192 162c1-1 3 2 3 1l-1-2c1 2-2-1-2 1" style="fill:#6db4cb;fill-rule:nonzero"/><path d="M179 138zl-1 1c3 4 3 1 4 2 1-3 3 1 0-2q0-1 0 0h-1c-2 0-3-4-3-1-1-3-1 1 0 0M251 268c0 2-3-1-1 1 0 0 4 1 1-1M204 175l2 2v-2z" style="fill:#6db4cb;fill-rule:nonzero"/><path d="M206 175q2 2 2-1h-1 1v1l2-1h-2q-1-1 0 0l-1-1-2-1 1 1-2 1zM230 220q-1-2 0 0l-1-2-1 2zM210 167" style="fill:#6db4cb;fill-rule:nonzero"/><path d="m207 171 1 2 1 1v-1h1q-1 0 0 0h1l1-1q1 2 0 0 3 0-1-1v1l-1-2v-1h1v-2h1-1v-1l-1 1 1 1h-1l-1-1c3 2-2 1 0 2zl1 1c-3-1 0 1 1 1l-1 1zq0 2-1 1zM245 247q1 1 2-1zM230 210v-1q-1 1 0 1M218 183q2 0 1-1zM221 185l-1-1h1-2q2 1 0 1l1 1h2zM222 183c0 1-3-1-1 1zM233 206l1-1zM221 181q1-2 2 0s-3-3-1-2c0-1-4-1-1 2M242 214zq3-1 1-1zM167 289c-2 0 1 3 1 2zM186 203zq1 0-1-1h-1c0 1 0-2-1 0l-1-1h3q-1 0-3-2 3 2 0-1v-1h-1c1 2-3-1-2-1 3 4 0 0 0-1q2 0 0 0l-2-2q0 1 0 0v1q-1 0 0 0-2 0-1 1l-2-2v1q-1-1 0 0l1 2v-1l1 1q-1 1 1 2-4-2 0 1h2q0 0 1-1l2 2q-2 0-1 1-2 1-2 2-2-1-1 1l-2-1v2l-2-1v1-1h-1q0 1-1 1l-2-1 1 2q-1-2-2 0v-1l-1-1q1 1 1 2l1 1v-1l1 1h-1l1 2q0-1 1 0v-1l1 1 5-1 2 1v-1h1l-1-2q0 1 0 0l-1-1h3v1h2c1-2-2-3 0-4l-1 1c2 3 2 0 2 0m-8-7zq-2-2 1-2zm1 0c1-2-2-2 1-2q0 2-1 2m-1 11zm1-1h1zm3-1-2-1zv-2zm0-3zm1 2v-1zm2 1zl-1-1q1 0 0 0h1zM173 209h-3z" style="fill:#6db4cb;fill-rule:nonzero"/><path d="M338 269v1c-1 1-1-2-1-1l-1 1c3 1 0 1 0 3v-1q2-1-1-2v1q0-1-1-1c0-2 4-1 1-2q2 0 2-2 3 2-1 0 2-5-2-5c-1-3 2-1 2-3q0-1 1 1c-1-2 2-1 0-2 3-1 0-1 1-3q3 2 1-1c2-1 1 2 2 1v-1q0 0 1 1 1-1 1-4c-2 4-1 0-2-1l2 1c0-2 5-1 3-3h-1l1-1h-2c-2-2 0-1-4 1q1 0-1-1 2 0 0-1c2 0-1-1 0-2v1l1-1-1-1 1-1q-2 0-2-1h-1c1 0 3-3 2-1l2-1v1l1 1-1-2v-2l-1 1 5-9c-2-3-4 1-4-2 1-5 6 1 5-9h-2c1-4 5-8 1-12 3-10 1-17-3-30 2-1 4 5 4 1q-3-4-5-3 1-3 4-4-2-6-7-7c3-4-2-7-6-12 4-5-2-6-8-10 4-3-2-1 0-6-5 3-7-7-12-7-1 2-10 3-5-2-7-1-19-3-20 6-1-9-8 1-12-1 1 5-11 10-13 10l-1 1 1 3q-1 0-1 1c0-4-1 0-8 4l-2 2c0 2-1-1-1 1 2 0-1 0-6 10v-1h-1q0 1-2 3 0-1-2-1l-1 1-1-1h2l-3-1v2h1q-1 2 1 2c-2-2 1-2 0-1l3-2q0 1 2 1l-2 1h-1q1 4-2 10c-1-2-2-7-5-6l1-1h-2c2-2 0-3 3-1q-1-1-1-2l1 2c2-2-1-1 0-2h-1q-3-3-4-1-3-3-7-4c6-3-4-15-5-8-3-4-1-4-4-6l3-2c-6-14-28-43-48-42 0-9-23-10-26-5-19-3-34 12-48 23l1 1c-6 2-5 6-10 10 5-14-12 12-2 4q-9 12-5 27l-4-2q0 4 2 4c-5 7 0 13-1 21 3 0 3-3 4-1s-3 1-3 3c9 15 9 40 25 48-2 12 24 27 20 40 6-4 10 15 13 6 2 4 1 12 6 10-1 2-5 3-2 5 2 3 1-4 4-1q-1 1 2 1c-5 2 3 5 2 7 3 1 1-3 4-1 2 2 0 8 6 7-1 10 2 10 10 11q-3 2-3 4c6 0 5 10 8 11q0-2 2-4 0 4 6 4l-5 3c2 6 7-5 4 3 2 2 4 0 5 3l6-6c-1 1 0 5-2 4 0 2-3 0-2 5q1-2 3-1c-3 3 0 5 0 8 4 1 2-5 6-4q2 3-1 5 3 3 7 3c-2 5 6 5 4 9 4-2 2 4 8 3q-3 0-1 3c5-4 0 0 1 3q3 0 2 2c8-5 6 5 9 8q2-4 5-2c-5 2-1 3 2 2 0 2 4 4 3 7 15 5 36 17 43-4l3 3c2-5 6-6 4-11 6 4 5-14 8-7 3-3-5-4-2-7l2 3c9-12 6-19 16-27-3-4 4-11 2-16q2 3 5-2c-2-5-5-3-7-8 6 1 4 5 8 6 2-7 2-5 6-9v-2c-1-4-4 0-3-3 3 2-2-4 2-3q0 3 2 2c-2-1 1-1 1-3q-3 0-3-2c1 0 1-3 4 1q3-7-1-10c3-3 3 0 5-1 3-2-1-14 3-13l1 1-1-1h1s0-4 3-2h1c-1-2 2-1 1-2l-1-1-1-2h3v-1l1 1q-1-2 1-3v1l2-1zm2-22q1 1-1 1zm0 2-1 1q1-3 1-1m4-32q2 2-1 2zm-7 37zm-148 91zm145-75v1zm-1-20c0 5 3 2 0 5 0-2-4-6 0-5m-60-100q2 6 6 4c-2 3 0 1 1 2l-4 1q1-2 1-3c-2 4-6-2-4-4m-1 4q1 4 3 4c-1-2-3 4-4 3l1-1v-1l-1 1v2l-1-2-1-1q1 4-1 1c2 0-1-2-1 0v-1h1l-2-1v1c-2-5 2-2 6-5m-6 8q2 0 0 0m-3 4q0-2 1 0zm-1-25q0-1 0 0m-7 27 4 1h-2l1 1h-2l3 2q-1-1-3 1 0 0-2-1 1 2 3 2-2 1-4 1h-1c-4 2 3-4 3-7m-5 8c0 3 2-1 2 1l-2 1q3 1-1 1l-1 1q0-2-2 1 1-2 4-5m-9-10zm-5 23zq-1 1-1-1m0 0zm-5-25q0 1 0 0m0 5c2-2 2 3 0 1zM91 192c-4 0 1-4 1-5-1-2-2 1-4 1l1-4q11 2 2 8m4 22q-1-4 3-6c-1 3 2 2 3 5zm3-13-3 2q-2-4 5-6l1 5q-1 1-3-1m42 54-7-8h2l2 2 1-1c1 2-1-1 1 0l1 1h-2l1 1h-1q1 0 1 1l1-1 1 1c-1 3 2 3-1 4m0-6 2 1v1zm1 4q2 1 0 1zm5 8 1 2zm2 3 2-1h-3l1-1v1-1h-1q-1-2 1-1v-1h-1 1q-1-1-2-1v2h-1v-2q0 2-4-2 2-1 3 1l-1-1v-1q1-1 1 1v-1h1q0-1 0 0l-1-1v-1l1 1-1-3h2v-1c-2-2-2 0-5-2q1-1-1-3h2v-1l-1-2c1 2 1-5 3-1l1 1q-1-1 0 0h1q3 0 2 1l-2-1q3 2 3 2h1q1-2 3-2l-1-1-1-1q1 1 2 1v-2q1 0 1-1 1 3 2 2l-1-2v-1h2-1q1 0 1 2v-1c2 1-1-2 1-2h-1 2q-1-1-3-1v2h-2l-1-2 1 2-1-1q0 1 0 0l-2-1-1 1v1l1 2-2-1h-1c-1-1 0 2 1 1q-1-1 0 0l-1 1q-1-1-2-1 1 3 2 1l1 1-4-1v1q-2-1-2-3h-1c2-2-3 0-2 3h-2l2 1-1 2h1q0 2-2 1h-1q2 1 1 2h-1l-1-1 1-1h-1l-1 1-1-1v-2l-1 2-1-1q0 3-4 0 4-1 3-4c-2 1 0-1-2-2-4 4-1-7-4-5l-2 2-3-1c3-3 1-2-1-5q2 0 2-2c-6 3-2 4-3 6q-3-3-9-4l5-1c-1-4-5 0-6-4 4-1 1-3 1-7 1 4 4 0 6-1v-5h1l-1-1h-1v-1h1c-2-2-1 10-9 7 3-6 6 1 6-5 4 0-2-1 1-5-6 3-1-1-6-3 0 1-2 7-4 4 5-2 3-6 4-7l2-1 1 1-1-1q0 2-2 1c4 6 4 0 7 0-1-2-5-1-3 0q-1-1 0 0-2-2 2-3c2 4 1-1 3 1h-1l1 2q0-3 3-2-1-3 0-2 0 2 1 0 1 1 1-1l1 1v-1q-1 0 0 0c0 3-2-2-1-1l1 1h1l-1-1h1q0-1-1-1v-1l-1 1-1-1v1l-1 1q1 0 0 0l-1-1v1c1 3 0 0-1 1v1l-1-1q-1 1 0 1c-3 2-3-5-7-3 2 12-6-4 3-1l-1-4c-7 2-2-6-8-7 5-2 0-1 0-2l5-3q-2-4-5-5c-3 2 2 2-1 4q-2-1-2-4c3-1 9 0 5-1-1-3-7 2-7 0l4-5q-1 4 3 3c0-3-7-7-2-9-1-2-9-1-9-4q0-2 3-2c3 1-3 2 1 4h2q-1-3 2-5-6-4 0 0 0-8 4-8c-4-5 5-8 1-14-3 3-4-2-4-4 2-1 5 4 7 3-4-4 1-3 2-3q2-4 2-9c8 0 13-6 18 5 5-3 10-13 17-7 1-5 0 0 1 0l3-3 2 5c4-3 18 4 17 6h4c1 6 14 5 12 14 7 0 7-2 13 1-5 1 3 4-4 5 4 2 7 10 12 11q-3 3-1 6c6-1 11 12 10 13h-1v1l1-1q0 2-1 1l1 3h1q1 0 0 0c2-2-2-1 2-2q1 4 7 2c1 3-3 3-4 1q2 2-1 2c8 9 13 2 8 2l3 1c2-7 1 1 0 1q-2 3 1 3h-1l1 1-3 1v1h-2v2c1 0 0-3 2-1h-1c2 1-1 2 2 2q0-2 1 0 0-1 1-1-2-1 0-1c0 1 0-2 1 0h1q1-2-1-1 2-2 2 1h-1l1 1h-1q0 3-3 2v-1q0 1 0 0l-1 1q0-2 1 1h-2l-1-1h-1l-2-1q1-1 1-1h-3l1 2h-1q-2-3-2-1l-1 1v-1h1-2c-1 0-1-3 2-1q-1-2-3 0-1 0-1-1v-1q-4 1-1 1l-1 1-1-4h-2 1l-2-1c3 1 0 0 0 0 0 1-3-2-2 1v-1l1 1 1 1 1-1q0 1 2 2-2 1-5-1h-2l-1-2q2 2 1 0 2 0 1-1-1 2-1 0l-2 1v-1l-2-1h3v-2l2 2q-1 3 0 0v-1l1 1q1 2 1 0c4 3 1 1 1 0 1 1 1-2 2 1l1-1 1 1-1 1 2-1-3-4 2 1v-1h-1q-1-1-1-3 2 1 3-1h-2l1-2h-2c1 3-3 2-2 4l-2-1q0 3-1 2 1 0 0 0v-1h-1q0 1 0 0-2 1 0 1l-2 1 1 1h-2q-1-2-1 0l-1-1c1 3-3 2 1 4q-1 0 0 0v1h1v1l-3-1 1 1 1-1 3 4q1-2 4 0h-1l2 2c-1-1-2-4 0-1q0-1 2-1l1 2c-2 1 3 2 2 0l1 1q-1 0-1 2v-1h-2l-1-1v1h-5c2 0 0-3 2-1q-1-2 0-2l-1-1h-1l1 1h-3c1-3-5-3-1-1 0-2 2 1 0 1l-2-2 3 2-2 1h-1l-1-1-1-1 2 3h1l-1-1 4 2v1l-1-1-1 1 2 1 2 1q-2 0 0 0c-2 2-4-1-2 1l1 1c-1 0 2 1 1 2-3-2-2 3-4 1q-1 1 1 2l-1 1-1-1-2-2h2v-2q-2 2-2 0v2h-1v1h1q0 1-1 2h1q-1 1 0 0l1 1v1c-2 1 0 2-2 1h1-3v1l-1-1h2c-2-3-2 1-3-1h-4 2l-1-1h-1v-1l2-1v-1q1-1 0 0c3 0 1 1 2-1l1 1q2 2 2 0-1 0 0 0h-2l1-1-2-1c6-2-2-1-1-5q-1 1 0 2h-3v2l1 1 1-1v2-2h2v1l2 1q-1-1-2 1l-1-1-2 1q1 1-1 1h1l-1-1v2c-1-2 1 1-1 0v1q0 1-1 2 1 0-1 1h-1q-1-1 0 0h-1c-2-4-1 0 0 0 0-3-1-1-2-2 0-2 3-1 1-1l1-1h-2v-2l-1 1c4 4-1-1 0 1q2 2 1 3v-1h-1q0 1-1 1l1 1h1q0-2 2 0v2h-1v1h1l3 2c-3-3 0 1 2 0q1 1-1 1h-1c1 2-2 1 1 0q-1 1 1 2-3 0-1 1-2 0-1 1 1-1 0 0v-1l-1-2-1-1v1l-1-1q2-1-1-1 1 1 1 2c-1 1-2-2 0 0l-1 1h-1v1h-1v-1 1-1q-1 1-1 1v-2q-2 1-2 1l1 2-2-1c2-2-1 0-1-2v-1l2 1-2-2h2q2 2 0 0 2 0 1-1h-1q2 0 2 1 1-1 2-1h-1v-1q1 0 0 0h-1q0-2-1 1l-1-1v-1h2v-1h-1q1-1 0 0l-1-1q0 1-1 1h-4l1 1h1v1c-1-1-1 2-1 1h-1c2 0-1-2 1-2l-1-1-1 1h-1v-1l-2-2v1l-1-1h-1v1l-2-1v2h-1c1-2-2-1-1 0l-1-1q-2 0-2-1l-1-1 1 1-1-1v1h-1l-1-1v1l1 1-1 1-1-1 1 1h-2 1q-2 1 0 2-3-2-1-2l-2-1h2q-2-2-2-1h-1v1l-3-2h-1l2 2c-1-2 2 2 3 1v-1q2 1 0 3l2 1q0-1 0 0v2h-1q0 1 1 1-1 0 0 0l1 1v-1l1 1h-1q3 2 2 0v1l-1-2v-2 1-1l2-1v-1h1l-1-1q-1 1-1-1h-1 3v2l1-3v1h1l2 2v-1q-1 0 0 2h1v-1h2v1-1l-1-1h5l-2 1q1 2-1 1l1 1-1-1q0 2-1 1 2 3 4 2l1 2-1 1 2 1 1 1-3-2v-2l-3-1q-1-1 0 0v2c-1 0 2 1 0 1v-1l-2-1 1 1 1 1-1 1h-1l1-1-1-1q-1 2 0 2-2 0 0 1h-1q-3-1 0 0l-2 2v-2l-1-1h-2v1h-1c2 0-1 1 0 1v2c-1 1 0-2-1-1h-1v1q-1-1 0 0-1 0 0 0t1 1v1q0-2 1 1l-3-1-1-1 1 1-2-1 2 1-1 2q1-1 0 0l-1-2v2l-2-2 1 1v1q0-1 0 0c-3 0 1 2-1 3 4 1 8-4 4-1l1 1h2l-1-1v-1l4 4v2h-1v1q-1-1 0 0l-1 1v-1l-2-2q0-1-1-1l-1-1q1 3 0 1h1l-1-1-1 1 2 1q-2 1-2-1-1-2-3-1v1h-2q2 0 3 2h6v2l-1-1 1 2c-1-1 2 0 1 1q-2-2 1 0l2-1q-1 0 0 0v1q2 0 0-1h1l2-1q2 2 0 0h2l-1-1h2v-1c2 3-1-1 0-1q-1 1 1 1h1v-1h1v-1h1q1 2 0 0l5-2q-2-2 0 0-1-2-1-1v-1q1 0 1 2h2v1h2l-1-1-2-1 1-1h-1v-1c3 4 4-2 7 3h-2 1l1 2h-1q0 1 1 1l1 1q-1 0 0 0-1-1-3-2l-1 2h2v1q-1 0-1 1l-1-1-1-1v1h-2l1 1v1l-2-1 1 2q1 1 0 0l1 1c-2-2-2 1 0 1q-1 0-1 1h-1l-1-1q1 2-1 1l-1-1v1l-1-1v-1q1-1 2 1l-1-1h1l-1-1 3-1h-1l-1-1h-1 1q0 0 1-1h1l-1-1c5 1 2-1 3-2q-2-2-5 1v-1q-1 1 0 2c1 5-2 0-2 2q1 0 0 0l-1 1-1-1h-3l1 1q-1-1 0 0l1 2 1-2h1l1 1h-2l-1 1q-1 0-3-1h1l-1-2c1 3-2-1-1 0l1 3h-1 1l-2-2 1 2-1-1h-1q1 1-1 1h-1v1h-1v-1l-1 1v1h-1v-1 1h-1v1h3l-1 1h-1l1 2-2-1v-1q-1 0-1-1v1l1 1h-2q2 1 0 1l1 1h1v1l1-1q1 2 0 0l1 2v-1h1c-2 0 1 2 1 2q-2-3 1 0v2l-1-1v1l-2-1v1c-1-2-1 1-3-1v1c-3-4-5-1-4-3h-1q0 1 0 0 0 3-1 2l1 1c0 2-2-1-2 0v1l2 1v-1l3 1h-1v1l1-1v1l1 2-1-1h-1c0-1-3-3 1 2q-1-3 0 0 1 1 1-1l1 1-1-1h1v-2l2 1q0-1-1-2 2 2 0 0 1 0 0-1h1q-3-2 0-1l1 1v-1l1 2v1l1-2 1 1q0-2 1-2v-2h-1v-1h-1q-3-4 0-5v1q0-2-1-1v-3 2h1c-2-4 1 2 2 0v1l-1 1c1 1 1-2 1-1q-1 3-1 1v2q2 2-1 0 1 1 1 2h2q-1-1-1 1l1 1v1h3l-1-1 3 1q-1-2 0-1l-1-1v-1 1h-3v1c1-2-3 0-1-2q4 1 4-2h1c-2 0 0-1-2-2v1l1-1q2 0 1 1 1-2 1 1l2-1 1 2q0-2-2-3l1-1-1 1q0-2 2 0h1l3 1 1-1 1 2 1-1v-1q-2 0-1-1h-1v1q-1-2-1 0l-1-2q4 0 4-1h1v-3l1 1 5-2-1-2h2l1 1q-1-2 1-2v1l1-1v3c1-3 1 2 2 1l-1-1q2 1 2-1h-1v-1h-2 1l-1-1q1 1 0 0v-2 1h-2l-1-2q-1 3-1 1l-1 1q1-1-1-2c4 0 1 2 0-1q3-1 2-1 1 1 2 3 2-1 0-3c2 1 0 2 3 3l-1-2h2l1 1c-2-3 0 0 0 0v-1h1q0 1 2 1-1-2 1-1-1 0-1 1h3c-1-3-1-1-2-2h1q-2 0-1-1l-2-1q0-1 1-1l1 1h2v2q0-3 1-2c2 0-1-2 1-2v1l1 1q-2-3 1-1l-1-2c1 2-1-1 1-1 0 3 2 1 2 2l-1-1 1-2h2v-1c1 1-2-3 0-3h-2q1 0 2-1l1 2-1-2 1 2h1l1-1q2 2 0 0l1-1h1q2 0 0-1 2 1 0-1c3-1 7 1 4 1h1c1-1-2-2 1-2v1h1v-1q1 1 0 0h4l-2-1h3l-1 1q1-2 2 1l2-2 1 1q-2 0-1 1h-2l1 1v1q0-1 2-1-1-1-1-2l1 1v1h-1v1q0 0-1 1 2 0 0 1l-1-2q-1-2-1 0 1-1-2-1c1 2 2 0 2 2h1l1 3q-2-1-2 1v-2q-2 0 0 2s-3 2 0 2v1h-1l1 1v1l1-1-1 2v2l-1-2 2 1v1l1 1c-1-4-4 2-4-2l-2-1v1h-1v1h-1l-1-1-1 1 1 1-1 1-1-1q1 0 0 0l-1-1c4 0 0-2 1 0l-1-1h-1q1 0 0 0c2-1-2 0-3-2l1-1q0 1 2 1-1 1 0 0l1 1-1-1 2 1v-2q1 2 1 0v1l2 1v-3h1q1-1 1 0v2h3v-1c0-1-4-1-1-1q0-2 1-3h1-2q-1-3-3-1-1-3 0 0-1 0-2-1l1-1 2 1q-2-2-4-2l1-1-2-1h1l-1-1v2h-1q-1 1-1 2l2 1h-4l2 2 1-2 1 2q2 0 2-1v-1l1 2 2-1q1 2-1 0v2l1 1-1-1h-2 1-2v1h-1v-1h-2l-1-2h-1c1 1-2 0 0 1h-3q-1 1 1 3h-3l3 2 1 1v1h1v1h-2q1 0 0 0h-1v-1l1-1h-2l-1-2h-1l1 2-2-1h-1v1h1l-3 1v-1 1h-1v1l-1-1 1 2q-1 0 0 1c-2 0 0 3-2 2q0 1-2 1 1 0 1 2v1q-2-1-1-2 1 3 1 0l-2-1v2l-1-1 1-2h1c2 0-1-3-2 0l-1-2q1 2 0 2l-2-2v2h1v-1l1 2-1-1v1q3 2 4 3h-2l-1-1q2 2 1 3l-2-1-1 2q0-3-2-2l1 1c1 0-2 0-1-1h-1q-1 2 1 2v-1h1c-1 1-5 4-6 1q-1 1 1 2h-1 2q0 3-3 1h1-1l-1-1q0 1-1 1l-1-1q0 2 2 3l-2-2q3 1 2 3h-1v1l-2-1 1-1h-1q0 1-2 1 2 1 0 1l2 2v-2q3 5 1 2-1 0 0 1h-2v1l-1-1q1 1-1 1c1-1-2-1-1-2q1 2 1 0l1-1v-1l-1-2-1-1h-2q1 0 0 0l1 1 1 1h-1l1 1-1-1-1 2v2q0 0 1 2l-1-1v2h-1v2l-1-1v-1l1 1q-1-3-3-2-1 2-1 1v-1h-2q0 1-2 1 1 0 1 1-1 0-1 1v1q-1-2 0 0h1v1h-1v1q1 0 0 0h1v2h1q-1-1 0 0l-1-2q1 1 0-1l2 1v2-1h1l-1-1h1l-2-2q8 2 8-1 4 0 2-1l1 1 1-1-2-1h3c-1-1 1 3 1 1h1q3 1 0-2l3 1-1-1 1 1v-2l2 1v1l-2 1q2 1-1 1l1-1h-1q0 1 0 0v1q-2-1-2 1 1-1 1 1h-1l-1-1v1q-1 0-1 1-3 0-1 2h1c1 2-5 0-2 0q-2-4-2-2c-2-2-2 1-2-1l-1 5h-1v1h-1v-1q2-1-1 0h1-2l-1 1c2 2 0 0-1 2q1-1 0-3 1 2 0 0l-1-2q-4 0-3-1l1 1 1-1-1-1 1 1h-1l-1-2 1-1h-2c2 2-1 1-1 1 0 1 3 0 1 1v1l-2-1q0 2-2 2c-1-2 2 1 1-1-3-2-1 1-3 0l1-1-2-1h-1l-1 1 2 1-3-2h1q-1 0-2-2v2l-1-1v1q-3 0 0 2c-1 1-3-3-3-1h-1l-1-1 2-2h-1q-2-2 0 1l-1-1-2-2 1 1 1 1c-1 1-3-2-3-1v1q2 0 2 1 0 0-1 1-1-1-3-1h1v1h-1l1 1q0-2 1 0 1-3 0 0 2 1 2-1c1 6 3 3 0 1q2 0 1 2l1-1q1 2 1 0c1 1-1 2 2 2v-1c0 2 2 0 0 2 3 1 0 0 1 1-2-2-2 1-1 0q-1 0 0 0l1 1h-3c2-1-2-2-3-2l-1-1q1 2-1 1l1-1h-2q1 2-2-1m2-25v-1h2q0 1 0 0l1 2-1 1q-3-1 0-1zm1 2v3zm4-2zm-41-27q1-2 0 0m-2-1q0-1 0 0 0-1 0 0m0 1zm120-13 1 1zm0 0zq0-1 0 0zv1-1h-1l2 1h-3v2l1 1-2-1q1 1 1 2c-2-2-1 1-3-1q1-1-1-1 0-2 1 0t1 0v-2l1-1-2 1q0 1-1 1c-2-1 2-2 0-3l1 1q3-1 1-1l1-1v1c2 4 2-2 0-2 0-2 1 1 1 1 0-2 3 0 1-2 5 0-1 1 0 2q3 0 2 1m0 9v2c-2 4-7-3-6 0l2 1q-2 0-4-2h1l-2-2h-1l1-1v1l2 1h1l-1-2 2 1c-1-1-1 2-1 1h1l2 1c-2-2 1-1 0-2h1zm2 6c-1-1-1 2-2 0v-2zm-1-3v1zm0 4q-1 0 0 0m-4-3-2 1 1-1zh2q-2 2-2 0m1 3q1 0 0 0m-1-2-1 1zm-1 3zm1 0q-1 0 0 0m0-1q-1-1 0 0m-2 2-1-1 1-1zm-2-2h-2v-1q2-1-1-2 1 3-1 1 0 1 1-1l-1-1v-1h1q0 1 0 0v-1l2 1v1h-1l2 1c-1-2 2-1 0 1l1 1q-4 0-1 1m-3 1q1-1 0 0zq1 2 0 1m-3 2q-1 0 0-1zm0 2q0 1-1 0zm0-10v3q-2-3 0 1h-1q2 0-2-1 1 0 1-1h-1l-1 1h1q-1 1 0 0 2 1-1 1c2 3-2-1 2 1l-4 2q2 0 1 1l-1-1v-1c0 1-3-2 1 2h-1v1q-1-1-1 0c1-1-3-2-1-1l2 2-2-1 1 1q-2 1-2 1l-2-1h-1v-1l-1-2h2l-1-1h2v-3 2q-2-3-3-2 2 1 0 0l1 2-2-1h1v-1h2v-1h-2l3-1 1 2v-1h2c1 0-2 1 0 1q0-2 2-2-1 0 0 0v-2q2 2 0 0c-1-2 2-2 1-1q3 2-1-1h3v1l1-1q-1 2 1 1l1 2q2 2-1 0m-2 8q0 1 0 0m-1 1q1 0 0 0m-2 7zm-2 1 1 1-4-1v-1h-1v-1l2 1v-1l-1-1 1-1q1 2 1-1l1 2-2 1 3 1zm-2 0zm-1 1q1 0 0 0m0 0zm-3-2zh-2zh-1l1-1-2-1v2h-1q3 0 1 2l-1-1h-2v1l3 1q0-1 0 0h1q1 1-1 1l-1-1c3 3 1 0-1 1q1 0 1 1l-2-1 1-1h-1q-3-2 0 0h-3 1q-1 1-2 0c2 1-1-3-2-3q1 1 0 0l2 4-1-1v1l2 1-2 1q3 0 0 0l-1-2q-2 0 1 1v1l-1-1 1 1h-1l-1 1h1l-1-1-1-1-2-1q3 0 2-2v1h1q-2-4 0-1-2-4 1-2l-2-2v-3h2c-1 0 2 4 2 2l-2-2 2 2 2-1c-1-2 1 2-1 1v1q1-1 0 0c-3-2 0 1 0 2v-1h2l-1-1q0 1 0 0v-4q1 1 1 3l2-1h-1l-1-1 2-1q1 1 1-1v1q-1 2 0 2c-1-2 2 0 0-3l1 1-1-2v-2h-1q4-1 0-2l1-1q3 4 1 3v2l1 1h1c1 2 2-1 2 3h-2v1l3 2c-6-1-4-1-2 1m-1 3v-2c-2 0 1 1 0 1q0-1 0 0zm-1 4 1-1q0 1-1 1m-1-1q-2 0 0 0m-12 9h-1v-2q0 2 0 0zc3-2 5 0 3-2q3 1 0 2zm3-4q2 0 0 0m-4-12-2-1q0 2 1 3h-1l-1-3-1-3h1v1l2 1 1 1zc0 1-4-2 0-1m-1 3zm-3 2v1q-1 0-1-1 0 0-1-1v-1l1 1v-1h1-1l1 1q0-1 0 0h1v1h1v1zm-4 1zq1 0 1 1zm-1 1h-2q1 0 1-1h-1zq0-1 0 0m-1 2v1zm2-4zq-1-1-1-1-3-2-4 0c-3-2 2-1-2 1q-2-2 0 1 2-1 2 1l-1-1q-2 0 0 2l-2-1q1 0 0 0c0 1-1-3-2-1q1-1-1-2l-1 1q0 0-1-1v1-1q-1-2 4-2 0 2 1-3l1 1q1 0 0 0h2c-1-2 2-1 0-1l-1-2c0 2 1-1 3 1v2l1 2v1l2 1zc4 0-3-4 1-1-2-4 1 0 2 2zm-4 4q-1 0 0 0m0-2q-2-2 0 0m1 3q-1 1-1 0zm0-1zm-2 0-1-1zm0 1zm-4 3q-3-2-1-3-2-2 0 0h-1l-1-2-1-1c-1 2 2 2 0 3 0 0-3-3-1-2-3-5-4-3-1-2v-3q-1 1 1 2l-1-1c-1-2 2 0 0-1h1q0 3 2 4h1l2 4 1-1q0 0 1 2-1 0 0 0l-3-1zm0 1-3-1q3 0 2 1zm-8-9q0 2 0 0m5-3h-2q1 2-1 0zm-2-4h1l1 1q0 1-2-1m2 2zm3 8h-1zs0-4 1-1zm2 0v2l-1-2zm-2-9c-1 1 2 2 0 2q-1-2 0-2m0 0zm2 0zm2-3-2-1zm0 1zm1 0q1 0 0 0 0 1 0 0m1 2zm4-2-2-2q3 2 1 2v1c-2 1-2-2 1-1m-3-5-1 1q0 2-1-2c3 0 2 3 0 0h3l1 1v-1l1 2h-2q-2 1 0 1zm2-4h1zm0 11 2 1zm1-3v-1zm-1 6 2-2h1v-1q-2-2-1 0l1-1c0 1 3 5 1 4 2 5 0-1-2-1l1 1zm2-7zm2 5-1-2h1zm6-3zm0 1zm0 0zq-1 0 0-1m-2 1q1 1 0 0m0-1zm0-1q-2-3 0 0m0 6 1 1zm5-8zh2v1h-1q-1-1-1-2m-2-7 1-2 1 2-1-1zm-1 1h2zm3-3h1q0 1 0 0zm0-2 1 1zm1 6zq3 0 2-1h1l-1 1q1-1 1 1v1l-3-1h1q0-2-2-1 1-1-1-1zm5-5zq2 0 1 1 0-1-2-1 0 5-2 0 1 1 0 0h-1c1-4 3 0 4-1m2 3 2 1c1 0-3 1-2-2zm3 0zv-1zm0 4q-3 0-1-1zm0 1zl-1 2v-2m-2-3q-1 0 0 0 1-1 0 0m1 0zm-3-3zm0 1zm-2 1 1 1zm1 6zm-3-6zm0 1zm1 4q-1 2-3 0h2l1 1zm0 0zm-1 5zm11 0h-2zm3-2zm1 1q0 3 0 0m0-4 1 2-1-1zm1 0c-2-2 3 0 0 0m0 6zm-1 0zm1 1-1-1q2 0 1 1m0-2zm0-2zq0 0-1-1m1 0q1 0 0 0m-7-7zv-1zq-1 1 0 0m-1-9h-2zm-1 1h1zm0 1q-1-2 0 0m2 0zm1-1q2 1 0 1zm2 3q1-1 2 1-1-1-1 1zc-1-1-2 1-2-2v1zm-1-1zm1 0zm0-10 1 1zm1 1q0 1 0 0m0-3zc1 3 4 2 1 1l1 3c-1 0-3-5-3-2zq-2 0-1-1m3 1zm3 3zq1 1 0 0h-1v-1zm0-8c5 1 0 1 0 1zm4 2zc0 1-1-2 1 0q0 2-1 1v2l-1-1v-2q1 1 2 0m1 0 2 1v1l-1-1-1 1-1-1zq0 1 0 0m4 0q1 2-1 0v1h-1c1 0-1-1 2-1m-1 3-1 1q0-2-1-1l1-1zc1 0-1-3 2 0zm-4 9v-1zm-1-2 4-2c1 2-4 1-4 2m0 1zh-2q-2 0 0-1h-3 1l-1-2v-2 1c1 0-2-1 0-1v1l2 1v-1l1-1h1q2 1-1 1l-2 2h1v1h1q2-1 2 0m0 3zm-1-1zm-5-7h2zm8-1-1-1zm-2 1q1 2-1 1zl-1-2 1 2zm1-2h-2c-1-1 3-2 2 0m-2 3q2 1 0 0m0 2q-2 1-1-1zm4-1v-1zm0-1zm-1-4h1zm0 0zm-3 2h-2zm-2 0-1-1c-2-2 2 0 1 1m-1-1q-3 1-2-1zm-3 6zm-1-3v-1zm-1-3q1 0 0 0m1 5h-1zm0 6zm1 1zm-2-6zm1 6zm7 6zm0 1zc1-2 5 1 1 0m0 1zm1-1q1 0 0 0m7-13zq2-2 2 0s-4 2-3-1m-3-3zm3-6zm1 0q1 0 0 0m1-1zm1 1q2 0 0 0m2 2q-1 0 0 0m-17-6 1 1q-1-1 0 0zm-11-7h1zm1 0 2-1q1 1-2 1m8-1c-2 0 1 1 0 1q-1-2-2 0l-1-2q2 0 1 1zm1-2zl-1 1zm1 3h-1c-2-2 1-2 1 0m-1-2 1-1zm-3 2q1 0 0 0 2 0 0 0m0 1q1-1 0 0m-2-1q1 0 0 0m-1 8 3 2h-2zm0 4zm-18 16zm0 1q0-1 0 0m-1-2h1zm-5 1q0-1 0 0m1 1zm0-2zm-8 6-2-1h1v-1q2 1 0 0c2 1-1 1 1 2m-14-3-1-1zm-4 21q-1-1 1-1h1q-2 0-2 1m21 9q0-1 0 0-1-1 1 0c0-1 1 2-1 1zm-1-1zm2 0zm0-4q0-2 0 0m-5 6-2 1v1l1 1q-1-1 0 0 1 0-1 1v-1q-1 2-3-1 2-1 1-1c1-1 2 3 1 0l-1-1h1l1-1zh-1q-1-2-1 0l-2-1 1-1h2q0 3 1 1s3 1 1 2m-3-2q2 0 0 0m2-1zl2 1h-1zm19-7q1 0 0 0m2-1zm2 1h1zm35-20q1-1 0 0m4-1zv1l-1-1h-1q0-2 3 0m-1 1q3 1 1 1zm-1-1zm3 15zm1 0q0-1-1-2 1 0 1 1v-1c0 2 2-1 2 1-1-3 6 0 6-1v-1h1c1 3-4 1-2 4l-2-1c2 1-2 0 1 1v1h-2v-1h-1l1 1-2-1h-1zq-1 2 0 0m2-6 1 1zm2 3v-1h1v-1q1 2 1 0l1 2zq-1-2 0 0m0-2q1 1 0 0m7 4h3q-1-1-1-2l1 1c0-2 5-1 2 0v3q-1-2-3-2v2q0-1-1 0h-2q2 0 0-1v-1zm6-6q1-1 2 2zm8 18-1-2h1q0 2-1 3-2-3-1-3zm-1-5q0-1 0 0m1-9 2 1h-1v1l-1-1zm3 5q0 1-2 1h-1zm-1 1zm-5 0-2-2q0 0 3 1zm0 4zh-1v1l-1-1 1-1h-2c2 1-1 2 1 2-2 2-2-1-1 1l-1 1-1-1v1h-1c0 3 0 0-1 0v1q-1 0 0 0h-2l1-1q-1 1-3 1l1 1h-2v1l-1-1v1l1 1q-2 0-1 1-3 1 0 4l1-1v-1l-1-1h1l2 4h-2c1 0 2 4-1-1h-1q1 1 1 1h-3v4c0 2 0-1-2 0q2 1 0 1c0-2-2 0-1-2q-3 0-4 1l-1-3-1-1 1-1 1 1q0 2 0 0-2 0 0 2-1 0 0 0l1-2v1q0-2 1-1v-2h-2q2 0-1-1c1-1 2 2 4 0q1 0 0 0l1 1q1 0 1-1 4-3 2-4 0 4-1-1l1 1h1q-1 1 0 0l-1-1c3-1 0 0 0-1h2v-1 1l2-1h2l-1-1 1 1-2-2h3v-1q1 0 1-1 1 1 1-1v1l2-1v-2l-1 1 1-1q0 1 2 1h2c3 3 3 1 1 2q1 1 1 1zm0 3zm-3 2h-1zm-2 10h1c-1 1-1-2-2-1zh-3q3-2 2-3l1 1zm1-2q2 2-1 1zm-1 0zm4 3v1q1 1-1 2v-2zm2 3zm2 2zm0-2zm-2 0zm0 6 2-1 1 2-1-1c1 2 4-2 2-2h-2c3 0 0-1-1-1v-1h1v-1q0-1 1 1h2v-1 2q-1-1-1 0v1q2 0 4 2l-2 1q0-2-1-1 1 1-1 3l-1-1-2 3q0-1-1-1 1 1 0 0l-2-1v1h1s-6 6-8 3l-2-1v1c6 1 2 2 2 1q2 2 3 0l2 3q-2 0-1-1h-2v1q-1-1-3-1l1-1h-1q-1 1-1 1c0-1-4 1-2-1h1l-1-1q1 0 0 0l-1-1v-1c2 1 0-1 3-1h-1l1-1 1 2q2 0 2-1l-1-1q1 1 1-1h1-1v-1l-1 1q0 1-1 1-3-1-1-3c0 3 0 0 3 0l1-2q1 1 1 1h2q-2 1-1 1v-1q-2 2-2 2v1h2q-1 0 0 0l-1-1q2 0 3-1v-2zm-15 9zq3 0 1 1m1 1zm-3-3-2 1-1-2q1 0 1-1l-1-1q0 1 0 0 1 2-1 0v1l-2 1-3-2h2l-1-1 2-2v1l1 2q3-1 4-2l-1-2q-1 2-1 0t1-2h1v-2h2l1 1v-1 1l1 1c-3 0 1 0 1 1h-2l-3-2 2 2h-3l2 2-1 1v1h1-2q0 1-1 1c1 1 4-2 3 0l2 2zm0 2zm-2 1zm-1-3c2 1-1 1-1 1zm0 9h-3l-1-1h-1q0-2-1-3v-1c0 2 0-1 1-1v1q1 0 0 0l1 1 1-1v3c0-2 3 2 2 1h-1q0 1 2 1m-4 0zl1 1 1 1zm-3-1h-2zm-1 5q-2 2-3-1 0 1-1 1h1q0-1-1-1h2q1-1 0 0h1zq-1-1 0 0m-4 4zq2 1 0 0m1-1-1-1q1 0 0 0l-1-1q1 0 0 0v2q-2-2 0-1l-2-2h1l2 1h2v1-1q-1 0 0 2zm-2 1-2-3q2 2 2 3m-3-1 2 1c-2-1 0 0-2 1l-1-1zq2-2 3 0zm-1 3zh-1q2 2-2 3v-1h-2l1-1c0 2 2-1 0 0l-1-1q2 1 3-1v-2h1q0 2 0 0l1 1 2 1h-2c0 2 2-1 1 1m-1 3zl-1 1zq-2 0 0 0m-2 8q0 1 0 0v1c-1-1 0 2-1 0zm1 3q1-1 1 1h1l1 1h-1v1l-1-2 1 2q-2-2-1 0l-1-1h-1zm2-2v2q-2-1 0-2m-1 0q0-1 0 0m2 1 1 1zm0-1v1zm-4 7q2 0 0-1h1l1 1c-1 0 0 3-2 0m-1 4h-2q1-2-1-2v1q0-2 1-2v1q1-1 1 0v-2l2 1c0 1-3 3-1 3m-3 0q1 2 0 1zm0-1zm-1 1q0-1 0 0c-2-2 2-2 0 0m1 1zm-3-6-1 1 1 1q-2 0-2-1h-1v1h-1l1 1v1q-1 0-1-2v2h-1l-1-1c1 3-5-1-3 1h-4v-1h2c0 3 2-2 3-1v-2 1l-1-1-1-1q1-1 0 0l2 1c-1-1 2 0 0-2 2 0 3 3 3 1h-1l-1-1h4l1-2 1 1q-3-5 0-1-2-3 1-1v-1h2v1q2 0-1-2l2-1-1-1q2 1 0 0l2 2q-3 0-1 2 2-1 2-2v1l1 1v3l1 1c-3-2 0-3-3-2l-2-1-2 1 1 2h1l1-2q1 2 2 2l-1 1q-2-1-3 1 1-3-2-1zm-16 11-2-1 1 1h-3q1-1 1-2l-1-1h-1 1v-1l-1-1q1-1 1 1h1l-1-2q1 0 1 1l2 1q-3-1-1 1h-1q0-1-1-1l1 1h3l-2-1 1-1c1 2 1-1 2 3h-2zm-5 0q-1-1 0 0l-1-1 2 1zm-1 1zm-1-10 1 1zm-3 7zc-2-2 1-2-1-3h2l1 1v1l-2-2q1 2 0 2m0-3zm1-2q2-1 0 0m1 2zm0 4zc1 3-2 0 0 1m0-1h1zm0-12-1-2h1l1 1h-1zm-1-2q1 0 0 0m1-2 1 1-1-3h-3 2-2q0-3 2-1v-1l-2-1 2 1v-2h-3v2h-1v-1l-5 2q0-3 2-2 0-2-2-2v-1l-1 2c-2-2-1 1-2-2h1q0-1 1-1h1q0 3 2 2c0-1 1 2 0 0q-2-1 0 0v-1l1 1h3v1l3-1q0 3 3 0l-1 1q3 1 1-1 2 0 0 0v1l-1-1q1 0 0 0l1-1v-1l-2 1v-2l-1 1c2 4 1 1-2 1v1l1-1v-2l1-1v1h1l1-1v-1c2 3 1 0 1 0l2-1h-1c2 1 2-2 2-1-2 2 2-1 3 2v-1q2 0 2 1v1c0-3 4-2 2-4 0 2-2 0-1 2h-2q2-3 5-1l2-4q-1 1-4-1 1 0 1-1l1 1q0 2 0 0c-2-1 1-1 1-1l1 1q0-1-1-1h1c1 1 1-2 2-1v2l2-1c0 2 1-1 2 0h-1l-1-1q2 1 2-1h-1l-2-1q0 0-1 1c0-3-2-1 0-3 1 1-1-2 1-1q1 2 2-1l1 1q0-1 0 0v1l3-1-1-1q2-2 0-2h1l1-2 2-1v1l1-1c-1 0 2-2 0-2q0-2-1-2h2l-2-1q2-1 1 0 1-1 2 1v-1c-1 4 1 0 3 0l-1 1 1 1h-1l1 1c-1-1-1 2-2 1l1-1h-2q1 1 1 2l-1 1c1 1 1-2 2-1q-1 0-1 2l1-1q0-1 1 1l-2 1 1 1v-2q-3 1-2 1c-3 1 0 3-2 3q2 0 0 0v-1h-1q0 1 1 1h-1l-1 1q0 1 1 1v1l-1 1v-1l-2-2v1l1 1c-1 1-4 0-1 3l-1-1q-1 1-3 2l-3 1q2-1 2 1 1-2 0 0l1 1h1v-1h1l-1-1h-1c2 1 1-3 3 0h1l1-2c1 3 1-2 2 1q-1 0 0 0v1q2 1 0 0l1 1q-1 0-1 1-2-1-3 0h2v1h-1l-1-1h-1v-1l-1-1v1c1 3-1 0-1 1q1 1 0 1l-2-2q-2 3-2 1l-1-1 1 1-2 1q0 1 0 0h-1v1h2l-1 2-1-1c1 2-1-1-2 0 2 0-2 1 1 1l1 1q0 1-1 0v1c-2-1 0-2-2 2q-2 0 0-2l-2 1q0 1 1 1 0 1 1 1l1 2-1-2v2h-1q-2-3-2-1h1q-1-2-2-2h1v-2l-1-1q-1 0-2-1 0-1 0 0v2h1v2l1 1-1-1q0 2-1 0h-1v1h2q-1 0-3 1l-1-2v2c2 1 1-2 3 0-2 0 0 2-2 1h-3 1-2l1 1h-2l2 1q0-1 1 0 1-2 1 0h1v1h-2l2 1h-3q0 1 1 2h-1zm-2 2zm1 1zm-2-3zm-8-6zh-1q-2-2 1 0zm-3-2zq-1 1-2 1v-1h-1q0 1 0 0c-2-1 2-2 1 0h2q1 0 0 0zm0 1h-1zm-2-1zm-2 5q-1-1 0 0l-2-1v-2l1 2h1zm-4 1 2 1v-1zh1v1q2 1 1 3l-1-1 1-1zm4-5q0-1 0 0m1-1q-1 0 0 0m-2-9q0-1 2 1zm5 1 1 2h-1l-1-1-1 2q-3-2 2-3m1 6q1-3 2-1c-1-2-1 3-3 0l1-1zm2 1s-2-3 0-1zm0-2h2c-1-1-2 2-2 0m2-1zm0-8zv2h-2q2 0 1-1v-1h-2q0 2-1 1l1-1c0-2 3-1 1-3l1 2zv-1c2 1 2-2 2 1h-2m-3 1q1 0 0 0m0 1q0 1 0 0m8-3v-3h1l1-2v1-1l1 1q0-2 1 0v1q1-1 0 0 2 0 2-1 3 0 2 2c-1-1 1-1-2-1 0 1 6 1 2 2q2 1 0 1l-1-1 1 1v1q-1-1 0 0l-1 1v-1q1 2 1 2h-1l-1-2-1 1q1 0 2 1h-3q-2 0-2 1v-1h-1l-1 1v1q-2-2-2-1v-3zq0-2 1-1m3 7zh1v1zm-1 1q2 0 0 0m1-1q-2 0 0 0m2 3zm-1-3zm-5 5zq1 2 0 0 0 1 0 0zm0-6-2-1v-1l2 1zm1 5zm-2-11zm-1-1h-1zm-2 0zh2zm2 10q1 2 0 0-1-1 0 0m15-15 1 2q-1 1-1-1zm2-4c0 2 0-1 1 0q0 1 0 0v2q-2 0-1 1 0-2-2-2zm3 3q0-1 0 0zh-1q1 0 2-1zm2-1-1-1zm0-2q0-1 0 0m0 1v-1h2l-1-1q2 1 1 2l1 1h-2l1 1h-3q2 0 1-2m4-1q-2-1-1-2 0 1 1 2m2 3-2-2h2q-1 2 0 2m0 0q2 1 0 0 1 0 0 0m6-9zq0 1 0 0l-1-1zm1 4h-2zm0-1zm-2 1h-1l-1-1zh-1zm0-3zm0 2zm1-2zm0-1q0-1 0 0m-1 0-1 1c1 3-2-2 1-1m-1 7v-1h-1q1 0 1 1m0 0zm-2-6 1 1zm1 5q-1 0 0 0m-1 1v-1zm-1-3c2 3 0 0 0 0q-1 0 0 0m1-3-1 1q-1-1 1-1m-3 8q-1 0 0 0m-1 2zm-1-2zm0-3zm-2 6zl1 1c-1-3 3 2 0 0 1 2-5 0-1 0l-1-3c0-1 1 2 2 1m-3 3zm0-4 1 1zm1 4q1 1-1 1zm-3 3 1-2zm-1-2h1zm-2-3h2zm2 4q-2 0 0 0m-2 0zm1-3zm0-3zm1 0zl1-1zm1 1zm0 0zq-2 0 0-1m-1-3q0-1 0 0zm-2 5zm1 0h-2zm-1 4q-1 0 0 0m0 3v-2zc0-2 2 0 1-2h2l1 1q0 3-3 1l1 2-1-1-1 1h-1q1-1-1-2zm24-25q1 0 0 0c-4-5 0 1 0 0m1-5q3 1 0 1c1 2-1-1 0 0h1zm2 1zc3-1 0-1 0-2zm3-7zv2h-1v-1q0 1 0 0c2 0-1 0 0-1m2 3q0-1 0 0h-1zm3-8q2-1 3 1h-1q-1 0 0 0zq-1-2 0 0m2 0zm1 3q1 1-1 0zm-1 3q0-2 0 0m0-4q1 1 0 0m-2 11v2l1 2q2-1 2 1l-2-1-1-1h-1l-1 2h-1v-2l-2 1h1l1-2 1 1v-1c-1 1-1-2-1-1l-2-2 2-1c-8-4 2 0 2 2q2 0 3 2v-2l1 2q-2 0-2-1zm-2 12 2 1zm1 2zm0-4zc-2-2 1 0 0 0zh2zm1-4zv1q-1 1-1 2-2-2-1-2l1 1zm-1 1zm3 4q-1 0 0 0m0-3q0 1-1 1zl-1-1h2zm0-2v-1c3 1 0 1 0 1m-6-7v1zm-2-6v3zm2 3 1 1zm2 0zm1 4-1-3c1 1 8-1 1 3m1-7q-2 0-1-1zm-1 1q2 0 2 3zm0-3q1-2 2 0zm0-1q-2 0 1-1zm1-2h1zq0 1-1 1-1-1 2-1m0 4h-2q1 0 0 0c-2-2 2-1 2 0m-5 1q-3 0 0-1zm0 7zv1l-1-1zm-1 3zm-1 3 1-2 2 3 1-1q0 1 1 1l-1 1q1 0 0 2h-2v-1c0 2-1-1-1 1l-1-3h1q-1-3 0-1zm6 17zm1 1q1 1-1 1zm-1-1q0-1 0 0m-1-5c-1-3 0 1-1 0h-1q-1 1-1-1h-1q5 0 5 1zm0 6-1-1zm-1 1q-1-1 0 0m0-2zq-1-3 1-1-1-1-1 1m-4 0 1 1 1 1h-2zm2-2zm0-1c-2-3 1 0-1 1v1h-1v1l-2-2c0 3-1 1 1 2l-1 1-1-1-1 1q3 3 1 0h3v2l-1-1c2 3-1-2 0 1h-3l1 1-1-1 1 1-2-1 1-1h-2 1l1-1-2-2v-1q-1 1 0 0c0 1 4 2 2 0h1l-1-1 3 1-1-1c1 2-2 0-1-1l1 1-1-1 1-1 1 2-1-1 1 1h1l1-1-2-1v-1l2-2h2v1q-2 0-2 2l1 1q0-2 1-1 5 4 0 1v1l1 1h-1q1 1 0-1zm-3 6q1 0 1 1zm-4 2zm0-1q1-1 1 1zm1 2 1 2q-2 0-1-2m-1-1q-2 0-1-1l-1-1h1zm-3-3zq2 1-1 1m0-4zm1 2zm0 2zm2-5q0 1 0 0zc2 3-3 1-1 0m1-4zm-1 0zm1 1q1 1 0 0m-1 0q-1 1 1 2h-1zm0 2q0 2 0 0m3-6q-2-1 1-1h1q1 0-1 3c0-1 3-2-1-3zm1-9zc1 2-1-1 1 0zm0 2q-1-1 0 0m-1 1q1-1 0 0m3 6zm0 0q2 1 0 1 1 0 0-1m2 1q-1 1 0 0m-1 2zm1 5zm1-6zm1 0q0 1 0 0m-3-5q-2 0 0 0-1 0 0 0m-2 0zh1q1 0 0 0h1q0-2 3 0c0 2-2-1-2 0l1 3q-3 0-1-1l-1-1h-1l-2-1v-1zm-2-9zm0 0zm1 3q-2-3-3-2l1 1h-1q1-3 1-1 4 0 2 2m-2 1zm-1-5zm0-1zm-1 5 1 1zm0 3zm-6 17zm-1 1q-2-1 0 0-1 0 0 0m5 11h-2zc0 2-3 0-1 2h-1q2 0 2 1h-2v1l-1-1-1 1v1l-1-1q-1-2 1-2c-2 1 1 2-2-2q4 0 0-1v2-3q2 0 0 0l4 2-1-1q1 1 0-2l2 1q-1 0 1 2m0 1zm0 5zm-7 3h-1zv-1zm-2-1c-3-2 0-2 1-2l1 1q-1-1-2 1m-1 5c0-1-1 1-2-2q2-1 2 1c-3-2 1 1 0 1m-4-6 1-1q-1 0 0 0v1zm-1 6q1 0 0 0zq3-2 2 1zm-1 5q-2-2-1-2c1 2-1-1 1-1zm-2-12q0-1 0 0l-3-2h3zm0 2zm-3 2c2-1-1-1-1-1l1-1q2 2 0 0 2-1 2 2zm2 1zm-3 9zm1 1zm0-2q-3 0-2-1zm0-1zm-2 2q1-1 0 0 1 2 0 0m0 0zm-1-3q0-2 1 0zm-1-2 1 1q-1 1-1-1m-1-2q-1-1 1-2-1 3-1 2m0 9zm0-5v1zm0-3q0-1 0 0m0-4zq-2-1 0-1l1 1q2 1-1 1m2 2v-1c-1-2 2 1 0 1m0 3q2 2 0 0 2 0 0 0m3-9zm0 1zm-1-3q1 1 0 0m0-2zm3 6zm0-1q0-1 0 0m1-3c-2-3 1 0 2-1zm1-3zm1 16zq1 1 1 0l1 1zm2-14zm0-1zh1zq-1-3 1-1h2q-2 0-1 2c0-3 1 0 2 0l-1-1v-1l-1-2h2l2-1q0 2-1 1l1 2-1-1h-1s-3-2 0 2v1l1-1c1 0 2 3 2 0q1 2-1 1 0 2-2 0l1 1h-2l1-1h-3m3-4zm2-2-1 1v-1zm1 5-2-1zm0-2zm-4 8v-1h1q1 1 1 2zm0-3zm1 1q-1 0 0 0m0 0h-1zm-2 1zm2 1v1l-1-1zm0 4h1zm4-8h1zm0-5q0 2 0 0m1 11q2 0 0 0m2-16h-1zm0 0q1 0 0 0m1 1v1zl2 1q-2 2-1 0-2 0-3-1zm1 2q0 1 0 0m-2-1s-1 3-1 1v-1zm-1 2q0-1 0 0m-9 0zv-1h1q-2-1 0 1m-11 7zm-2 5zm0 4zm0 11 1-1v1q1-1 1 0zm8-4zq1 0 0 0zm-1-3zm1 10q0-4 0 0c-2 0 0-2-2-1q1-3 2 1m0-11q-1 0 0 0zh-2c7-5 5 2 3 0m15-7q1 0 0 0m5 2zm-1 2q3 1 1 2 0-2 0 0zm2 4zq1-2 1 0m-3-5zm-2 4h2zm0 2q0-1 0 0m0-3zm-1 4 1 1zm6-18zq1 0 0 0l1 2v-1c0 2-2-3 0-2m0-1zm12-13v1zm-1-6zm-1-1h3zm3-2-1-1h4q0 2-1 1l1 1q-2-1-3-2zm3 3zc1 2-3 2-1 0l-1 1c0-4-1-1 1 0m0-3zm0 4q0-1 0 0m0-3q-1 0 0 0m-2 3zm0 2v1zm0-1zm3-19h1l1 1h-1l-1 1q-1 1-1-1 1 1 2-1zm3-1zq2 0 1-1m1 3zm-1 3-1 1zm-1 0zq-1 0 1 1m-3-1 2 2zm6-2zm2-5zm-1 5q0 1 0 0m1-6q1 4 1 2h-1zm4-8 2-1q-1 0-1 2v-1h1q1 1 2 1l-1 1v1l-1-2q0 1-1 1l1 2q-2-1 0 0l-1 1v-1l-1-1h-1l-1-1q2-1 2 1l1-1q-1 0-1-2m6-1zl-2-1q1-1 2 1m-1-2zm0 8-1 1q0-1 1-1m0 6-1 1h-2l1 2c-2-1-1-5 0-4zm-1-2zm2 7 2 2q0 1-2-1zm3-3zh1v2h-1q-2 1-1-1h-1c-2-3 1 0 1-1m1 3q-2-1-1 1l1 1h-1l-1-3q2 2 3 1zm-4 1zm-1-2q1 0 0 0m-3-8zm0 0zm0 4h-1zm0 7 1-1zm0 1v-1zm1-11v-2l1 2zm0-7h1zm0-3q0-1 0 0m-1 6zm-2 6q0 1 0 0m0 1h-1zm-1 0zl1 1 2-1-3 1-1-1zm-1 3 1 1q1-2 2 0-3 1-3-1m0-1zm-1 1zc0 2-3-1-1 0m1-2zm0 2zm-1-7v1zh1zm0 13zm0 4-1-1zm0-5zm3 4zm11-10v1zm0 0v-1zm-1-3zm0-1zm-1 4q-2 0-1-1zm-2-5q0 1 0 0m-17-12q-1 0 0 0zm1-1zm0 1zm-1 0q0 1 0 0m0 1zm-1 1zm0 3v-1zm0 0q-1 0 0 0zv-1q0-1 1-1v-1q2 0 1 1 1 1 0 0h-1v2h-1v1c0-1-3-1-1-1m2-4q1 2 0 0m1-7h1zm1 6q-1 0 0 0m-4 6c-1 3-2 0 0 0q-2-1 0 0m5-12q0-1 0 0m4 0zl1 2-1-1 1 3c1-1 0 2-1 1q1-2-1-1l-1-2v-1 1q0-2 1-2l-1-2c0-2 1 2 3 1m1 1zm0-1q-2-1 0-1zm0 3q-1-2 0 0m-2-4q-1 0 0 0zm4 1zm2 0-1-1zm0-2q1 0 0 0m0 1q0 1 0 0-1-1 0 0m1 1zm0-2zm-1 3zm4-1c-1-1 2-1 0 0q0-1 0 0m0-3q0-2 1-1zm1 1h-1zm3 4v-1zm-2-5zm0-2q-1-2 0 0m-1-1q1-2 1 0zm-1 0zm-1 0q-1 0 0 0m-7 4h-1zm-11-1c3 2-3 3-2 2q0-2 2-2m-5-2q1-1 1-2l1 1v2zm4-2q-2 0 0 0m0 0zm-1 1c-1 1-2-3 0 0m-2 2 2 1zm2 3h-1q-1-1 1 0m1-4zm0-3zl-2-1zm-2-3zm1 1q-2 0 0 0m-1 0zm-2 4zm-2 8q-1-1 0 0m-1-2-1-1zm-5 3q1-2 3-1zm3 0q0 1 0 0m-3 3v1zm0-3q0-1 0 0m-2 7 1 1zm0 1h-1l-2-1h2l-1-1zm-3-2-1-1zh-1l1 1h-2v1h-2c2 2-1 0-1 2q-1-1 1-1 0-2 1-3-2 1-2 2l-1-1c-5-2-3-3-2-1q-2 0-3-2 2-1 3-1c-3 0 1 2 0 2h2q-1-1 1-1h1q-1 0 0 0l1-2v1h2v-1c2 2-2 1-1 3q3-2 1-3l-2-1h3q-1-1 1-1h1l-1 2 1 1q0-2 1 0h-1v2q0-1 0 0c2 2-2-1-2 0zm-4 6h-1q0-1 0 0-1-1 0-2l-1 1zm0 1q0 1 0 0m-2 0zq0-1 0 0m-3 0zq1-1 1-1m0-1zl-3 1h2l-2 1h-2v1h-1v2q2 2 0 1v1-1h-1v1q-4 1-1 1h-2v1q-1-2-2-1v1q0-1-1 0l-1-1 2-1v-4l1 1q-2 0-1 1v-1l1 2h1l2-1h-2 1v-1q-2-1 0-1l-1-2q2 2 1 0h2q-1-2-3-2 2-2 3 1 1 0 1-1 0 3 2 2 0-2 1-1-2-3 1 0 3 0 0-1v-1l-1-2-2 1 1 2q-1 0-1-1l-1-1-1 1v-1h3l-1-1h1c1 2 2-2 5 1q-1-1 0 0l-1-1c-2-3-2 0-4-2v1l-1-1v-1h1l2-1q1 1-1 1l4 1h-2c1 2 2 0 2 2v1q2-1 0 0h2q2 1 0 1l1 1zq0 2 1 1zm-2 7q1 1-1 1l-1-2h2q1-1 2 1l-1-1q1 1-1 1m-8 7q-1-1 0 0l-2-1 1-1-1-1h1l1 1 2 1-2-1zm1-3zm0 0q0 2 0 0m-9-7v2l-1-1c3 3-1 0-1 0v1h-1q-1-2 1-1-1 0-1-1v-1zq-1 1 2 2h-2 1zm-1 2q0 1-1-1zm-2-3zm3-1zm-1-1q0 1 0 0m1 0zm1 2zm0 1zm1-1 1-1 1 2zm4-5 1 2h-1v1q1 2-1 1l1-1c-4-2 1-2 0-3m0 5zv-1l-1-1q1 0 2 1m1 3c-1 0-2-3 0-1zm-3-1zm-1 0q1 1 1 1v1zm6-8zm3 5-1-2h2zm-1-8zm1 2zq1 1 0 0m3-4h-1zm0-2zm5 7h-2v-1zm0 5zm3-3q0-2 0 0m-2-1h2zm2 0 2-1zm-7-12zl4 3h1l-2-1v-1h3l-1 1c2 3-3 0-4 0l1 1h-2 1zm3 4c0-1 4 2 2 2l-1-1zm0 1h-1zm-1 0zm5-5q0 1 0 0m0-1zm0 2zm3-4 2 1c-1 1 3 1 1 2q0-2-2-1zm4 11q0 1 0 0m-1-4q0-2 2-1v1zm1-3c2 1-2 0-1 3q-1-1-1 0 0-3 1-2l-1-1zq-1-1 1-1c2 3-1 1-1 1m1 0q0-2 0 0m-1-2zm-4-6-2-1zm1 0zq0 1-1 1m1 2 2 1zq-1-1 0 0m4-1zm6-2zh-2q0-2 1-1 0-2 1 0m0-2zm-2 5 1-1zm2 1zq0-2 1 0m-1-3zm-6-4q2 1 0 2zm-36 28zm-1 4zq-2 0 0-1m0 1zm-3 0zm1-6q1 0 0 0m-4 9h-1zm-2 0v-1zm-1 0zl-2-1zm-1-1zm13 3q1 1 0 0 1 0 0 0m-2 2zm0 0zm-5 3zl1 1c-2 1 1 1 1 1h1l-1 1q-1-2-3-2m-1-2v1zm2 0q0 2-2 0 0-2 2 0m-1 3zm2-2c-1 1-2-2 0 0q-1 0 0 0m-5 5zm-1-3 1 1zm-2 2q0 2-1 0zm-15-5zq3 3-1 1v-3l1 1zl-1-1c1 1 5 3 3 0l1 1v-1l1 2q-3 2-4 0zm-6 9-1-2q2-1 1 2m-1 9 1 1h-1q1 0 0 0zl1 2-1-1q0 0-1 1l-1-2q1-2 1 0h1v-1l-1-1zl-1-1zm-2-13q-3-2 0-2zm-1 13v2zm2-15zm-5-1q3 1 1 1zm16 35-1-1q1 0 0 0zh-2c-12-14-1-2-2-8l1 1v-1l-1-1v1-1h-2v1l1 1h-1l-1-1h-1 1c-2 0-1 1-8-7q1-2 2 0v-2 1l1 1v-1s3 3 0-1h1q0 2 2 2v-1q2 0 3-2h1v-1c2 2 1-1 2 0l1-1h-1q0 0 1-1h-1c0 2-2-3 1 0l-1-2 2 1-1-1-1-1q2 1 0 0h3v-1l1 2q0-2 1 1v-2 1l1-1q0 3 3-1l1 1 1 1h1v-1l-1-2q0 3-2 1 2 0 2-1h-3 4v-1h1l1 1-1-2v-1 1h-1l-2-3q1 2 0 0h-1l-1-1-1 1 1 2h1v-2q2 2 3 2-2 0-2 1h-1l2 1c-3-1-1 0-3-3q-2 1-1 2v1h1l-2-1v1c-3-2 1 1 0 1q-2-1-1 0 0 1 0 0l-1-1c1 3-5-1-3 1h-2l-1 1c-2-3-1 0 0 0q-1 1-3-1 1 1 2 3h1-2l2 2-2-1 1 1h-3l-2-1c2-2 2-6 4-3l1-2q-2 2-3-1h2q3 2 2 0h-1v-1l-1 1v-1h-1c3-4 2 1 4 2v-2c-1 0 3 1 0-3h-1q6-1 4-2h3v-2 1c-2-1 1 3 1 2v-2c0 2 3 2 1 1q1-1 0-2h2l-1 1 1 1-1-1c2 4 1 0 2 1q1 2 2 0h-1q1 2 0 1v2l1-1 2 1 1 1v-1 1q1 4 4 1 1-2-1-2l3-2q1 0 1-2l1 2-1 2-1-1v-1l-1 2q2-1 2 1 2-1 3-2l-1-1 1 1 1-1 1 1h1l-1-1 1-1-1-1c2 0-1 0-1-1q1-1 1 0-1 0 0 0l-1-1c3 0 1 3 2 1l1 2q-1-1 0 0h2l-1-1-2-1h3q-1 0-1 1h1l1 2v-1c2 2 1-2 3 0q1 0-1-1 2 0 1-1 1 0 3 1v-1l-2-2c3 2-2-1 0 0q0-1-2 0 1 0 1 2l-2-2v2q0-2-1 0h-1l-1-1h-1l-1-1q5 1 9-2l-2-2q1 0 1-1c2 1-1 5 2 4v1q1 0 0 0h2l1-1-1-1 1 1-1-2h2v1l1-1 1 1-1 1 2-1c-3-2 2-2 1-3q1 0 0-1 1 1 1 2l1-1-2-1q3-1 4 1l-2-2h2l-1-1v1q3-1 3-3h2-2c2 0-1-1-1-2v2h-1q2 1-1 1 0-1-1-1l2-3 1 1v-1c2-1 3 2 2 0h1l1-1v-1h-1 2l-1-1h3l-1-1 1-1v3c3-1 0-3 4-3q-2 0 1-1l-1-1 1-1v-1c1 2-1-2 0 0h2l-2-2 1-1 1 1h1q1-2-2-1l3-1v1q-1-1 2-2-1-1-1-1l2 1c-2-3 3 0 1 0v-1q-2 2 0 2c-2 2 2 1 1 0l2-1 1 1v-1l-1-1c2 1 4-2 6-1l-3 1q1 2-1 2v1c0 1 0-2-1-1v1l-1-1 1 1q-2 0-1 1 2 1 0 0c1 2-2-1-1 1q2 1-1 1h1l-1 1v-2l-2 1 1 1h-2c-1 1 2 3-2 2v1s4 3 0 1h-2q0 3-2 1l1 1h-2c2 0-2 1 1 2h-1l-1 1q3 1 0 1-1-1-1 0l-1-1c1 1-2 1 0 1q-1 0 0 0l1 1v2-1l1 2-2-1q-1 3-1 0l-1 1q-1-1 0 0c1-1 1 2-1 1l1 1h1q-1 2-2 0-1 1 0 1l-2 1 1-1 1 1v1l-3-2 1 1q0 1-1 1h-1q1 1-2 1v1c-1-1-6 1-1 1l1 1 1 1-3 1-1-1q-1 0 0 0h2v-2l-3 2q0 2-1 0h1q-1-1-1 1h-2l-2-1 1 1h-1q2 1 0-1h-1l-3 1v2l1 1q-1-1-2 0h-1v-1q-1 2 0 2 0-1 0 0v1c-1-3-2 0-3-1h-1q1 0 0 0 1 2 4 2h-5v1l-2-2q2 0 0-1l-1-1h2q-1 0 0 0l1 1v-2q-3 1-3 1l-3 2-1-1h-2q0 2 1 1l-1 1 1 1v1l-1 1-1-2q1 3-2 1v1q-3-1-2 1h-1v1l-2 1q0-2-2 2h2l1-1c0 2 1-1 1 0v1l4 2c-2-1 1-1 0-2v1l1-1 1 2h-2 1l-2 1q3-1 2 1l1-1v2l-2-1q3 1 0 2 1 0-1-1l-1 1v-1l-1-1h1l-3-3v1c-1 0 1-1-2-1l-3-2v1h1l-2 4v-1l-2-1-1-1v1h1q0 1 1 2l2 1v-1l1 2v-3q2 2 1 4h1c-1 2-3-2-2 1q0-1 1 1v1h-2q2 3 1 1l-3 1h1l1 2-2-1q-1-1 0 0h-2l1 2h1l-1 3c-1-2-1 2-3 2m-4-20q0-2 1 1-2-1-2-1 0-2 1 0m28-14zm33-13q0-1 0 0m0-2q-1 0 0 0m-10 12q1 2 0 0m0 0q-1 0 0 0m-40 20zm18 47zm0 1zm2 2zm10 5-2-1 1-4q3 3 1 5m7 15q3-2 2-2c-3 1 0-3 1-3q2 5 6 4c0-1-2-5 1 1q-3 3-10 0m9-6q-1-1-1 1l-1-2 1-1c-1 2 1 0 1 2m2 0c3 0 0-3 0-2h1l2-1c-1 1 3 0 1 2h2l-3 1-1-2h-1l1 2zc3 3-7 3-2 2-3-1 0-1 1-1q-2-2 0-1m4 4-2 1v-2q-1 1 2 1m-5 1v-1q2 1 0 1m84-35v-1h1l1 2zm0-2q0-2 0 0m3 0zc-2-4 8-2 9 2-2 2-5-4-8-2m11-25q-2-1 0 0m0 0zm2-6zq0 0-1 1l-1-1q2-1 3 1m-3-4 1 2q0-2-1 0zm3 3zm0-2h-1q2-2 1 0m2-7h-2 1q1-1 1 0m0-2q-1 2-3 0h1v-1l1-2 1 1-1 1zm-4 2zm0 0zm0-18zm1-3h-2zm0-16-1 1zm1 33zm-1-31q0 0 1-2 2 3-1 2m1 17-1-1zm9 1h-1c0 1 3 0 0 2l-1-1q0 1-1 1l1 1c-1 0-11-1-4-3l1 1c0-2 2 2 0-1h1l1 1 1-1zm-7-26 1-1q1 2-1 2l1 1v2c-1 0 1-2-2-1zm-1-1q1-1 1 1zm3 2zm5-23c-5-1-6 2-7 1q-1 1-1 1h1l-1 1-1 1q2 2-3 3 1 1 0 0l-1 1 1 2q-3 1-2-1-1 2-3 2l2 1h-3l2 1-2 1 1 2c-1-1-2 2-2-1l1-2h-1q1-1-1-1c1 6-1 3-3 5v-2l1 1q1-1-2-1 1-1-1-2l1 1q-3 1-1 2c-1 1-5 1-3 3h-2v-2h1q2-1-1-2l-1 2-1-1q1 0 2-1l-1-1q1-1-1-2h2q-1 0 0 1v-1l1-1q0 2 1 1v1h-1l3 1v-2l-1-1 2-1-2-2h-1l1-1v1l1 1q1 0 2 1l-1-3 2 1q-1 0-1 2l2-1 1 1c-2-1 2-1 0-2h2l1 1h1l-1-1v-1q3 0 2-2 4-2 3 2l1-5 1 1c-3 0-1 3 1-1v1l4-3h-4v-1l-1-1-1 1v-2h-1l-1 1q2 0 1 2 0-2-2-1v-1 1q0-2-1-1l1 1c-1-1 0 2-1 1v-1h-1q1 2 2 2l-2-1-1 1v-1q0 2-1 1v2l1 1q-1 0-2-1l1 2q-3 0-4-1v-2l-1-1q2 0 2-2 2-1 3-2 2 2 1-1l-1 1 1-2q-1 1 0 0l1 1v-2l1 1q-2-2 1 0v-1h1v-1h-2l-1-1q1-1 1-1h-3q1 1 1 2h-2q-1-2-2-1 1 1-2 2l1-1c-1-1-1 2-1-1h-3l3 2-3 2v1h-1q0-2 2-4-1 2 1 2c-2-4-2-2-5-2v-1h2l-2-1 1-1v-2h-2l1-1-2-1q1 0 0 0h-1q2 0 0 0c1 2-3-1-2 2l1-1h1c-3 1 0 0 1 1v-1q1 2 2 3h-8q1-1-1-1 0 0 1-1h1l-1-1-1 1q-1-1-1-2l-2-1 4-1 1-2c2 0 0 3 2 2l-1-1c8 3 4 3 4 1q1 0 3-1v2l1-1h1l-1 2q1-2 2-1 0-5-2-5l3 1q-2-1-1-2l-1 1-1-1h-1v3h-1l-1 1 1-2c-3 0 0 2-1 2q-1-2-3 0l-1-3 1 1 1-2h-2v-1q-3 1-1 2l-1 1v1h-2q-1-1 0 0c-2-1 0 0-2 1v-1 2l-1 1q0-1 0 0l-1 2 1 1v1c0-2-4-1-3 0l2-1q0 3 1 1 2 2 2 3l1-1h4-1v2l1 1v-3l1 2c1-3 1 0 2-2l1 2-1 2q3 1 4-2v1l-1 3v-2l-1 1h-1q-2 0-1-2l-1 2h-3q-1 2 2 3l-2-1 2 3v-3l1 2v2q0-1 1-1v-2q1 2 2 2l-1 1c1 0 0 3 1 1l1 1q-3 0-2 2h-2 1q-1 1-1 2h1l3-1q1 1-1 1c1-4-1 3-3 1l1 1h-1v1l2 2c-4-2-2 0-4 3l1 1q-1 1-2 1c1 0 3-1-2-1v1h-1c1 3-2-1 1 2l-4 2q1 0 1 1l-1-1h-2v-1c0 2 0 0 2 2h-2q1 0 1 1-1-1-1 0h-2q1 0 2 1h-2l1 1c0 2-3 0-3 2q-2-3-3-1-1-1 1-1 0-2-2-2 2-2 3-2c1 1 1-2 2 0l1-3q-1 0-1 1-1-2-1-2h-2v3h-2q0-3 1-2 1-3 3-1l1-1h-3l-1-1 1 1h1l4-2v3-2h2c-1 0 2 0 1-1h2v-3q2 3 1 0c0-2 3-1 1-1l2 1q-1-3-3-2l4-1-1 2q2-2 3-1v-2h-3c0-2 1 1 1-2v-2 1-2h1v2q0-1 0 0h1v-2q-2 0-3-1 2 0 1-1-2 0-2-2h-1q-1 3-4 2 0 3 2 1c-1 2 2 2 0 3-3-1-3 4-5 2v2l-1 1h-1c-3-5-3 1-3-1q0 3-1 2h1q0 0 1 2l-1-1v2l-1 2c-4-1-4 2-4-1h1c-1-2-2 2-3-1q-2 0-2 2c1-2 3 1 4-1v3c0-2 0 1 1 1v-1c1 2 3 0 1 3l-1-1-2-1c2 0 0 2 3 3l-1-1c3 0 0 1 2 2q2-2-1 0l1 1-1 1v-2h-2l-1 2 1 1h1c1 3 3-2 2 4h-2v1l3 2-5-1q2 2 3 2h-2l1 1 2 1h-2l1 1q0 0 1-1 0 2 2 2l1-2v1l2 1q-3-3 0-2l1-2q0 1-2 0l2 2-2-1h-3q1-1 0-1 0 1 0 0h-1l1-1q0 0 2 1v-1l-1-1 2-2c0 2 2-1 1-1q1 0 2 1c-1-3 1 0 1 1l-1 1 1 1q1-1-1-1h2q-2-1 1-2l2 1v-2l1-2h-2v-1c1 2 1-1 2 0-1-2-3 0-1-2h1l1-1 3-2h2c-2-2 2-3 1-1l1-1 1 1c-4 0 1 2 2 1v-1 1l1-1q0 2 1 2h-1l1 1v-2c2-2 4 0 6-2h2q-2 1-2-1 1-1 2-1l-1 1h2q-1 1-1 1l4-2-1-1h2v-1h-1q0-2 2-1c-1-2-2 0-3-2l3 1 1-1 2 5h-1q1 1 0 0c0 4-1 1-3 0l1 2q-2 0-3 1l-1 1 1 1h-1q1-1 3-1-1 0 0-2-1 1 1 1l-2 2c3 0 0 0 0 0h-1c2 1-1 1-1 1q2 1 1 2-2-1-1-3h-3c1-2 0 1-1 0 1 2 2 0 2 2h-1q1 1 2-1l1 3c0-3 2 1 3-2l1 1 1-1v-2h1v2-2l2-1q-1 3-1 4 0 4-1 2 0 1 0 0h-2q0-1-1 1l2-1q-2 1-3 3l-1-2q0 2 2 3l-1-1v2q1-1 1 0h1q0 4-1 8v-1l-2 1c2 1 1-2 3 1h-2l1 2h-1v1h-1v1h1l1 1-3-1 1 1-1-2-3 1c0 2-3-1-2 1q3 1-1 1l1 1h-1v-2l-2 2v1c-4-2 0 4-4 2l-1 2c2 0 2 4 1 2l-1-1h-1v1l1 1v1l-1 1v-1h-2q2 1 0 3l-3-1v2-2q-2 1-1 2h-2 1l-2 1v-1l-1 2v-1q-1 0-1 1 1 0 2 2h1l1-1v-1h1l1 1 1-1q0 3-3 2l1-1-1 1-1 2q-1-2-2-2l-1 1 1-1c2 5 1 1 5 3l2-1q-2-1-2-1l1-1 2-1-1 1h2c3 0-2-3 1-2l1-1q-6 0-3-2 2 1 3 3 1-1 2 1c2-1-2-3 0-5-1 4 2 1 4 2q0-3 1-4l-1-1q1 1 1-1-5 2-5-1l2-1c0 2 3 0 4 2h-1q1 2 1 1v1q-2 1 0 1v1l1-2h1q-1-1 1-1v-2h-2q2 0-1-1h4q0 3 3 2h1c2-3-1-2 0-4q3 2 2 2-2 4-1 7-2-1 0 0l-2 1-1 2q-3 0 0 0h-2q0 2-2 3-1-1-1 0l-2 1 1 2c2 0 1 3 0 1v-1l-1-1q1 3-1 1c1 3-3 2-1 3l-1 1-1 1-1-1h2l-2-1-1 3-1-2h1v-2h2l1 1v-1h-4c1 2-2 1-1 3q2 0 1 1l1 1q1-2 2-1c2 1 4-3 5-2v2c4 1 3-2 5-2l-1-2q0 2-1 0l1-1v-1l-2 1 2-1q0-2 2-1c-1-2 2 0 0-2q2 0 3-1l1 1h-1q3 1 2 2c-4 0 3 1 1 1l-3 1-2-2 1 2h-3q1 1 2 1l-2 2v1h1v1q1-1 1 1-1-1 0 0l1-2 1 4 2-2v2h-1 1q-1 3-2 0c-1 1-4-1-2 2h1l-1 1h-1l-1-2 1 1-1 1-1-1c-1 5 0-2-2-2l2-1-1-1h-1q2 2-1 0v1l-2 2-4-2q3 0 1-2c1 2-2-1 0 1l-1 1-1-1h-3c1-2-3-1-2 1v1q3 0 4-1v2h4v1h-1c0 2 2 0 0 2v-1l-1 1q2 0 1 2l-2 1q1-1 2 0-1 0-1 1h4q0-2-1 0c-1-1 1-5 3 0-1 0 1 6 3 4-6 5-3 4-1 9-6-3 0 6-5 4q3-3 1-7-4 4-3 9h-1v1c1 2 0-2-2 1 2 4 0 2-1 4l-1-2q3 0 1-1h1l-2-2h-1l-2 1-1-1h1q-4 1-3 0c-3 2 0 1 0 2h1v1q-2 2-2 0h-1 1l-3 1h1c-1 2-1-1-2 0l2 2q-2 0-1 1-3 0-2 2h-2l-1 1c-2 2-2 0-1 2l-2-1q0 2-1 2h1v3l-1-1q2-1-1-2v3q-2-2 0-2l-2-1v4l3 1h-2v1-1 1l-1-1-1 1v-1l-1 1q0 0-1-1l2-1v-1l-1-2v2q-1 2-2 0c0 5 2 2 3 6-1 0-1 3-2 0q2 1 0-1h1v-1q-1 0-3-1l1-2c-1 2-3 0-2 2l3 2q-1 1 0 3c-1 0-6 4-4 4l-4-2v2l1 2q-2-2-2-2-1-2 1-1v-1l1-1v1q0-2 1-1v-2h-1l1-1h1l-1 1 2-2q-2 0-4 2h-1l-1 1-2 2v-1c0 3 0 0 1 2-4 3 3 1 1 3 4 0 1 1 0 1q7-1 12-8-1-1 2-1 0-2 2-1l1-2q0-2-1-2l1-1v3c3 1-1-2 2-2l1 1v-1l-2-1q1-1 2 0l-1-1 1-1q2 1 3 1v-1q4-1 2-2 1 0 1-2h-1v-1l1-1c1 0 2 5 2 1v-1l1 1q1-2-2-4l2 2-1-1q2 2 2 3v-3h1q0-2-1-3h3q0 2-2 1l1 1 2-1 1 2q1-1 0 0l2-2c2 4-3 13-5 16 0 2 5 3 4 6h-3q3-2 0-3c1 2-8 1-6 3 5-1 1 4-1 5 2 2 6-1 5 2-5-2-1 1-1 3h-5c3 1-2 3-2 4 5 1-2 4 1 6q3-1 2 1c-8 0-7-8-11 4l-3-3c-9 22 3 5-16 18 1 9-11-11-15-6q-2-2 0-7-2 3-4 2c3-4-6 0-2-5-5 4-5-1-8 4q0-2-3-2c1-3 6-2 4-4q-2 2-2-1v-1 1q0-2-2 0c2 0-2 6-3 4 5-6-1-1-3-3 3-1 1-3 2-5 3 5 3-3 7-1v-2q0 1-2 1 0-1 2-1l-1-1q1-1 3 1 2-1 2-3h-3 1q0-1 0 0c2 1-2 2-2 0h1l-2-1v1h1q-2 0-2 1c-3 2 0-1-1-1v3q0-2-1 0v-1h-2l1 3h-2q-1-1-3-2h1c0-2 5-2 3-3q2 0 3-2c-3 1 1-3 0 0l2-1q2 2 3 1c2 4 1-2 0-1l-1 1v-1q0-2 2-2 0-1 1-1l-1-1h3c-1 0 2-2 0-2l1-1-1-1 3 2c1-1 5-2 3-3 3 0 0-1 1-2l1-1h3l1 1h-1q1-2-1-2h1q0-2-2-1l2-1 1 1 2-1q-2 1-2 2s4-3 3-4h2l1 1c0-6 0 2 1 0q0-3-2-4l2-1s-3 0-1-1q2 1 2 1l-1 1c3 0 2-3 1 0h1v-2q1 1 2 1l1 2-1-2 5-1v2l-1-1q0 2 2 2l-1 1 1 1v-2q3 2 2-1c1 3 0 0 0 0q2-1 2-4h1v1h1l-2 1 2 1 1-2h1q0-1 1-1h-1q2-1 3-1v-2l-1-1v-1l2-1-1 1 2 2-1-1v-1q1 0 2 1l1-3q-2 1-1-1l-3 1 1 1h-1v-2h-1v-1h1l-1-1q5-1 3-4h3q1 2 1 0 1 1 2 1l-1-1h2l-1-1h-1q2-2 4-1-2 0-2 1l1 1v1q0-2 2 0l-2-4v-1l3 3q2-2 3 1 1-3 2-2l1-2q0 1 0 0-3 1-1-1-1 2 1 0l1 1s4 0 1-2l2-2q-2 1-1-2h-3l1-1h1l-1-1 1-1v2q3 0 0-2 2-1 3 1l-1-1 1 1v2c-2-1 0 2 0 1v-1q2 0 2 1l2-1q-2 0-1-1h-2q1 0 1-2l1 2-1-2q-1 0-2 1l-2-2h3l-2-1q1-1 2-1-1 1 0 0-2 0 0-2c-2 0-2 4-3 1 2 0-1 0 0-1l1 1v-2q-2 0-2 2l1-1c0 2-1 0-2 2-1-4-1 2-3 0 1 4 4 2 0 1v2l1 2v-1q-2 0-1 1l-2 1 1-1v-1c-1 1-5-1-5 2h2q-1 1-4-1l1 2-1 1v-1l-1-1q1 2-2 2l2 2q1-2-1-2h4l1 2-3-1 1 1v-1q-2 1-1 2l2-1c-2 3 6-1 6 2l-1 1v-2q-2 1 1 3h-2l-1-1h-1v-1q0 1 0 0v2l-1-1h1l-3-2q0 2-3 1v-1q0 1-1 0v1h-2l2 1q-2-1-2 0h-2l-1 1h-1q-2-2-4 0h2c0 2 2 0 2 2q-2 0-1 2-3 2-2 2l-2-2q-1 2-2 2h-1c-1 1 2 3 0 3v1q2 0 4-1h-1q3 0 1-3l2 1c-1 2 0 0 1 2h-2q1 2 2 0v1l-1 1c-3-2-1 1 1 1l-1-1h2c-2 1-1 4-3 1l-1 1 1 2-2 1-1-2q0 2-1 1h-1v1q-3 0-4-2 3-1 2 1c2 0 0-3 2-2v1l1-1-1-2 1-1c-4-1-2 1-3 1q1-1 1-3h-1l-2 3q1 3-2 3v2l-2-2 1 1-1 1c1-2-1 1-1-1v-1h-1q-1 2-3 1l1 1h-2l2-2 1-1q-1 0 0 0l-2 1v-3l2 1h2v-3h2l1-1v1q0-2 1-2h-2c2-2-1-2-1-1l-1 1v-1q0 2-2 1l1 1h-1l-2-1 1 1h1q0 1 1 1l-1 1-1-1q1 1-1 1v-1q-1 6-4 3v1q0 1 2 1c-2 0 1 1 0 2l-1-1v1h-2c0-3-1 0-2-1l1-1c-3-2-2 2 0-2h1l-1-1-1 2v-2l-2 2q2 1 0 3v-2l-1 1q0 2-1 2l-1 1q2 0 2 2l1 1q1-1 1-2l-1-1h3q0-1 2 1l1-2h-2v-1h3l1 2q-2 0-1-1h-1l1 2-1 1v-1h-1v1q-1 0-1-1l-1 3h-1v-1c-3 0 0 1-1 2l-1-1 1 3q-1 0-4 1c4-3 0-2 0-1v-2q1 2 3 1l-2-1h2l-2-1 1-1q-1 1-1-1c5 2 0 1 1-1q-2 0-2 2l-1-2h-1v1c-1 1-1-2-1-1v3h-3 3l-1 1h-4v2h1l-1 1-2-1h2l-1-2-1 1q-3 0-3 2l-1-1q-1 1 0 0v3-1q0-1-1-1l1 3 1 1c0-3 2-1 1-2q1 0 1-1c0 2 1-1 1-1q1 1 2 1l1-1h2v-1c-4 1 1-3 2 2h2c-2 0 1 2-1 3-1-3-3 0-3 1l-1-1v1c-3 1-1-1-2-3h1v-1q-2 0-3 2c3-2 0 2-1-1v3l2-2c1 0 1 4-1 2v1h1l-1 2-1-1q-1 2-3 2l1 1q-2 0-1 1 0 0-1 1 1-2-1-3 1 2 0 0l-2 1 2-2 1 2q0-2 1-2v-1l-2-1 2-1 1 1q-1-2 0 0l1-2h-1l-3-2 1 1-1 1v-2c-1 1-2-1-1 2-6 2-1 1 0 2h-4l3 1h-3c0-3 0 0-1-2q-1 2-1 1v2q-2-3 0 0h-2v2h-2v-2h-1v2h1v2q-1-1-1 1c-7-3 2-4-2-6-1 2-7 4-9 4l-2-5 3-1q-1-2-2-1 1-1 1-2l1 1c-1-1 3-1 1 4 2-4 4-1 6-2-3-5 0-1 1-2q-5-2-3-3 0 1 1 0h1q-2 0-1-1 2 0 3-3v2l2-1-1-1h2l1 1q-1-3 3 0 1-4 4-3 1-2-2-2v-2c-2 1-3 9-4 2l-2-1c-1-1 0 2-1 0 0 1-1-2-1 0v1q-2-3-1 0h-1l-2-1 2 2h-3l-4 2h2v1h-2v-1 1l-2 1-4-4q3 0 1-1h-1v-1c1 2 1-1 2 0v-3l1 2-1 1 4-1v-1 1q-1 1 1 1v1q4-3 5-4h-2c3-2-1 0 0-2-6 1-2 3 0 2v1c-3-1-2 3-3 0l1-1h-1l-4 1c-1-4-3 3-3 0q2-1-1-1h1l1 1-4 1v1h-1l-1-1q0 3-3 2v-2l-1 1v2h2v3q0-2 0 0l-1 1h1-1l-1-1h1-2q0-2 1-2l-2-1c1 1 4 10-23-24h1v-2c2 3 2-2 4-2l-2-1c2 0-2-3 1 0h1q-1-3 0 0c5 1 2-2 3-2q2 0 0-1l2-2v2q1 0 0-2h2q1 2 1 0c3 3 3 0 6 2h-2l-3 2h-2v1l-2-1 1 2h-1l1 2v1l4-2h-1c-2 0 1-1 0-2l1 1v1q2-3 5-2h1q0-2-2-2h1l-1-1q1 0 1-1h1q0 3 1 3v2l-1-1 2 2q3 0 1 1l1 1h2-2c0 2 2 0 1 3l-1-1q0 1-1 2h1v1c-1 0-3-3-3-1v-2l2 2-1-3h-1l1-1 1 1q-1-1 0 0v-2h-1 1l-3-2 1 1-1 1v-1l-1-1v1c-4 2 0 1 1 2h-3l2 1h-2l-1-2c1 1-2 0-1 1l1 1q-3-2 0 1l-2-1 1 2h-1l-1-2h-1l1 2h1q0 1 1 3l2-1q-1-1 0 0c2 1-1-3-1-2h2q-1-1 0 0 2 1 2 1l1 1h-2l-1-1 1 1h-1c3 3-2 2-3 1 1 1 4 4 1 4v-1l2 1-2 1h1q0 2-1 2 0-1 0 0h-2c-4 6 7 0 9-1l1 1v1c-1-2-2 1-3-1 1 1 4 5 4 2v2q0-1 0 0l-1-1-1 2v-2l-1 2-1-3v2l-1 1-1-2h1c-3-1-3 3-1 4v-1h1q-1 1 1 1v-1c1-1 0 2 1 1v-2h1q-2 2 1 2c0-3 2 0 2-2h2v1-1l1-2h2l1-1c2 2 1-2 3 0q0-1 1-2-1 2-2 0 2 0 1-1h-1q0-2 2 0v-2h2-1l-1-1q2 0 0-1 2-1 4 1v-2l1 2c1-2 0 1 1 1v-2q0 1 1 1l2-1q0 2 1 0c1 3 4 0 3 2v-2q-2 0-1-1c-3-1 3 0 2 2h1-1q5 1 8-5l-1-1h3l1-2c-2-1-2-4 0 0 2 2-2-2 1-2v2-1l-2-2 2 1v-1l3 1-1-1 2-2c1 1 0-3 1-1q0-2 1-1-1-1 1 0l-1-2 1-1h2-1q2 0 2 1 1-1 0 0l2-1-1-1h-2q3 0 2-1h-1l3 1q0 1 1-1c2-1-1 3 1 1l1 1-1 1h2v-1l-1-1-1-1h2l2 1h-1q0 1 0 0l1 3q1-3 2-1c1 0 1-3 3-1q0-1-1-2h1c2 1 1-2 4 0q-2-3 1-2-1-2-3-1l-1-1 1 1c0-3 0 0-3 0 0 1 3 1 1 2q1-1-2-1v1q-2 0-2 1h-1l-1-1v1c-3-2-3 1 0-2l1-1q0-2-1-1h1l-2 1-1-2h-1v2h-3l2-1q-1-3-2-1 2 1 0 0 1 2-1 1 0 2 1 1l-2 1q3 1 1 2-4-5-3-2h-2c-1-2-2 1-2 0-2 1 1 0 1 1q-1 0 0 0l-1 2v-1h-1 1-2v1l-1-1 2 2q-2 0-1 1-1-1-1 1h-2v1q-3 1-2 1-3 2-1 0v-1l-1-1c2 0-1 0-1-1h-1q0-1 1-2l-1-1h2l-1 2h2q-1-1 0 0l-1-2q1 0 1-1l1 1v2-2q0 2 1 1l-1-1 2-1-1-2 1 1q0-1 1 0l-1-2 1 1v-1q0-1 0 0h1v2l2-1-2-1c2 1 0-2 2-1q-1 1 2 0l-1 1h-1c3 3 7-2 3-3q1 1-1 1l1 1-2-1v-1l2 1-2-2 1-1-1-1h1l1 1h1v-1l1-1h-1c1-3 0-1-1-2l1-1-1-1v-2l2 1h-2l2 1v1c-2-1 0 2 0 1v-1q2 0 2 1h2q2 0 1-1-1 1 0 0 0-2 1-3-2 0-1-1c-4 0 0-2 1 0l1-1v1h2l1-1c-1-4 2 0 3 1v-1l-2-1q3 0 2 1h2l-2 1 1 1v-1c1 2 1-2 2 0v-2h2l2 1h1l1-1-1-2 5-2v-1l1 2-1 1 2 1q1 0 1-1 1 3 3 1l1-1v-1q-1-1-1 1v-2h-1q-1-1-2 1 1-2-1-2l1-1q0 2 4 1l-1-1h1c1 2 3-2 6 0v-1l-1 1c-1-4-1-1-5-3l1 1h-2q2-1 0 0v-2q-1 0 0 0 2 0 6-2-1 2-3 2 3 0 5 1h-2c0 2 1-1 1 2q2 0 1-2l2 2q1-1 2-3-2 0-1 1c-1-3-2 0-4-3l1 1q-2 1-2-1-3-1-4 1-2 0-1-2l1 2c1-3-1-1-2-3v2l-1-1 2-3q1 0 1 1c3-1-1-3-2-1q-1 0-2-1 2 2 0 2v-1q-2-1-2 1v-3l1 1 1-1-4-1-1-1 2 1s3 1 1-1l2 1q0 1 0 0 1 1 1-1h1l1 1h2q-2-2 1-2-1 1-1 2l3-1v-2q-1 0-3-1v-2c-2 0 0-4 1-1l-1 1 1-1h1v-1l-2-1h1l-1-1h1l-2-2q0 2-1 3h-1c0 1 3-1 1 2h-4v1q6 0 3 1h-1c3 2 0 0-1 0l1 1h-2l1-1-1-1-2 1 2 1-2-1q-3 0-1 1-2 2-2 0v-1q0-2-3-2h1c1 0 3 4 1 4v-1 1l-1 1v-1q0-2-1 0 1-1 0 0v-1l-2-1v1-2h1v-1q1 0 0 0h-1 2q-1-1 1-1l-2-1 2-1v-2l1 3q-1 0 0 0l1 1q2 0 0-2c0 2-2-1 0 0l-1-1-1-1h1v1h2q-1-1-1-2c1 4 5-1 3-3l1-1 1 1v-1l-1-1c3-1 4 2 2 1l1 1v1l1-2 1 1q0-2 3-1l-2-2h1l-2-2c2-1 6-1 0-2l1 1c-2 2 0-2-1-1l-1 3v1h-3q2 0 0-2h2l-1-3h2v-1l-3-1 2-2q-3 2-3 0h2v-1h2l-1-1-2 1 2-1-1-1-2 1v1q1 1-2 2l1 3v1l-1-2v1h-1v1-3l-1 1q0-2 0 0h-1v-3c-2 0 1 0 1 1h1l-1-1c1 0-1-3-2-1l1-1q-1 0-3-2l1-1 1 1v-3h-1l-1 1h-2c2 4-2 1 0 4h1v2q0-2-2-2v2l-2-1c1 3 0 0 0 0 2-2-1-1 0 0l-1-1v1l1 2q-1-1-3-1v1h2l-1 1c-2 0-3-6-3-4h-3l1 1h-1c-1-1 1-3-2-3h-1v1q2 1 0 1l-1-1q0 2-2 1 0 1-2 0c1-2 4 2 1-1q1 0 0 0t1-1v1q2-2 2 1l1-2q-3-2 1 0l-1-1-1-1h1q0 1 0 0l2 1h-1c6 3 1 1 2 0l2-1q0 1 0 0c2 2 1-1 3 0v-1l-1-1c2 2 2-2 0 0v-1l1-1s3 3 2 1l-1-1h2c4 2-1-2 3 0l-1-1v-1h1v1l1 1 3-2q-1 0 1-2 0 2-1 1 2 2 4 1c-1-2-5-1-4-3h1l-2-1h3v2l1 1c0-4 3-2 0-4l2 1v-2l-1-1q0-3 2-2-1-2 1-3h3v-1l1-1q-3-1 1-3v1l-1 1q3-1 2 1 1-1 1 0l2-1h-1 2l-1-1h-1l-1-1 2 1-1-2 1-1-1 1q0-2-2-2h1q-1 0-3 1l2 1h-2l-2 1q-1-1 0 0l-2-1q-2-1-1 1-2 0-1-1h-3q0 2 1 4 2 0 1 1c3 1 0 0 2 3l-2 1 1-2-1-1q1 3-1 1v-1h-1v-1l-3 1h1l1 1v1-1h2v1h-2l2 1q-1 0-2-1c1 2-2 2 0 2l1-1v1h1l-1 2h1q0 2-3 2v-2q-1 2-3 1v2l-2-1q2 2-1 1l1 1q0 1 0 0c-1-2-4 1-3 1-2-2 1-1 1-2h-1l-3-1q0-1 0 0c1 1-2 2-1 0l-1 2-1-2-1 1v1c0-2 1 1 1 1v-1l1 2v1l-2-1q-2 0 0 1l-1-1v1l1 1q0 0 1-1 1 2-1 1 1 2-1 2 0-2-1-2 1-1-1-1l-1-1v-2q0 1 0 0h-1v2h1q0 0 1 2c-3-1-1 1-4-2h1l-1-1h-2q1 0 0 0h1l-1-1h1c1-2 2 1 3-1v-2l-2-1h1c-2 0 2 2 3 1h1q-1-1-1-3 1 2 2 1c-2-2-3 1-2 1h-1l-1 1-1-1h2l-1-1v-1l2 1q-2-1 1-1h-1l1-1h2v1c0-2 0 1 0 0q1 0 1-1h-1l-3-1q0 2-1 0l-1-2q2 1 3-1l-1 1q0-2 2 0v-3h-1 1l-1-2c1 2-2 0-2 2q4 0 0 2v1c-2-2-1 1-2 0h-1l1 1h-1v1q1 1-2 0 1 0 0 0c0 2 3 1 0 2v1h-1l1 1c-4 3-1-2-4 0l-1-1 1-1c-1-3 4-2 3 1v-4l1 1c-2-1-1 2 0-2l1 1 3-2h-4v-1l-1-1-1 1v-1h2c-1-3 5-4 5-7q2 5 0 0 3 0 0-1l1-2v2l1-1v1h-1 2v-1q0 1 0 0l-2-3 1 1q1-2 2-2 0 2 2 2-2 1 0 1c0 2-2-1-2 2q5-1 5-4v-1l-2-1q1-1 0 0v2l-1 1h1c-3 0-1-3-3-2q2-2 0 0-2-1-1 0c0 1-4 2 2-5l2 2c-1-5 1-1 2-2h1l-1-1q3 0 3-2 1 2 3 2 0 0 1-1-2 1-1-1l-2 1v-2l-1-1h1l1 1 1-1q1 0 3 1l1-2h-2v-1h3q-2 1 1 2-1-3 0-1v1q1 0 3 1 0-2 2 1 2-2 0-2c-1 2 0-3 1-1l-3-3q3 3 0 2l-1 1h-2q3-1 2-1l-1-1v1-2l-1-1 1-2-2 1 1 1h-4q1-3 3-2l1-1 2 1q1-2 2 0 0-1 2-2l1-1 1 2q2 0 2-2l-1 1-2-1q2 0 1-1l2 1c-5-4-8 1-8-2l2-2-1 2h2l1-1 1 1v-2q3 0 2 2l2-1v1c-3 0 2 1 1-2h1v-2l-1 1c0-4 7-1 4-4h2l3-2q-2 0-2 1c0-3 2-1 3-3-3-3 1-7 3-4 0 3-4-1-1 3q4-2 3-8c-2 5-8 0-9 6 0-5-1 0-2 2-1-4-3 1-5-3 20-18 53-8 51 21 6 1 1 6 6 9l-5 2q2-2-1-3c0 6-2 4-5 8 3 0 5-4 7 1q-3 3 2 16l-2 1q0-2-2-2c-1 5 6 1 6 3-3 3-6-2-7 1q3 2 6 4m-9 9q1 0 0 0zm-14 10zv-1h2q-2 0-2 2m-2 1-2-1 2-1zm-2-15-3-2q1 0 1-2h2c-1 1-3-4 2-3 0 2-5 0-1 3l-3 1zv-2h3l-2 2v1l2-1c1 2-2 0-6 3q0-2 2-2zm-1-6 1 1c2 0-1 1-1-1m10-5-2 1v2q-2 2-4 1 0-2 2-2v1h1q-3-3-2-1h-1l-1-1 1-1q2 2 6-1zm-3 12q2 0 3-1l1 1q-2 2-5 1zm-10-15q1 0 1 2c-3-1 1-1-1-2m-10-7q2-2 3-2-1 2-3 2m8-2q0 1 1 2h-2zm-9 47zq5-1 0 0zm-1-4v2l-1-1q1-1 1-1m1 0zh-1q4-1 1 1m-10 0zl-2 2 1-1zm2 6q1 1-2 1zm1-10v-2zm1-11c1 1-3-1-1-1zm1 1-2 1q-1-1 2-1m1 1zq2 0 0 1zm5 2c0 2 0-1-2 2v-1c1-2-3 2-3-1h1q1 0 2-1h1zm-1-1q3 0 1 1v-1zm-3 0q1-1-1-1h2zm5-12q3 1 2-1v2c1 0 0 3-1-1l-1 1zm2 4zh-2zm1 3q-1 0-1 1h-1q0 0-1-1-1 1 0 0c2 1 2-2 3 0m-14 28zh1q-2 1-2-1zm37 11zc4 0 1 2 0 1m-4 3c3 0-1-1 0-2q-1 0-1 1c-2-2 3 0 3-2l1 1-1 3q-1 0-2-1m-3 2 4-1c-2 4-2 1-1 1-1-1-2 2-3 0m-2-1 1 2q-1 0-2 1l-1-1 2-1c-1 0-5 0 0-1m-2 0q0-1 0 0l-1-1 4-1-1-1 1 1 2-1q2 2 0 3l-1-1zm-3 9-1-1q0 0 1-1l-1 1v-1h2c3 2-2 0-1 2m-7 6c0 2-2-1-2 0zm12-6-2-3q2-2 2 3m11 5q-3 0-1-1-1 1 1 1m-4 0q1 1-1 1zm-5 2q2 0 2 2v-1c-3 2-2-1-1 0zm-2 14q3 0 4-1l1 3q-3 1-1-1h-1v1q-1-3-3-1 2 0 0-1m0 3zm4 0zq0-1-1 1zm1 1-1 1zm-13 23h1q1 2 0 0zm-11 12q0-1-2-2l1-1q1 2 2 1c0 2-2 0-1 2m-23 12q0 2 2 2v2q-2-1-2-2zm-32 4 2 1q-2 2-2 0zm7-4h1zq2 3 0 0m15-18c0-2 2 1 0 1zm6 3h-1l1-1zm-1 0v1h-1l-1-1zq0 2 1 0m7 1 2 1v-1q1 0 1 1l-3 1q2 0 0-2m15-17 1 1zm11-4v-2h2l-1-1 2 1v-1c-2-2 1-4 1-2l-1 1h2l-2 1 2 2h-1q-1 2-3-1zm-3-3 1-1 1 1zm-84 31q1 0 0 0m3 0h-1zl2 1-2 1q0 0-2-2l2 1zm2-4v2l2-1v1q-1-1-1 1l-2-1zm8-2h-1zm-38-29q1-1 0 0m2 7c0 2 1 0 2 2h-1zm7 9q-1-1-1-1zm-1-1zm-2-2q-1-1 1 0 0 2-1 0m1 2q-2 0-1-1zm46-20zm1 0q1 0 0 0m2-4q-1-1 0 0m-1 2zm2 1q-1-1 0 0m1 1zm1-2h1zm3-1zm1-1zm1-1zm-9-1zm-1-4q0-1 0 0m36-13-2 1v-2zm0-6zq2 2 0 1m-3-13q2 0 0 0m5-1-1 1-1-1zm-32-32q-1-1 0 0c1 2 0-1 0 0m0 1zm-1-4zm4 3v-1zm1 1v-1zm4-7c-3-1 1-2 1-2q1 1-1 1zm-1 2zm4-4q-1 0-1-1h1zm-1 1zm2 1q1 1 0 0 1 0 0 0m3 0-1-1zm3 0q-3-2 0-2zm-2 0zm17-17q2 0 0 1zm-10 0h2-1q2 2 0 2zm-25 9zm2-1q-2-2 0-1zm-1 0q0 2 0 0m94 71q1 0 1-1-2 0-2 1l1 1h-1c-2 0 0-3-2-1l3-4h1l1-1q1 4-1 4z" style="fill:#6db4cb;fill-rule:nonzero"/><clipPath id="a"><path d="m26 197 385-56 23 196-385 56z"/></clipPath><g clip-path="url(#a)"><clipPath id="b"><path d="m26 197 385-56 23 196-385 56z"/></clipPath><g clip-path="url(#b)"><path d="m302 179 1-1zM82 215zm206-9zM50 268l-1-3h2q0-2 2-1 0-4 1-7l2-1-1-5q2 1 3 3 0-2-2-4h3q-1-1-1-2 2 0 3-1 1 0 1 1 1-2-2-3 2-1 3 0v-4l1 1q0-3 2-6l-2-2q0-1 1-1v1l1-1v2l2-4q0 2 1 2l-2 1c3 1-1 1 2 2l3-4-1-2q2-2 3 0 1 1 2-1v-2l1-1v2l1-2 2-1-1 2q1 0 1-2l1 2q3-2 7-3v2h2l4 2 2 1 2-1v2q1 0 1-2v2q5 0 8 3h-1c1 2 4-1 4 1l5 5 3 5c2-1 3 4 5 2l1 3 1 3h4l-1 1 2-1v3h2l-1-2 3 2 1 2h5l-1 1c2 0 0 2 2 1l1-1h6v1l5-2 5-3-1-2 1 1v-2l1 2 1-1v1q3 0 4-2l6-6v-3q3-1 6-5 0-2-1-2c1 1 3-2 3 0l3-8h-1l2-1v1c0-5 8-8 7-12v-4q1 0 2 1c0-5 3-5 3-8l2-1 2-2 2-3 2-1h-1 1v-1q2-4 6-3l8 2q1 1 2-1h2l-1 2q3-1 6 2l7 4h-1q2 3 3 2v1q1 2 3 2l2 1q3 1 5 3l2 1h2c-2 2 2 3 4 3v2l3-1q1 3 4 1 2-1 3 2l13-4-2 2-2 2 3-2 2-2 2-1 2-2v2l3-2 2-2 3-5v1l1-1h-1l-1-2v-3c2 3 3-2 5 2l-1-2 1 1 1-4 1 1q-1-2 1-4v1q0-4 3-9 1 1 2 1l1-2h-1l1-4v1l1-3-1 1q-1-1 0-2 0-1 2-2l1-2 1 1 2-5 1 2-1-2 1 1c2-2-2-2 1-3v1l2-3 1-1 2-1c1 2-2 2 0 3l1-2 2-1 2-2h2-1q0-3 1-1h3l-1 1q3 1 7-1v1l2 1 2 1 1-1q2 3 5 3 4 0 4 3-1 0 0 0l3 2-1-3 3 1q-2 0-1 2l1-1c0 3 1-2 2 1l3 1-2 1q2 0 4 1h-2l1 2 1 2q2-2 3-1l3 1c-3 1-1 1-2 2l1 2c1-1 1 2 3 1l1 2v-2l4 2 4 1 6-3v2h-1l2 1 2-1v2q1-1 2-1l-1 2 2-1 2-2-1 3q3-1 4-4h-1v2q-2 1-2-1t-2-1l-3 2 1-3-2 2v-2h-2v-1l-1 1q0-2 1-1l-3-1h-1l-2 1-1 2v-5l-1 2-1-1-1 1c0-2-4-1-3-3q0 1-1 1c1-2-2 0-2-2q2-1 1-1-2 0-3-2-2 1-5-2l-3-4v-1q-2 2-4 0l2-1-1-1h-2l1-1q-3 0-6-2 0 3-2 4l1-2h-1l1-1h-1v-2l1 1-2-3-1 2-1-3-2 1v-2h-2l-2 1h1-5l-5-1v-1l-2 1-3 2-1-2-1 1-2 1q0-2 1-2-3 0-4 3l-1-1-2 1h2l-2 2v-3l-4 5-1 2-2 1c0 2 2-1 2 1l-4 1c-2 2 0 4-2 5q3 1 2 3-2 1-3-1h1q0-2-1-1h1l-3 2h1q-2 2-3 5h1q-1 2-1 4c-1 1-1-2-2 1q-1 1-1-2-1 3-3 4v-1l-1 1h1l-1 1 2 2q1 2-2 2c2-1-1-1 0-2l-1 1v-1c-2 1 1 2-1 4h-1l1 2-1 2 1-1-1 3v-1l-2 1-1 1-2-1-1 1h-2v2l2-2v3l1-2 1 2h-2v1h-1l-1-2q-2-1-3 1l-3 1h1q0 2-2 1l-1-2q-1 0-2 2l-1-2q-2 2-5 2 0-2 2-2h-2l-2-1-2 1-1 1q-1-3-3-4-3 0-3-3l-5-2q0-1 0 0c-1-3-2 1-4-1q1-1 2-1c1-3-3-2-3-4q-1-2-5-2v-1q-3 1-6-1l1-1c-1-1-1 2-2 1q-2-2-1-3h1q-1-2-3-1l1-1h-6v1h-3v-2l-3 1-3 1q2-3 5-3h-3l-2 1 2-1-5 4q0-3-4-1l-2 1h-3l-2 2-2 3-3 2-2 3c3 0 0 1 2 2l-1 2-3 1v-1q-2 1-3 1v2h2c-1 3-4 1-4 4v-1q-2 3-2 8l-1-1q-1 6-4 11v-1l-1 2v-1l-1 3v-1q-3 4-3 8-3-1-5 1v-1l-6 9q-3-1-5 1-3 2-5 1v2l-1 1-1-1-1-1-1-1-1 3-4-3-3-1-1-2h-2v-1l-4-5h1c-1-1-4 2-6 1l1-2-3-4q-1-3-4-3h1c-1-1-4-5-5-2q0-3-4-3l1-1-5 1 1-1q-1 0-3-1h1-3l-2-1-1-2q0 2-2 1l1-1h-4l-2-1-1-1 4 1q-1-1 1-3l-4 1h-4l-2-1h-3v3l1-1h3l-3 1-1 2-3-2-2-1-4 2-2 5-2-1 1-1q-3 3-3 5c-2 1 0-2-2 0v-1q-4 2-5 6 0 4-4 7l1-1-5 9-6 9v3h-2l1 3c0 3-5 3-4 7h1l-2 4v1l-1-1 1 4c-2 2-3-2-4 2l1 4 2-1v1q3 3 6 0v-2h1l-1 1q2 0 1-2h1l-2-3q2 1 3 1c-1-2-2 0-3-2l2-1 1 1v-4q0-2 2-2m40-45zm-7-9zl1 1zm220-38v2zm-51 40zm131-29-1 1h1zm-35-15zm7 4 1 2zm5 5zm19 7zm-128 28-2-1zM67 236h-1q1 2 1 0m312-48zl-1-1 1 1zm-135 24-1-1zm-105 46zm252-72-1 1zm-1 1zm-205 10c2-1 0 3 3 2q-1-3-3-2M39 282zm209-82v2zm-34-18 3 1q-1-2-3-1m99-14v-2l-1 1zm-67 32zm151-18-1-1v2zm-26-5c-2-2 0 2-3 1l2 1zm21 6h2l1-1h-2zv2l1 2zm-136 22zm107-32zm-61-9-1 2zm15-9v2zm-176 89zm192-87zm17 7zm10 10 1-1v-1zm-94 32zm67-49-1-1q-1 1 1 1m8 2zm-50 23zm-7 10zm13-16zm6 65q0-2 0 0m-26 18zm9-2zm15-9zm16-22q-1 0 0 0m37-7-1-1zm-116 22 1 1zm102-28zm44 13v1zm29 6zl-1 4zl1 1 1-1zm-89-16zl-1 2zm68 13c-2-3 0 1-2 0l2 1zm-185 16 1 1 1 2q0-3-2-3m-41 56zm103-43v-2zm54-31-1 2zM66 333l-1-1 1-1zv-1l1-1-2-2h2q-1 0-2-1 2-1 1-1l1 1-1-3 1-2h2l-1-3h2q0-2 2-1v-3l1-3v1l2-1q-2-2-1-5l3 4q-1-2-1-4l2 1v-3l2 1 1 1-1-3q1 0 2 2l1-4 1 1 2-2 2-2-1-2 1-1v1l1-1q0 2-1 3l2-2 2-1q-1 2-1 2h-1v3q2-1 5-2l-1-2q3-1 3 1 1 2 2 0 1-3 3-2l-1 2c2 0 1-3 3-1l-1 1c1 1 1-2 2-1v1h8l-1 1q6 1 9 5l2-1v1q1 0 1-1v1q5 0 8 3c1 2 3-2 4 1l5 2 6 4h2l3-1 2 2 1 1h2q1 1 3-2v2l1-2 2 2 1-1-1-1h3l1 1 2-1 2-2v1h2l-1-1 3-1 2-2v1q6-3 8-8-2 1-2-2l2 1q-1 0-1-1 2-1 1 1l1-1 1 1c-1-1 3-1 2-3l2-4 2-4-1-3 5-5q0-2-2-2c2 1 3-2 3 0l1-5 1-2h-1l1-1 1-3 3-2q3-1 3-4l1-3q1 0 1 1l1-3 1-1 3-3 2 1 2-2 2-1h2l-1-1h2l-1-1h7l7 5c2 1 3-4 5-1l-1 2 6 3 7 3h-1q3 3 4 1v2l3 1q1 0 0 0 2 2 3 0l5 2c1-1 3 2 4-1-1 3 3 3 4 2v2q3 0 3-2l2 1h2l2-1 1 1 12-7-2 3q-2 0-1 2l7-8v2q5-4 7-9v1-1c-2 0-1-4-1-4 1 2 2-3 4 1l-1-1h1l1-3 1 1q-1-3 1-4v1q1-5 3-8c1 2 1-1 3 0v-1h-1l2-4v1l1-2-1 1q-1-2 0-3l2-1 1-2 2 2c-1-2 2-2 1-4l1 1v-1l1 1c2-1-2-2 1-3v1l2-1 3-1c1 2-2 1-1 2l2-1h2l4-1h1l2 1v1l7 1h-1l4 2 1-1c3 5 8 0 11 5h-1l3 1-1-2 2-1v3l1-1c1 2 1-3 2-1v1h3l-2 1q3-2 4 0h-2l2 2 2 1h-1c3-3 4 0 6-2q-1 2-1 3l1 1c1-1 1 2 3 0l1 2v-2q2-1 3 1h4l6-4-1 2h3l1 1q0-1 2-1l-1 2 3-2q1 1-1 2 4 0 4-3h-1v1q-2 2-2 0l1-1h-2l-3 1 1-2-2 2v-2q-1 0-2-1l-1 1q0-2 1-1c-2-2-4 1-4-1l-2 2-1 2-1-4v1l-1-1-1 2c-1-2-3 0-3-3q0 2-1 2c0-3-2 0-3-1 1-2 2 0 1-2-1 2-2-1-3-1q-2 1-5 1c1-1-3-2-4-4q-2 2-3 1l1-2h-1l-2 1 1-2q-2 1-5-1 0 3-2 5l1-2-1-1h1-1v-2l1 1-2-2-1 1-1-2q0-1-2 1v-2q-3 0-3 1-4 0-8-3h-5l-1-1h-3q0-1 1-1l-2-1-2 1q0-1-2-1l1 1-3 1v-2q-3 0-4 3-2 3-5 2c0 2 3-1 3 1l-3 1h-2l-1 2-1 3q2 0 1 2-2 1-3-1h1v-1q-1 1-3 1 1 2 1 1l-3 4h1c-3 2 0 2-1 4-1 1-2-2-2 1l-2-2q-1 4-3 3v-1 2h1l-1 1 2 2q-1 1-3 2 2-1 0-3l-1 1c-2 1 1 2 0 4l-2-1 1 2-1 2h1l-1 2v-1c1 2-3 1-3 3l-2-1c0 2-2 0-2 2v2l2-3v3l1-2 1 2h-2l-1 2-2-3h-1l-1 1-1 2h-1v1q1 1-2 1l-1-2v1l-1 2-2-2-2 2-2 1 1-3-1 1h-3q0 2-1 1l-1 2q-1-2-3-3-3 1-4-2l-4-1c-2-2-2 2-4 0q1-1 1-1 1-3-1-2l-2-1q-1-2-4-2l-6-1 1-2q1 2-2 2l-1-4 2 1q-1-2-3-2h1q-2 0-6-1v1c-2 1 0-2-2-1v-2l-6 1 5-2h-4 1q-2 2-5 1 0-3-2-2l-5-1-6 3-3 1-2 1c2 2-1 1 0 4l-1 1h1-4v-1h-3l-1 2h2q0 2-2 2t-2 2v-2l-2 4-1 4-1-1-1 3-1 3q-1 3-3 5v-1l-1 2-1 3v-1q-2 5-1 9-3-2-5 1-2 5-3 10l-3 1-1 2q-3 2-5 3l1 2c-1 0-1 3-2 1v-1h-1l-2 1 1 2q-3-1-5 1l-2 1-2-2-2 2v-2h-2l-3-1v-1c-1 0-2 4-4 4l1-3q-4-2-8-2l1-1c-1-1-4-4-5-1q0-1-4-1l1-1-4 1v-1h-2l1-1q-2-1-3 1-2-1-2-3h-3 1l-3-1-2-1v-1l3 1q-1-1 1-3l-3 1h-3v-1h-1l-1-1-3-1-1 3 1-1h1v1h2-3l-1 2q-2-2-3-5-6 0-8 4l-1-1 1-1-3 1-2 2q0-2-1-1v-1q-4-1-6 3-2 3-6 3l-8 6-7 7v4l-1-1v3l-2 3-2 2v2h1l-1 4v1l-1-1 1 4-2 1-1 2 1 2 1 1 2-1v1h3zm49-36v2l-1-1zm-4-10zm259-64zm-261 65zm302-52zm-248 80zm-4 1zm174-96zh1zM89 301l-1-1q-1 1 1 1m328-69v2l1-1zm-150 38v-2l-1 1zm135-32zh-3zm10-3zm-7 1zm-22-1zm-2-7 1-1v-1zm20 3zm-93 23zm14-24v-1zm55 2 1 1zm46 52v-1l-1 4zl1 1h1q-1-3-3 0m4 0v2l1-1zm-145 32v-1zm-56-10c1 0-1 3 2 3q0-2-2-3m57-2zm34 0zM75 386zm217-78zq0-1 0 0m9 0v-1zm-12 11-2-1zm32-7zm-147 53zm210-96zm11 5v-1l1-1zm25 10zm-46-16zm-44 25zm6-3zm32-19zm-1 0zm-13 4v-1zm-12 6zm-162 69v-1zm217-77zm-145 23h2zm88-2 1-1zm82-8-1 1zm-17-11c-2-2 0 2-3 1l2 1zm-279 69zm295-60-1 1q-1 1-1-1h1q-1-3-2-1l-3 1 1-2-2 1 1-2q-1 0-2-1h-1l1-1h-3l-1-1c-2 0 0 2-3 3v-4l-1 1v-1l-1 2q-2-1-3-3 0 1-1 2c1-3-1-1-2-2q2 0 1-2c-2 2-2-1-3-1q-2 1-4 0l-5-3q-1 2-3 1l1-2h-1l-2 1 1-1h-5q0 3-1 5v-3l-1 1 1-2-1 1v-1h1l-3-2v2q-2 0-2-2l-1 2-1-1q-3 0-2 2l-2 1-2 1-4 1v-1q-2 2-3 4l-2-1-2 2v-2q-1 0-3 3 0-2-2 0h2l-2 1-1-2q-2 0-3 4-1 2-3 2 1 0 2 1h-4c-3 1 0 3-2 4l1 3q-3 1-3-2h1v-1 1h-3l1 1-4 2 1 1q-1 2-1 3-2-2-2 0-2 0-1-2-2 2-4 1v1h1-1l1 3q-1 1-3 1 2-1 0-2-2 0 0 0c-3-1 0 2-2 3l-1-1v2l-1 2h1l-2 1 1-1-2 1-2 1-1-2q-1 0-3 1v2l2-2-1 3 2-2v2c-2-1-2 2-3 1l-1-3-2 1-3 1h1q-1 2-3 1v-2q-1 0-2 2l-1-1q-2-1-2 1l-2 1 1-3-1 1-2-1q-1 2-2 1l-1 1q-1-2-3-3-2 1-3-2l-5-2h1c-2-2-2 2-4 0q0-1 1-1l-1-2-3-1h1-5v-1q-3 3-6 2l1-2q0 1-2 2l-1-3h1q-1-2-3 0l1-1q-3 1-5 2v1c-2 2-1-1-3 0v-2l-2 2-3 1 4-4-3 2h1l-2 2-2 1q-1-2-3-2l-2 1-2-1-2 2-3 1-5 4c3 1-1 0 2 3l-1 1h-3l-1-1h-3v2h2c-1 3-3 0-4 3v-1q-3 3-2 7l-1-1-3 5-2 3h-1v1h-1l-1 2v-1l-2 3-1 4h-5q-3 3-5 8-2-1-5 1l-2 1-3 1 1 2q-1 2-2 0-2-2-3 0v3q-2-2-5 0h-4l-1 1h-1v-1h-5l1-1-2 2-2 2v-2q-3-2-7-2l1-1c-1 0-4-3-4 0q-1-2-4-1v-1l-3 2v-1h-3l1-1-2 1q-2 0-3-3l-2 2 1-1-3-1h-2l-1-1 4 1q-1-1 0-4-3 3-5 2h-1l-1-1h-3v2h3-2l-1 3q-2-4-4-5-4 1-7 4l-1-1 1-1q-3 1-4 3c-2 0 1-2-1-1v-1q-4 0-6 3-1 4-6 3h1l-7 5-7 6q-2 2-1 3l-2-1 1 3q-1 3-3 2-3 1-2 4h1l-1 2-1 1v1h-1v3c-1 2-2-2-4 2l2 3 2-1v2q3 2 6 0l-1-2h1v1-2h1l-1-2h2l-2-1q2-1 1-1l1 1v-3q1-2 3-2v-2h3v-3l2-3v1l2-1-1-4q2 1 2 4v-4l2 1v-2h3v2q1-2-1-3 2-2 3 1l1-3 2-1 2-2-1-3h1v1l1-1q0 2-1 3l4-3c0 1-3 1-1 2h-1l1 3q1-1 3-2v-2q2-2 3 0 0 2 2 1-1-3 2-3l-1 3c2 0 1-4 3-2l-1 1q2 1 2-2v2l7-1v1l9 3 1-1v1q0 0 1-1v1q4-1 8 2h-1c2 1 3-2 4 0l6 2 5 2h2q2 1 2-2l3 2 2 1q1 0 3-2v1l1-2 1 2h1l-1-1q3-2 5 1l3-3-1 1c1-1 1 2 2 0v-1l4-2v2l4-3 4-3q-2 1-1-2l1 1-1-2 2 3 1-2v2c0-2 3 0 3-3v1l3-3 2-2v-3l6-4-1-2q3 0 2 1 3-3 4-7h-1 2c1-4 8-5 8-9v-3q1 0 2 1 1-4 4-6l4-2 3-2q0-1 1 0l-1-1q3-3 8-3l8 1c1 1 1-5 3-2l-1 2h6l6 1h-1q2 2 4 0v2l2 1h2l4 2c2-1 3 2 4 0q0 3 4 2v2q2 2 2-1 2 3 4 1 1 0 3 2l11-4-2 2-1 1 2-1 4-3 2-1-1 2q5-2 8-5v1q2-1 1-2v1q-1-3 0-5c1 3 3-1 3 3v-1l1 1q0-2 2-3v1q0-2 2-3 2-3 5-6c0 3 1 0 2 2l1-2h-1l2-3v1l1-2h-1q-1-1 0-2l2-1 1-2 2 2q0-1 2-4v2-2l1 1c2-1-2-2 1-2q3-1 4-4c2 2-1 2 1 3q2-4 6-6h-1q1-3 1-1l2-1 1 1 2-1 1-1 2-1v1l4-1v-1h5q2-1 5 1l-1 1 3-1-1-2 2-1v3-1c1 2 1-2 3 0h-1 3l-1 1c1 1 2-2 3 0h-2l2 2 1 2v-1c2-3 3 0 5-1q-1 1-1 2l1 2h2l1 1v-1c2-1 4 3 7 2l3-1 2-2q0 2-1 2l3 1 1 1 1-1-1 2 4-1-1 2 2-1zm-295 59zv1zm5 10zl1 2zm154-48v-2zm135-18zm-29-9zm-50 14v1zm-234 66-1-1q1 2 1 1m244-72h1v-1zm61-1zm-2 0 2 1c0 1-1-2-2-1" style="fill:#093b7d;fill-rule:nonzero"/></g></g><path d="M643 133h32v211h-32zM768 347q-18 0-32-8-13-8-21-22t-8-32v-82h32v80q0 10 4 18 3 7 10 11 6 3 15 4 15 0 22-9 7-8 7-24v-80h33v82q0 18-8 32-8 15-22 22-14 8-32 8" style="fill:#093b7d;fill-rule:nonzero"/><path d="M545 344h-81V138h78q21 0 35 8a51 51 0 0 1 27 46q0 16-9 28-5 8-14 14 13 6 21 18 11 14 11 33a56 56 0 0 1-31 51q-15 8-37 8m-47-176v53h44q12 0 21-7 8-7 8-19 0-14-8-20-9-7-21-7zm0 83v63h49q15 0 24-9 8-10 8-22 0-9-4-16-3-7-11-12-8-4-17-4zM886 285l4 11q6 10 15 15 10 6 22 6t20-4q10-5 16-11l21 20q-11 12-25 19a79 79 0 0 1-69-4 71 71 0 0 1-37-64 73 73 0 0 1 36-63q16-10 37-10 20 0 35 9t23 25a74 74 0 0 1 7 51zm0-26h75l-3-11q-5-9-13-14-8-4-20-4-12-1-21 5-9 5-14 15z" style="fill:#093b7d"/><path d="M1124 345a104 104 0 0 1-74-30q-15-15-22-34-8-20-8-41 0-22 8-42a100 100 0 0 1 55-56q18-8 41-8 25 0 43 8 18 9 32 23l-23 22q-9-9-22-15t-30-6q-15 0-28 6-12 5-22 15-9 9-14 23t-5 30 5 29 14 24 22 15q13 5 28 5 18 0 32-6 12-6 22-15l23 22a103 103 0 0 1-77 31" style="fill:#6db4cb;fill-rule:nonzero"/><path d="M1259 264v78h-32V202h32v14l1-1q12-16 36-16 10 0 19 3 8 4 15 13l-21 21-8-5q-5-2-11-2-13 0-22 8-9 9-9 27M1366 284l4 10q4 10 15 16 9 5 22 5 11 0 20-4 9-3 16-11l20 21q-10 12-25 18a79 79 0 0 1-69-3 71 71 0 0 1-36-64 73 73 0 0 1 36-64q16-9 37-9 19 0 34 9t24 25a74 74 0 0 1 7 51zm0-26h75l-4-12q-4-8-12-13-9-5-20-5-12 0-21 6-10 5-15 14zM1589 258l-32 84h-19l-57-140h34l33 89 32-89h19l32 89 33-89h34l-57 140h-19z" style="fill:#6db4cb"/></svg>