<?xml version="1.0" encoding="UTF-8"?><svg id="b" xmlns="http://www.w3.org/2000/svg" viewBox="0 0 567 177.13"><g id="c"><path d="M335.2,121.37l4.53,11.34,4.59-11.34h2.7l-7.35,17.59-7.18-17.59h2.7Z" style="fill:#0070ba; stroke-width:0px;"/><path d="M369.02,133.76h-7.01l-1.82,3.97h-2.66l8.1-17.39,7.81,17.39h-2.7l-1.72-3.97ZM368.01,131.44l-2.43-5.56-2.54,5.56h4.97Z" style="fill:#0070ba; stroke-width:0px;"/><path d="M389.68,121.37v14.04h4.81v2.32h-7.28v-16.36h2.47Z" style="fill:#0070ba; stroke-width:0px;"/><path d="M417.58,123.69h-6.56v3.93h6.37v2.32h-6.37v5.47h6.56v2.32h-9.03v-16.36h9.03v2.32ZM409.84,116.97l2.1-1.47,3.39,3.41-1.18.99-4.31-2.93Z" style="fill:#0070ba; stroke-width:0px;"/><path d="M432.55,137.74v-17.48l11.93,12.49v-11.37h2.47v17.36l-11.93-12.45v11.46h-2.47Z" style="fill:#0070ba; stroke-width:0px;"/><path d="M474.84,122.25v2.93c-1.43-1.19-2.9-1.79-4.43-1.79-1.68,0-3.1.6-4.25,1.81-1.16,1.2-1.74,2.67-1.74,4.41s.58,3.17,1.74,4.35c1.16,1.18,2.58,1.77,4.26,1.77.87,0,1.61-.14,2.22-.42.34-.14.69-.33,1.06-.57.36-.24.75-.53,1.15-.87v2.98c-1.41.8-2.9,1.2-4.45,1.2-2.34,0-4.34-.82-5.99-2.45-1.65-1.65-2.47-3.63-2.47-5.96,0-2.08.69-3.94,2.07-5.58,1.7-2,3.89-3,6.58-3,1.47,0,2.89.4,4.26,1.2Z" style="fill:#0070ba; stroke-width:0px;"/><path d="M492.14,121.37v16.36h-2.47v-16.36h2.47Z" style="fill:#0070ba; stroke-width:0px;"/><path d="M517.41,133.76h-7.01l-1.82,3.97h-2.66l8.1-17.39,7.81,17.39h-2.7l-1.72-3.97ZM516.4,131.44l-2.43-5.56-2.54,5.56h4.97Z" style="fill:#0070ba; stroke-width:0px;"/><path d="M148.67,142.39l-13.76-6.2-1.92-7.36h0c-.23-.82-.5-1.62-.79-2.41h3.01c1.66,0,3.01-1.35,3.01-3.01s-1.35-3.01-3.01-3.01h-6.11c-2.06-3.04-4.7-5.67-7.75-7.73-3.68-2.58-8.16-4.1-13-4.1-7.8,0-14.67,3.94-18.75,9.94-.18.25-.3.56-.3.89,0,.66.43,1.21,1.01,1.42-.59.2-1.01.76-1.01,1.42,0,.22.05.43.14.62h0s0,.01.01.02c.04.09.09.17.15.25,2.65,4.44,6.46,8.11,11.01,10.59v6.25c0,1.66,1.35,3.01,3.01,3.01s3.01-1.35,3.01-3.01v-3.82c2.43.67,4.99,1.03,7.63,1.03.33,0,.65,0,.97-.02h0c.32,0,.65-.01.97-.01,4.06,0,7.92.85,11.42,2.37l2.19.99,4.18,16.05c.42,1.61,2.06,2.57,3.67,2.15,1.61-.42,2.57-2.06,2.15-3.67l-2.96-11.36,9.34,4.21c1.51.68,3.3,0,3.98-1.51s0-3.3-1.51-3.98ZM100.72,122.13c-1.66,0-3.01-1.35-3.01-3.01s1.35-3.01,3.01-3.01,3.01,1.35,3.01,3.01-1.35,3.01-3.01,3.01Z" style="fill:#0070ba; fill-rule:evenodd; stroke-width:0px;"/><path d="M.01,32.02c.02.17.06.33.13.48l22.64,56.16h0c.05.13.12.26.19.38.01.02.03.04.04.07.06.1.13.2.21.3,0,.01.02.02.03.04.08.1.17.19.26.27.03.03.06.05.09.08.09.08.18.15.27.21.02.01.04.02.05.04.1.06.2.12.3.17.03.02.07.03.1.05.11.05.23.1.35.14,0,0,.02,0,.03,0,.12.04.24.06.36.08.04,0,.07.01.11.02.13.02.26.03.39.03,0,0,0,0,0,0h.52v.04c7.07.29,13.66,2.37,19.34,5.81h0c6.12,3.67,13.27,5.78,20.93,5.78s14.87-2.13,21.01-5.83c6.12-3.68,13.28-5.8,20.94-5.8h0s0,0,0,0c7.66,0,14.82,2.12,20.94,5.8,6.13,3.7,13.32,5.83,21.01,5.83s14.81-2.11,20.93-5.78h0c5.69-3.44,12.28-5.52,19.34-5.81v-.04h.53s0,0,0,0c.13,0,.26-.01.39-.03.04,0,.07-.01.11-.02.12-.02.24-.05.36-.08,0,0,.02,0,.03,0,.12-.04.24-.09.35-.14.03-.02.07-.03.1-.05.1-.05.21-.11.3-.17.02-.01.04-.02.05-.04.09-.07.18-.14.27-.21.03-.03.06-.05.09-.08.09-.09.18-.18.26-.27,0-.01.02-.02.03-.04.08-.1.14-.2.21-.3.01-.02.03-.04.04-.07.07-.12.13-.25.19-.38h0s22.64-56.16,22.64-56.16c.07-.15.11-.31.13-.48,0-.04.01-.08.01-.11,0-.01,0-.02,0-.03,0-.03,0-.05,0-.08,0-.06,0-.12-.02-.17,0-.04-.02-.08-.03-.12-.01-.04-.02-.09-.04-.13-.02-.05-.04-.1-.06-.15,0-.01-.01-.02-.02-.03-.17-.34-.47-.61-.84-.74-.02,0-.04-.01-.06-.02-.05-.02-.11-.03-.16-.05-.27-.06-.56-.03-.84.08-.01,0-.03.01-.04.02-.06.03-.13.06-.19.1-.02.01-.05.03-.07.05-.02.02-.05.03-.07.05l-45.69,35.78-12.09-45.69c-.09-.46-.28-.89-.56-1.25h0c-.55-.72-1.42-1.19-2.39-1.19-.83,0-1.58.34-2.13.88l-43,39.73-43-39.73c-.54-.54-1.3-.88-2.13-.88-.98,0-1.84.47-2.39,1.19h0c-.28.36-.47.79-.56,1.25l-12.09,45.69L2.44,30.69s-.05-.03-.07-.05c-.02-.02-.05-.03-.07-.05-.06-.04-.13-.07-.19-.1-.01,0-.03-.01-.04-.02-.28-.12-.57-.14-.84-.08-.06.01-.11.03-.16.05-.02,0-.04.01-.06.02-.37.13-.67.39-.84.74,0,.01-.01.02-.02.03-.02.05-.04.1-.06.15-.02.04-.03.08-.04.13,0,.04-.02.08-.03.12,0,.06-.01.11-.02.17,0,.03,0,.05,0,.08,0,.01,0,.02,0,.03,0,.04,0,.08.01.11Z" style="fill:#0070ba; fill-rule:evenodd; stroke-width:0px;"/><path d="M215.68,105.69s0,0,0,0c-.07-.06-.13-.12-.2-.18-6.15-5.56-14.31-8.96-23.26-8.96-6.58,0-12.73,1.83-17.97,5.01h0c-7.01,4.2-15.22,6.62-23.99,6.62s-17.1-2.45-24.15-6.71h0c-5.2-3.12-11.29-4.92-17.79-4.92-6.5,0-12.59,1.8-17.79,4.92h0c-7.05,4.26-15.31,6.71-24.15,6.71s-16.98-2.42-23.99-6.62h0c-5.24-3.18-11.39-5.01-17.97-5.01-8.95,0-17.1,3.39-23.26,8.96-.07.06-.14.12-.2.18,0,0,0,0,0,0h0C.36,106.24,0,107,0,107.86,0,109.52,1.35,110.87,3.01,110.87c.83,0,1.58-.34,2.13-.88h0c5.09-4.61,11.84-7.42,19.25-7.42,5.46,0,10.57,1.53,14.91,4.18h0c7.91,4.73,17.16,7.46,27.05,7.46s19.39-2.79,27.36-7.64h0c4.27-2.53,9.25-3.99,14.58-3.99,5.32,0,10.31,1.46,14.58,3.99h0c7.98,4.85,17.35,7.64,27.36,7.64s19.14-2.72,27.05-7.46h0c4.35-2.65,9.45-4.18,14.91-4.18,7.41,0,14.16,2.81,19.25,7.42h0c.54.54,1.3.88,2.13.88,1.66,0,3.01-1.35,3.01-3.01,0-.85-.36-1.62-.93-2.17h0Z" style="fill:#0070ba; fill-rule:evenodd; stroke-width:0px;"/><rect x="249.95" y="0" width="4.17" height="177.13" style="fill:#0070ba; stroke-width:0px;"/><path d="M315.35,92c0,1.79-.33,3.49-1.01,5.08-.67,1.6-1.65,3.02-2.94,4.27-1.3,1.25-2.76,2.21-4.4,2.88-1.63.67-3.34,1-5.13,1s-3.55-.34-5.2-1.01c-1.65-.67-3.11-1.63-4.37-2.87-1.29-1.25-2.26-2.67-2.93-4.26-.67-1.59-1-3.29-1-5.1s.33-3.51,1-5.1c.67-1.6,1.64-3.03,2.93-4.29,1.29-1.25,2.75-2.21,4.38-2.86,1.63-.65,3.36-.98,5.19-.98s3.53.33,5.16.98c1.63.65,3.08,1.61,4.37,2.86,1.29,1.28,2.27,2.71,2.94,4.32.67,1.6,1.01,3.29,1.01,5.08ZM311.07,92c0-1.28-.23-2.49-.7-3.64-.46-1.15-1.13-2.17-2.01-3.07-.85-.88-1.83-1.57-2.96-2.04-1.12-.48-2.3-.72-3.54-.72s-2.42.24-3.54.71c-1.12.47-2.12,1.15-2.99,2.05-.87.88-1.54,1.9-2,3.05-.46,1.15-.69,2.37-.69,3.65s.23,2.48.69,3.62c.46,1.14,1.13,2.16,2,3.05.87.9,1.87,1.58,2.98,2.05,1.12.47,2.3.71,3.55.71s2.4-.24,3.51-.71c1.11-.47,2.11-1.15,2.99-2.05.87-.9,1.54-1.92,2.01-3.06.47-1.14.7-2.35.7-3.61Z" style="fill:#0070ba; stroke-width:0px;"/><path d="M340.3,85.47c-1.16-.99-2.39-1.73-3.68-2.22-1.29-.49-2.65-.74-4.08-.74-2.76,0-5,.88-6.73,2.65-1.73,1.77-2.59,4.06-2.59,6.87s.84,4.97,2.52,6.74c1.68,1.77,3.81,2.65,6.37,2.65,1.49,0,2.92-.26,4.27-.79,1.35-.53,2.64-1.33,3.88-2.4v4.64c-1.1.79-2.3,1.38-3.6,1.77-1.3.39-2.7.59-4.22.59-1.93,0-3.71-.32-5.35-.95-1.64-.63-3.08-1.56-4.32-2.79-1.23-1.21-2.17-2.63-2.83-4.27-.66-1.64-.99-3.38-.99-5.23s.33-3.59.99-5.21c.66-1.63,1.62-3.05,2.87-4.28,1.25-1.24,2.69-2.18,4.31-2.82,1.62-.64,3.37-.96,5.26-.96,1.48,0,2.9.22,4.24.65,1.35.43,2.65,1.08,3.91,1.96l-.22,4.14Z" style="fill:#0070ba; stroke-width:0px;"/><path d="M345.39,104.56v-25.23h14.08v3.48h-9.98v6.32h9.98v3.6h-9.98v8.15h9.98v3.67h-14.08Z" style="fill:#0070ba; stroke-width:0px;"/><path d="M380.84,104.56l-2.86-6.5h-10l-2.93,6.5h-4.31l12.22-26.23,12.2,26.23h-4.32ZM369.49,94.65h7.03l-2.58-5.75c-.15-.37-.31-.79-.47-1.27-.16-.48-.32-1.01-.48-1.6-.14.55-.28,1.07-.44,1.54-.15.48-.31.92-.47,1.32l-2.59,5.75Z" style="fill:#0070ba; stroke-width:0px;"/><path d="M387.54,104.56v-26.23l16.03,15.42c.44.44.88.9,1.33,1.4.45.49.92,1.05,1.41,1.67v-17.49h3.79v26.21l-16.35-15.7c-.44-.43-.86-.87-1.27-1.34s-.79-.97-1.16-1.48v17.54h-3.78Z" style="fill:#0070ba; stroke-width:0px;"/><path d="M441.75,92c0,1.79-.33,3.49-1.01,5.08-.67,1.6-1.65,3.02-2.94,4.27-1.3,1.25-2.76,2.21-4.4,2.88-1.63.67-3.34,1-5.13,1s-3.55-.34-5.2-1.01c-1.65-.67-3.11-1.63-4.37-2.87-1.29-1.25-2.26-2.67-2.93-4.26-.67-1.59-1-3.29-1-5.1s.33-3.51,1-5.1c.67-1.6,1.64-3.03,2.93-4.29,1.29-1.25,2.75-2.21,4.38-2.86,1.63-.65,3.36-.98,5.19-.98s3.53.33,5.16.98,3.08,1.61,4.37,2.86c1.29,1.28,2.27,2.71,2.94,4.32.67,1.6,1.01,3.29,1.01,5.08ZM437.48,92c0-1.28-.23-2.49-.7-3.64-.46-1.15-1.13-2.17-2.01-3.07-.85-.88-1.83-1.57-2.96-2.04-1.12-.48-2.3-.72-3.54-.72s-2.42.24-3.54.71c-1.12.47-2.12,1.15-2.99,2.05-.87.88-1.54,1.9-2,3.05-.46,1.15-.69,2.37-.69,3.65s.23,2.48.69,3.62c.46,1.14,1.13,2.16,2,3.05.87.9,1.87,1.58,2.98,2.05,1.12.47,2.3.71,3.55.71s2.4-.24,3.51-.71c1.11-.47,2.11-1.15,2.99-2.05.87-.9,1.54-1.92,2.01-3.06.47-1.14.7-2.35.7-3.61Z" style="fill:#0070ba; stroke-width:0px;"/><path d="M460.43,91.64h10c0,.17,0,.41.02.72.03.82.05,1.37.05,1.65,0,3.55-1.02,6.31-3.05,8.27s-4.9,2.95-8.6,2.95c-2.07,0-3.91-.31-5.53-.91-1.62-.61-3.04-1.53-4.26-2.76-1.2-1.22-2.11-2.65-2.75-4.29-.64-1.64-.96-3.4-.96-5.27s.32-3.67.97-5.28c.65-1.61,1.61-3.03,2.89-4.26,1.23-1.21,2.67-2.12,4.33-2.76,1.65-.63,3.42-.95,5.31-.95,1.99,0,3.76.36,5.33,1.08,1.57.72,2.97,1.83,4.2,3.33l-3,2.26c-.85-.99-1.81-1.72-2.88-2.21-1.07-.48-2.26-.72-3.58-.72-2.73,0-4.97.88-6.7,2.63-1.73,1.75-2.59,4.03-2.59,6.83s.86,5.16,2.59,6.94c1.73,1.77,3.97,2.66,6.73,2.66,2.34,0,4.19-.55,5.53-1.64,1.34-1.09,2.02-2.58,2.02-4.46v-.36h-6.07v-3.46Z" style="fill:#0070ba; stroke-width:0px;"/><path d="M478.65,93.27v11.29h-3.84v-25.23h5.72c1.68,0,2.98.11,3.9.33.92.22,1.72.58,2.37,1.08.78.61,1.38,1.4,1.81,2.36.43.97.64,2.02.64,3.17,0,2.02-.49,3.6-1.47,4.75-.98,1.14-2.42,1.83-4.32,2.06l8.69,11.48h-4.64l-8.39-11.29h-.46ZM478.91,90.09h.74c2.17,0,3.61-.25,4.33-.76.71-.5,1.07-1.4,1.07-2.69,0-1.39-.38-2.37-1.15-2.94-.76-.57-2.18-.85-4.25-.85h-.74v7.24Z" style="fill:#0070ba; stroke-width:0px;"/><path d="M511.23,104.56l-2.86-6.5h-10l-2.93,6.5h-4.31l12.22-26.23,12.2,26.23h-4.32ZM505.79,76.85h-2.12l-5.03-4.69h3.88l3.28,4.69ZM499.89,94.65h7.03l-2.58-5.75c-.15-.37-.31-.79-.47-1.27-.16-.48-.32-1.01-.48-1.6-.14.55-.28,1.07-.44,1.54-.15.48-.31.92-.47,1.32l-2.59,5.75Z" style="fill:#0070ba; stroke-width:0px;"/><path d="M517.94,104.56v-25.23h14.08v3.48h-9.98v6.29h9.98v3.6h-9.98v11.86h-4.1Z" style="fill:#0070ba; stroke-width:0px;"/><path d="M536.53,104.56v-25.23h4.1v25.23h-4.1Z" style="fill:#0070ba; stroke-width:0px;"/><path d="M566.78,85.47c-1.16-.99-2.39-1.73-3.68-2.22-1.29-.49-2.65-.74-4.08-.74-2.76,0-5,.88-6.73,2.65-1.73,1.77-2.59,4.06-2.59,6.87s.84,4.97,2.52,6.74c1.68,1.77,3.81,2.65,6.37,2.65,1.49,0,2.92-.26,4.27-.79,1.35-.53,2.64-1.33,3.88-2.4v4.64c-1.1.79-2.3,1.38-3.6,1.77-1.3.39-2.7.59-4.22.59-1.93,0-3.71-.32-5.35-.95-1.64-.63-3.08-1.56-4.32-2.79-1.23-1.21-2.17-2.63-2.83-4.27-.66-1.64-.99-3.38-.99-5.23s.33-3.59.99-5.21c.66-1.63,1.62-3.05,2.87-4.28,1.25-1.24,2.69-2.18,4.31-2.82,1.62-.64,3.37-.96,5.26-.96,1.48,0,2.9.22,4.24.65,1.35.43,2.65,1.08,3.91,1.96l-.22,4.14Z" style="fill:#0070ba; stroke-width:0px;"/><path d="M347.71,46.01h-6.1v4.21h5.89v2.48h-5.89v8.34h-2.64v-17.51h8.75v2.48Z" style="fill:#0070ba; stroke-width:0px;"/><path d="M358.06,43.53v10.55c0,1.5.25,2.61.74,3.3.73,1.01,1.77,1.51,3.1,1.51s2.37-.5,3.11-1.51c.49-.67.74-1.77.74-3.3v-10.55h2.64v11.28c0,1.85-.57,3.37-1.72,4.56-1.29,1.33-2.88,2-4.76,2s-3.47-.66-4.75-2c-1.15-1.19-1.72-2.71-1.72-4.56v-11.28h2.64Z" style="fill:#0070ba; stroke-width:0px;"/><path d="M377.23,61.04v-18.7l12.77,13.36v-12.17h2.64v18.58l-12.77-13.33v12.26h-2.64Z" style="fill:#0070ba; stroke-width:0px;"/><path d="M401.49,61.04v-17.51h3.67c1.76,0,3.15.17,4.17.52,1.1.34,2.09.92,2.98,1.74,1.81,1.65,2.71,3.81,2.71,6.5s-.94,4.87-2.82,6.53c-.95.83-1.94,1.41-2.97,1.74-.97.33-2.34.49-4.12.49h-3.63ZM404.13,58.56h1.19c1.19,0,2.17-.12,2.96-.37.79-.27,1.5-.68,2.13-1.26,1.3-1.19,1.95-2.73,1.95-4.64s-.64-3.48-1.93-4.67c-1.16-1.07-2.86-1.6-5.12-1.6h-1.19v12.55Z" style="fill:#0070ba; stroke-width:0px;"/><path d="M432.43,56.79h-7.5l-1.95,4.25h-2.85l8.67-18.61,8.36,18.61h-2.89l-1.84-4.25ZM431.35,54.31l-2.6-5.96-2.72,5.96h5.32Z" style="fill:#0070ba; stroke-width:0px;"/><path d="M456.12,44.47v3.13c-1.53-1.28-3.11-1.92-4.74-1.92-1.8,0-3.32.65-4.55,1.94-1.24,1.29-1.86,2.86-1.86,4.72s.62,3.39,1.86,4.65c1.24,1.26,2.76,1.89,4.56,1.89.93,0,1.72-.15,2.37-.45.36-.15.74-.36,1.13-.61.39-.26.8-.57,1.23-.93v3.19c-1.51.85-3.1,1.28-4.76,1.28-2.5,0-4.64-.87-6.41-2.62-1.76-1.76-2.64-3.89-2.64-6.37,0-2.23.74-4.22,2.21-5.97,1.81-2.14,4.16-3.21,7.04-3.21,1.57,0,3.09.43,4.56,1.28Z" style="fill:#0070ba; stroke-width:0px;"/><path d="M466.74,43.53v17.51h-2.64v-17.51h2.64Z" style="fill:#0070ba; stroke-width:0px;"/><path d="M474.72,52.21c0-2.47.9-4.58,2.71-6.35,1.8-1.77,3.96-2.65,6.49-2.65s4.64.89,6.42,2.68c1.79,1.78,2.69,3.93,2.69,6.43s-.9,4.65-2.7,6.41c-1.81,1.76-3.99,2.64-6.55,2.64-2.26,0-4.29-.78-6.09-2.35-1.98-1.73-2.97-4-2.97-6.81ZM477.39,52.24c0,1.94.65,3.53,1.95,4.78,1.29,1.25,2.79,1.87,4.48,1.87,1.84,0,3.39-.64,4.65-1.91,1.26-1.29,1.89-2.85,1.89-4.7s-.62-3.43-1.87-4.7c-1.24-1.27-2.78-1.91-4.6-1.91s-3.36.64-4.62,1.91c-1.26,1.26-1.88,2.81-1.88,4.65ZM487.9,38.82l-4.63,3.13-1.26-1.06,3.64-3.65,2.25,1.58Z" style="fill:#0070ba; stroke-width:0px;"/><path d="M501,61.04v-18.7l12.77,13.36v-12.17h2.64v18.58l-12.77-13.33v12.26h-2.64Z" style="fill:#0070ba; stroke-width:0px;"/></g></svg>