<?xml version="1.0" encoding="UTF-8"?><svg id="b" xmlns="http://www.w3.org/2000/svg" viewBox="0 0 449.63 464.19"><g id="c"><path d="M76.8,435.88l7.29,18.25,7.39-18.25h4.35l-11.82,28.32-11.55-28.32h4.35Z" style="fill:#0070ba; stroke-width:0px;"/><path d="M131.23,455.82h-11.28l-2.94,6.4h-4.28l13.03-27.99,12.57,27.99h-4.35l-2.76-6.4ZM129.61,452.08l-3.91-8.96-4.09,8.96h8Z" style="fill:#0070ba; stroke-width:0px;"/><path d="M164.48,435.88v22.6h7.75v3.74h-11.72v-26.34h3.97Z" style="fill:#0070ba; stroke-width:0px;"/><path d="M209.4,439.61h-10.56v6.33h10.25v3.74h-10.25v8.8h10.56v3.74h-14.53v-26.34h14.53v3.74ZM196.94,428.8l3.38-2.37,5.46,5.49-1.89,1.59-6.94-4.71Z" style="fill:#0070ba; stroke-width:0px;"/><path d="M233.48,462.22v-28.13l19.21,20.1v-18.3h3.97v27.94l-19.21-20.04v18.44h-3.97Z" style="fill:#0070ba; stroke-width:0px;"/><path d="M301.54,437.29v4.71c-2.3-1.92-4.67-2.88-7.13-2.88-2.71,0-4.99.97-6.84,2.92-1.87,1.93-2.8,4.3-2.8,7.1s.93,5.1,2.8,6.99c1.87,1.9,4.15,2.85,6.86,2.85,1.4,0,2.59-.23,3.57-.68.55-.23,1.11-.53,1.7-.92.58-.39,1.2-.85,1.85-1.4v4.8c-2.27,1.28-4.66,1.93-7.16,1.93-3.76,0-6.98-1.31-9.64-3.94-2.65-2.65-3.97-5.84-3.97-9.59,0-3.35,1.11-6.35,3.33-8.97,2.73-3.22,6.26-4.83,10.59-4.83,2.36,0,4.65.64,6.86,1.93Z" style="fill:#0070ba; stroke-width:0px;"/><path d="M329.4,435.88v26.34h-3.97v-26.34h3.97Z" style="fill:#0070ba; stroke-width:0px;"/><path d="M370.07,455.82h-11.28l-2.94,6.4h-4.28l13.03-27.99,12.57,27.99h-4.35l-2.76-6.4ZM368.45,452.08l-3.91-8.96-4.09,8.96h8Z" style="fill:#0070ba; stroke-width:0px;"/><path d="M289.79,354.17l-22.15-9.98-3.09-11.85h0c-.36-1.32-.8-2.61-1.27-3.87h4.84c2.67,0,4.84-2.17,4.84-4.84s-2.17-4.84-4.84-4.84h-9.84c-3.32-4.9-7.56-9.13-12.47-12.44-5.92-4.15-13.13-6.6-20.92-6.6-12.55,0-23.61,6.35-30.18,16-.3.4-.48.89-.48,1.43,0,1.06.68,1.95,1.63,2.28-.95.33-1.63,1.22-1.63,2.28,0,.36.08.7.22,1h0s.01.02.02.04c.07.14.15.27.24.4,4.26,7.15,10.39,13.06,17.72,17.04v10.05c0,2.67,2.17,4.84,4.84,4.84s4.84-2.17,4.84-4.84v-6.15c3.91,1.08,8.03,1.65,12.28,1.65.52,0,1.05-.01,1.57-.03v.02c.52-.02,1.04-.04,1.57-.04,6.53,0,12.75,1.37,18.38,3.81l3.52,1.59,6.73,25.84c.67,2.59,3.32,4.14,5.91,3.46,2.59-.67,4.14-3.32,3.46-5.91l-4.76-18.29,15.03,6.78c2.44,1.1,5.3.02,6.4-2.42,1.1-2.44.02-5.3-2.42-6.4ZM212.61,321.55c-2.67,0-4.84-2.17-4.84-4.84s2.17-4.84,4.84-4.84,4.84,2.17,4.84,4.84-2.17,4.84-4.84,4.84Z" style="fill:#0070ba; fill-rule:evenodd; stroke-width:0px;"/><path d="M50.54,176.53c.03.27.09.53.2.77l36.44,90.38h0c.09.21.19.41.3.61.02.04.04.07.07.11.1.17.21.33.34.48.02.02.03.04.04.06.13.15.27.3.41.44.05.04.09.09.14.13.14.12.28.24.43.34.03.02.06.04.09.06.16.1.32.2.49.28.05.03.11.05.16.08.18.08.37.16.57.22.01,0,.03,0,.04.01.19.06.38.1.58.13.06,0,.12.02.17.03.21.03.41.05.63.05,0,0,0,0,.02,0h.83v.06c11.37.47,21.98,3.82,31.13,9.35h0c9.84,5.91,21.36,9.31,33.68,9.31s23.94-3.43,33.81-9.38c9.84-5.92,21.37-9.33,33.69-9.34h0s0,0,0,0c12.32,0,23.85,3.42,33.69,9.34,9.87,5.96,21.44,9.38,33.81,9.38s23.84-3.4,33.68-9.31h0c9.15-5.53,19.76-8.89,31.12-9.35v-.06h.85s0,0,.02,0c.21,0,.42-.02.63-.05.06,0,.12-.02.17-.03.2-.03.39-.08.58-.13.01,0,.03,0,.04-.01.2-.06.38-.14.57-.22.05-.02.11-.05.16-.08.17-.09.33-.18.49-.28.03-.02.06-.04.09-.06.15-.1.3-.22.43-.34.05-.04.1-.08.14-.13.15-.14.29-.28.41-.44.02-.02.03-.04.04-.06.12-.15.23-.31.34-.48.02-.04.04-.07.07-.11.11-.19.21-.4.3-.61h0s36.44-90.38,36.44-90.38c.11-.24.17-.5.2-.77,0-.06.02-.12.02-.18,0-.02,0-.04,0-.05,0-.04-.01-.08-.01-.13,0-.09-.01-.19-.03-.28-.01-.06-.02-.12-.04-.19-.02-.07-.04-.14-.06-.21-.03-.08-.06-.16-.1-.24,0-.02-.02-.03-.03-.05-.28-.55-.76-.98-1.35-1.19-.03-.01-.06-.02-.09-.03-.09-.03-.17-.06-.26-.07-.44-.09-.9-.05-1.35.13-.02,0-.05.02-.07.03-.1.05-.21.1-.31.17-.04.02-.08.05-.11.07-.04.03-.08.04-.11.07l-73.53,57.58-19.45-73.53c-.14-.75-.46-1.43-.9-2.02h0c-.88-1.16-2.28-1.92-3.85-1.92-1.34,0-2.55.54-3.42,1.42l-69.2,63.94-69.2-63.94c-.88-.88-2.09-1.42-3.42-1.42-1.57,0-2.97.75-3.85,1.92h0c-.44.58-.76,1.27-.9,2.02l-19.45,73.53-73.53-57.58s-.07-.05-.11-.07c-.04-.03-.07-.05-.11-.07-.1-.06-.2-.12-.31-.17-.02-.01-.05-.02-.07-.03-.45-.19-.92-.22-1.35-.13-.09.02-.18.05-.26.07-.03,0-.06.02-.09.03-.59.21-1.07.63-1.35,1.19,0,.02-.02.03-.03.05-.04.08-.07.16-.1.24-.02.07-.05.14-.06.21-.02.06-.03.12-.04.19-.02.09-.02.18-.03.28,0,.04-.01.08-.01.13,0,.02,0,.04,0,.05,0,.06.01.12.02.18Z" style="fill:#0070ba; fill-rule:evenodd; stroke-width:0px;"/><path d="M397.62,295.1s0,0,0,0c-.1-.1-.21-.2-.33-.29-9.91-8.95-23.02-14.41-37.43-14.41-10.59,0-20.49,2.95-28.92,8.06h0c-11.29,6.77-24.5,10.66-38.62,10.66s-27.52-3.95-38.86-10.81h-.01c-8.37-5.02-18.16-7.91-28.63-7.92-10.47,0-20.26,2.9-28.63,7.92h-.01c-11.34,6.86-24.64,10.81-38.86,10.81s-27.33-3.89-38.62-10.66h0c-8.44-5.12-18.34-8.06-28.92-8.06-14.4,0-27.52,5.46-37.43,14.41-.11.09-.22.19-.33.29,0,0,0,0,0,0h0c-.92.88-1.49,2.12-1.49,3.49,0,2.67,2.17,4.84,4.84,4.84,1.34,0,2.55-.54,3.42-1.42h0c8.19-7.42,19.06-11.94,30.99-11.94,8.79,0,17.01,2.46,24,6.72h0c12.73,7.62,27.62,12,43.54,12s31.2-4.5,44.04-12.3h0c6.87-4.07,14.89-6.42,23.46-6.42,8.57,0,16.59,2.35,23.46,6.43h0c12.84,7.8,27.91,12.29,44.04,12.29s30.81-4.38,43.54-12h0c6.99-4.26,15.21-6.72,24-6.72,11.92,0,22.79,4.52,30.99,11.94h0c.88.87,2.09,1.41,3.42,1.41,2.67,0,4.84-2.17,4.84-4.84,0-1.37-.57-2.61-1.49-3.49h0Z" style="fill:#0070ba; fill-rule:evenodd; stroke-width:0px;"/><path d="M43.52,88.36c0,2.89-.54,5.62-1.63,8.2-1.08,2.58-2.66,4.87-4.74,6.9-2.09,2.02-4.46,3.57-7.09,4.64-2.63,1.08-5.39,1.62-8.28,1.62s-5.73-.54-8.39-1.63c-2.66-1.08-5.01-2.63-7.05-4.63-2.08-2.02-3.65-4.31-4.73-6.87-1.08-2.56-1.61-5.3-1.61-8.23s.54-5.66,1.61-8.23c1.08-2.58,2.65-4.89,4.73-6.93,2.08-2.02,4.43-3.56,7.06-4.62,2.63-1.06,5.42-1.58,8.37-1.58s5.7.53,8.33,1.58c2.62,1.06,4.97,2.59,7.05,4.62,2.08,2.06,3.66,4.38,4.74,6.97,1.09,2.59,1.63,5.32,1.63,8.19ZM36.62,88.36c0-2.06-.37-4.01-1.13-5.87-.75-1.86-1.83-3.5-3.24-4.95-1.37-1.43-2.96-2.53-4.77-3.29-1.81-.77-3.71-1.15-5.71-1.15s-3.91.38-5.72,1.14c-1.81.76-3.42,1.86-4.83,3.31-1.41,1.43-2.48,3.07-3.23,4.92-.74,1.85-1.11,3.82-1.11,5.9s.37,4,1.11,5.84c.74,1.84,1.82,3.48,3.23,4.92,1.41,1.45,3.01,2.55,4.81,3.31,1.8.76,3.71,1.14,5.73,1.14s3.87-.38,5.66-1.14c1.79-.76,3.4-1.86,4.83-3.31,1.41-1.45,2.49-3.09,3.24-4.94.75-1.85,1.13-3.79,1.13-5.82Z" style="fill:#0070ba; stroke-width:0px;"/><path d="M83.79,77.82c-1.87-1.59-3.85-2.79-5.94-3.59-2.09-.8-4.28-1.2-6.58-1.2-4.45,0-8.07,1.43-10.86,4.28-2.79,2.86-4.18,6.55-4.18,11.09s1.36,8.02,4.07,10.88c2.72,2.86,6.14,4.28,10.28,4.28,2.41,0,4.7-.43,6.88-1.28,2.18-.85,4.27-2.14,6.27-3.87v7.48c-1.78,1.28-3.72,2.23-5.81,2.86-2.09.63-4.36.95-6.81.95-3.11,0-5.99-.51-8.64-1.53-2.64-1.02-4.96-2.52-6.97-4.51-1.98-1.95-3.51-4.24-4.57-6.88-1.07-2.64-1.6-5.45-1.6-8.44s.53-5.79,1.6-8.41c1.07-2.62,2.61-4.93,4.63-6.91,2.02-2,4.34-3.52,6.95-4.55,2.61-1.03,5.44-1.54,8.48-1.54,2.39,0,4.67.35,6.84,1.04,2.17.7,4.28,1.75,6.31,3.16l-.36,6.67Z" style="fill:#0070ba; stroke-width:0px;"/><path d="M92,108.63v-40.71h22.72v5.62h-16.1v10.2h16.1v5.81h-16.1v13.16h16.1v5.92h-22.72Z" style="fill:#0070ba; stroke-width:0px;"/><path d="M149.2,108.63l-4.62-10.48h-16.13l-4.72,10.48h-6.96l19.72-42.33,19.69,42.33h-6.98ZM130.9,92.64h11.35l-4.17-9.29c-.24-.6-.49-1.28-.75-2.04-.26-.77-.52-1.63-.78-2.57-.22.89-.46,1.72-.71,2.49-.25.77-.5,1.48-.76,2.13l-4.17,9.29Z" style="fill:#0070ba; stroke-width:0px;"/><path d="M160.02,108.63v-42.33l25.86,24.89c.7.71,1.42,1.46,2.14,2.25.72.8,1.48,1.7,2.28,2.7v-28.23h6.12v42.3l-26.39-25.33c-.7-.69-1.39-1.41-2.04-2.17-.66-.76-1.28-1.56-1.87-2.39v28.31h-6.09Z" style="fill:#0070ba; stroke-width:0px;"/><path d="M247.51,88.36c0,2.89-.54,5.62-1.63,8.2-1.08,2.58-2.66,4.87-4.74,6.9-2.09,2.02-4.46,3.57-7.09,4.64-2.63,1.08-5.39,1.62-8.28,1.62s-5.73-.54-8.39-1.63c-2.66-1.08-5.01-2.63-7.05-4.63-2.08-2.02-3.65-4.31-4.73-6.87-1.08-2.56-1.61-5.3-1.61-8.23s.54-5.66,1.61-8.23c1.08-2.58,2.65-4.89,4.73-6.93,2.08-2.02,4.43-3.56,7.06-4.62,2.63-1.06,5.42-1.58,8.37-1.58s5.7.53,8.33,1.58c2.62,1.06,4.97,2.59,7.05,4.62,2.08,2.06,3.66,4.38,4.74,6.97,1.09,2.59,1.63,5.32,1.63,8.19ZM240.61,88.36c0-2.06-.37-4.01-1.13-5.87-.75-1.86-1.83-3.5-3.24-4.95-1.37-1.43-2.96-2.53-4.77-3.29-1.81-.77-3.71-1.15-5.71-1.15s-3.91.38-5.72,1.14c-1.81.76-3.42,1.86-4.83,3.31-1.41,1.43-2.48,3.07-3.23,4.92-.74,1.85-1.11,3.82-1.11,5.9s.37,4,1.11,5.84c.74,1.84,1.82,3.48,3.23,4.92,1.41,1.45,3.01,2.55,4.81,3.31,1.8.76,3.71,1.14,5.73,1.14s3.87-.38,5.66-1.14c1.79-.76,3.4-1.86,4.83-3.31,1.41-1.45,2.49-3.09,3.24-4.94.75-1.85,1.13-3.79,1.13-5.82Z" style="fill:#0070ba; stroke-width:0px;"/><path d="M277.66,87.78h16.13c0,.28,0,.67.03,1.17.06,1.32.09,2.21.09,2.67,0,5.73-1.64,10.18-4.92,13.35-3.28,3.17-7.91,4.76-13.88,4.76-3.34,0-6.31-.49-8.93-1.48-2.61-.98-4.9-2.47-6.87-4.45-1.93-1.97-3.41-4.27-4.44-6.93-1.03-2.65-1.54-5.49-1.54-8.51s.52-5.92,1.57-8.51c1.05-2.59,2.6-4.88,4.66-6.87,1.98-1.95,4.31-3.43,6.98-4.45,2.67-1.02,5.52-1.53,8.57-1.53,3.21,0,6.08.58,8.6,1.75,2.53,1.17,4.79,2.96,6.77,5.37l-4.84,3.64c-1.37-1.59-2.92-2.78-4.64-3.56-1.73-.78-3.65-1.17-5.78-1.17-4.41,0-8.02,1.41-10.81,4.24-2.79,2.83-4.18,6.5-4.18,11.03s1.39,8.33,4.18,11.2c2.79,2.86,6.41,4.3,10.86,4.3,3.78,0,6.76-.88,8.93-2.64,2.17-1.76,3.26-4.16,3.26-7.2v-.58h-9.79v-5.59Z" style="fill:#0070ba; stroke-width:0px;"/><path d="M307.05,90.42v18.22h-6.2v-40.71h9.23c2.71,0,4.81.18,6.3.53,1.49.35,2.77.94,3.82,1.75,1.26.98,2.23,2.25,2.92,3.81.69,1.56,1.03,3.26,1.03,5.12,0,3.26-.79,5.81-2.37,7.66-1.57,1.85-3.9,2.95-6.98,3.32l14.02,18.52h-7.48l-13.54-18.22h-.75ZM307.47,85.27h1.19c3.51,0,5.83-.41,6.98-1.22,1.15-.81,1.72-2.26,1.72-4.34,0-2.24-.62-3.82-1.85-4.74-1.23-.92-3.52-1.38-6.86-1.38h-1.19v11.68Z" style="fill:#0070ba; stroke-width:0px;"/><path d="M359.64,108.63l-4.62-10.48h-16.13l-4.72,10.48h-6.96l19.72-42.33,19.69,42.33h-6.98ZM350.85,63.92h-3.42l-8.12-7.56h6.26l5.29,7.56ZM341.34,92.64h11.35l-4.17-9.29c-.24-.6-.49-1.28-.75-2.04-.26-.77-.52-1.63-.78-2.57-.22.89-.46,1.72-.71,2.49-.25.77-.5,1.48-.76,2.13l-4.17,9.29Z" style="fill:#0070ba; stroke-width:0px;"/><path d="M370.46,108.63v-40.71h22.72v5.62h-16.1v10.15h16.1v5.81h-16.1v19.13h-6.62Z" style="fill:#0070ba; stroke-width:0px;"/><path d="M400.46,108.63v-40.71h6.62v40.71h-6.62Z" style="fill:#0070ba; stroke-width:0px;"/><path d="M449.27,77.82c-1.87-1.59-3.85-2.79-5.94-3.59-2.09-.8-4.28-1.2-6.58-1.2-4.45,0-8.07,1.43-10.86,4.28-2.79,2.86-4.18,6.55-4.18,11.09s1.36,8.02,4.07,10.88c2.72,2.86,6.14,4.28,10.28,4.28,2.41,0,4.7-.43,6.88-1.28,2.18-.85,4.27-2.14,6.27-3.87v7.48c-1.78,1.28-3.72,2.23-5.81,2.86-2.09.63-4.36.95-6.81.95-3.11,0-5.99-.51-8.64-1.53-2.64-1.02-4.96-2.52-6.97-4.51-1.98-1.95-3.51-4.24-4.57-6.88-1.07-2.64-1.6-5.45-1.6-8.44s.53-5.79,1.6-8.41c1.07-2.62,2.61-4.93,4.63-6.91,2.02-2,4.34-3.52,6.95-4.55,2.61-1.03,5.44-1.54,8.48-1.54,2.39,0,4.67.35,6.84,1.04,2.17.7,4.28,1.75,6.31,3.16l-.36,6.67Z" style="fill:#0070ba; stroke-width:0px;"/><path d="M95.75,14.15h-9.85v6.79h9.5v4.01h-9.5v13.45h-4.26V10.14h14.11v4.01Z" style="fill:#0070ba; stroke-width:0px;"/><path d="M112.45,10.14v17.02c0,2.43.4,4.2,1.19,5.33,1.18,1.62,2.85,2.44,5,2.44s3.83-.81,5.02-2.44c.79-1.09,1.19-2.86,1.19-5.33V10.14h4.26v18.2c0,2.98-.93,5.43-2.78,7.36-2.09,2.15-4.65,3.22-7.69,3.22s-5.6-1.07-7.67-3.22c-1.86-1.93-2.78-4.38-2.78-7.36V10.14h4.26Z" style="fill:#0070ba; stroke-width:0px;"/><path d="M143.38,38.4V8.22l20.61,21.56V10.14h4.27v29.98l-20.61-21.51v19.79h-4.26Z" style="fill:#0070ba; stroke-width:0px;"/><path d="M182.53,38.4V10.14h5.93c2.84,0,5.09.28,6.74.84,1.77.55,3.37,1.48,4.81,2.8,2.92,2.66,4.38,6.16,4.38,10.49s-1.52,7.86-4.56,10.54c-1.53,1.34-3.12,2.28-4.8,2.8-1.56.52-3.78.79-6.65.79h-5.86ZM186.79,34.4h1.92c1.92,0,3.51-.2,4.78-.6,1.27-.43,2.42-1.1,3.44-2.03,2.1-1.92,3.15-4.41,3.15-7.49s-1.04-5.61-3.11-7.54c-1.87-1.72-4.62-2.58-8.26-2.58h-1.92v20.25Z" style="fill:#0070ba; stroke-width:0px;"/><path d="M232.46,31.54h-12.1l-3.15,6.86h-4.59l13.98-30.04,13.49,30.04h-4.67l-2.97-6.86ZM230.72,27.53l-4.19-9.61-4.39,9.61h8.59Z" style="fill:#0070ba; stroke-width:0px;"/><path d="M270.69,11.66v5.05c-2.47-2.06-5.02-3.09-7.65-3.09-2.9,0-5.35,1.04-7.34,3.13-2,2.07-3,4.61-3,7.61s1,5.47,3,7.51c2,2.04,4.45,3.06,7.36,3.06,1.5,0,2.78-.24,3.83-.73.59-.24,1.19-.57,1.82-.99.63-.41,1.29-.91,1.99-1.5v5.14c-2.44,1.38-5,2.07-7.69,2.07-4.04,0-7.49-1.41-10.34-4.23-2.84-2.84-4.26-6.27-4.26-10.29,0-3.6,1.19-6.81,3.57-9.63,2.93-3.45,6.72-5.18,11.37-5.18,2.54,0,4.99.69,7.36,2.07Z" style="fill:#0070ba; stroke-width:0px;"/><path d="M287.84,10.14v28.26h-4.26V10.14h4.26Z" style="fill:#0070ba; stroke-width:0px;"/><path d="M300.72,24.14c0-3.98,1.46-7.4,4.38-10.25,2.9-2.86,6.39-4.28,10.47-4.28s7.48,1.44,10.36,4.32c2.89,2.88,4.34,6.34,4.34,10.38s-1.45,7.51-4.36,10.34c-2.92,2.84-6.44,4.26-10.56,4.26-3.65,0-6.93-1.26-9.83-3.79-3.2-2.79-4.8-6.46-4.8-10.98ZM305.02,24.2c0,3.12,1.05,5.69,3.15,7.71,2.09,2.01,4.5,3.02,7.23,3.02,2.97,0,5.47-1.03,7.51-3.08,2.04-2.07,3.06-4.6,3.06-7.58s-1.01-5.54-3.02-7.58c-2-2.05-4.48-3.08-7.43-3.08s-5.43,1.03-7.45,3.08c-2.03,2.03-3.04,4.53-3.04,7.5ZM321.99,2.54l-7.47,5.05-2.03-1.7,5.88-5.89,3.62,2.54Z" style="fill:#0070ba; stroke-width:0px;"/><path d="M343.12,38.4V8.22l20.61,21.56V10.14h4.27v29.98l-20.61-21.51v19.79h-4.26Z" style="fill:#0070ba; stroke-width:0px;"/></g></svg>